{
.appVersion = "1274";
DisplayStrings = (
"HH/quotedblleft A/quoteright A/quoteright A/quoteleft/quotesinglbase/quotedblbase/quotesinglbase A/quotedblleft/quotedblright/quotedblbase T/quotedblbase/quotedblbase Y/quotedblbase/quotedblbase V/quotedblbase"
);
copyright = "Copyright © 2018 by Adrien Midzic. All rights reserved.";
customParameters = (
{
name = panose;
value = (
0,
0,
5,
0,
0,
0,
0,
0,
0,
0
);
},
{
name = unicodeRanges;
value = (
0,
1,
2,
7,
9
);
},
{
name = codePageRanges;
value = (
1252,
1250,
1251,
1253,
1254,
1257
);
},
{
name = glyphOrder;
value = (
.notdef,
A,
Aacute,
Abreve,
Acircumflex,
Adieresis,
Agrave,
Amacron,
Aogonek,
Aring,
Atilde,
AE,
B,
C,
Cacute,
Ccaron,
Ccedilla,
Cdotaccent,
D,
Eth,
Dcaron,
Dcroat,
E,
Eacute,
Ecaron,
Ecircumflex,
Edieresis,
Edotaccent,
Egrave,
Emacron,
Eogonek,
F,
G,
Gbreve,
uni0122,
Gdotaccent,
H,
Hbar,
I,
Iacute,
Icircumflex,
Idieresis,
Idotaccent,
Igrave,
Imacron,
Iogonek,
J,
K,
uni0136,
L,
Lacute,
Lcaron,
uni013B,
Ldot,
Lslash,
M,
N,
Nacute,
Ncaron,
uni0145,
Eng,
Ntilde,
O,
Oacute,
Ocircumflex,
Odieresis,
Ograve,
Ohungarumlaut,
Omacron,
Oslash,
Otilde,
OE,
P,
Thorn,
Q,
R,
Racute,
Rcaron,
uni0156,
S,
Sacute,
Scaron,
Scedilla,
uni0218,
T,
Tbar,
Tcaron,
uni0162,
uni021A,
U,
Uacute,
Ucircumflex,
Udieresis,
Ugrave,
Uhungarumlaut,
Umacron,
Uogonek,
Uring,
V,
W,
Wacute,
Wcircumflex,
Wdieresis,
Wgrave,
X,
Y,
Yacute,
Ycircumflex,
Ydieresis,
Ygrave,
Z,
Zacute,
Zcaron,
Zdotaccent,
A.ss02,
AE.ss02,
B.ss02,
C.ss02,
Ccedilla.ss02,
D.ss02,
E.ss02,
F.ss02,
G.ss02,
H.ss02,
I.ss02,
J.ss02,
K.ss02,
L.ss02,
M.ss02,
N.ss02,
O.ss02,
Oacute.ss02,
Ocircumflex.ss02,
Odieresis.ss02,
Ograve.ss02,
Ohungarumlaut.ss02,
Omacron.ss02,
Oslash.ss02,
Otilde.ss02,
P.ss02,
Q.ss02,
R.ss02,
S.ss02,
T.ss02,
U.ss02,
V.ss02,
W.ss02,
X.ss02,
Y.ss02,
Z.ss02,
A.ss03,
AE.ss03,
B.ss03,
C.ss03,
Ccedilla.ss03,
D.ss03,
E.ss03,
F.ss03,
G.ss03,
H.ss03,
I.ss03,
J.ss03,
K.ss03,
L.ss03,
M.ss03,
N.ss03,
O.ss03,
Oacute.ss03,
Ocircumflex.ss03,
Odieresis.ss03,
Ograve.ss03,

glyphs = (
{
color = 3;
glyphname = A;
lastChange = "2019-10-31 17:06:38 +0000";
layers = (
{
anchors = (
{
name = ogonek;
position = "{732, 1}";
},
{
name = top;
position = "{374, 679}";
}
);
layerId = "36D41E8E-F531-4154-A930-CD44EA9C85A7";
paths = (
{
closed = 1;
nodes = (
"148 0 LINE",
"213 161 LINE",
"540 161 LINE",
"605 0 LINE",
"732 0 LINE",
"430 679 LINE",
"323 679 LINE",
"21 0 LINE"
);
},
{
closed = 1;
nodes = (
"377 552 LINE",
"499 263 LINE",
"254 263 LINE"
);
}
);
width = 753;
}
);
leftKerningGroup = A;
rightKerningGroup = A;
unicode = 0041;
},
{
color = 3;
glyphname = B;
lastChange = "2018-02-09 15:44:29 +0000";
layers = (
{
components = (
{
name = I;
}
);
layerId = "36D41E8E-F531-4154-A930-CD44EA9C85A7";
paths = (
{
closed = 1;
nodes = (
"386 0 LINE SMOOTH",
"530 0 OFFCURVE",
"626 66 OFFCURVE",
"626 206 CURVE SMOOTH",
"626 295 OFFCURVE",
"568 361 OFFCURVE",
"476 369 CURVE",
"542 380 OFFCURVE",
"589 427 OFFCURVE",
"589 504 CURVE SMOOTH",
"589 625 OFFCURVE",
"515 679 OFFCURVE",
"368 679 CURVE SMOOTH",
"106 679 LINE",
"106 577 LINE",
"354 577 LINE SMOOTH",
"427 577 OFFCURVE",
"478 572 OFFCURVE",
"482 496 CURVE",
"482 427 OFFCURVE",
"436 408 OFFCURVE",
"348 408 CURVE SMOOTH",
"106 408 LINE",
"106 311 LINE",
"378 311 LINE SMOOTH",
"467 311 OFFCURVE",
"511 277 OFFCURVE",
"511 208 CURVE SMOOTH",
"511 137 OFFCURVE",
"467 102 OFFCURVE",
"378 102 CURVE SMOOTH",
"106 102 LINE",
"106 0 LINE"
);
}
);
width = 666;
}
);
rightKerningGroup = B;
unicode = 0042;
},
{
color = 3;
glyphname = C;
lastChange = "2018-02-09 15:44:29 +0000";
layers = (
{
anchors = (
{
name = bottom;
position = "{421, -9}";
},
{
name = top;
position = "{419, 679}";
}
);
layerId = "36D41E8E-F531-4154-A930-CD44EA9C85A7";
paths = (
{
closed = 1;
nodes = (
"573 -15 OFFCURVE",
"643 37 OFFCURVE",
"659 46 CURVE",
"659 163 LINE",
"601 114 OFFCURVE",
"509 88 OFFCURVE",
"420 88 CURVE SMOOTH",
"255 88 OFFCURVE",
"158 197 OFFCURVE",
"158 340 CURVE SMOOTH",
"158 482 OFFCURVE",
"255 593 OFFCURVE",
"420 593 CURVE SMOOTH",
"539 593 OFFCURVE",
"634 530 OFFCURVE",
"640 520 CURVE",
"640 635 LINE",
"605 659 OFFCURVE",
"532 695 OFFCURVE",
"420 695 CURVE SMOOTH",
"197 698 OFFCURVE",
"42 534 OFFCURVE",
"45 340 CURVE SMOOTH",
"42 146 OFFCURVE",
"197 -18 OFFCURVE",
"420 -15 CURVE SMOOTH"
);
}
);
width = 704;
}
);
leftKerningGroup = "ronde-cap";
rightKerningGroup = C;
unicode = 0043;
},
{
color = 3;
glyphname = D;
lastChange = "2018-03-11 15:07:45 +0000";
layers = (
{
anchors = (
{
name = center;
position = "{144, 340}";
},
{
name = top;
position = "{380, 679}";
}
);
components = (
{
name = I;
}
);
layerId = "36D41E8E-F531-4154-A930-CD44EA9C85A7";
paths = (
{
closed = 1;
nodes = (
"336 0 LINE SMOOTH",
"561 0 OFFCURVE",
"705 143 OFFCURVE",
"705 340 CURVE SMOOTH",
"705 538 OFFCURVE",
"569 679 OFFCURVE",
"336 679 CURVE SMOOTH",
"126 679 LINE",
"126 577 LINE",
"327 577 LINE SMOOTH",
"504 577 OFFCURVE",
"592 487 OFFCURVE",
"592 340 CURVE SMOOTH",
"587 177 OFFCURVE",
"485 103 OFFCURVE",
"328 103 CURVE SMOOTH",
"126 103 LINE",
"126 0 LINE"
);
}
);
width = 760;
}
);
rightKerningGroup = D;
unicode = 0044;
},
{
color = 3;
glyphname = E;
lastChange = "2018-03-11 15:12:47 +0000";
layers = (
{
anchors = (
{
name = "#entry";
position = "{90, 0}";
},
{
name = bottom;
position = "{321, 0}";
},
{
name = ogonek;
position = "{592, 1}";
},
{
name = top;
position = "{341, 679}";
}
);
components = (
{
name = I;
}
);
layerId = "36D41E8E-F531-4154-A930-CD44EA9C85A7";
paths = (
{
closed = 1;
nodes = (
"592 0 LINE",
"592 102 LINE",
"131 102 LINE",
"131 0 LINE"
);
},
{
closed = 1;
nodes = (
"507 311 LINE",
"507 413 LINE",
"131 413 LINE",
"131 311 LINE"
);
},
{
closed = 1;
nodes = (
"586 577 LINE",
"586 679 LINE",
"131 679 LINE",
"131 577 LINE"
);
}
);
width = 642;
}
);
rightKerningGroup = E;
unicode = 0045;
},
{
color = 3;
glyphname = F;
lastChange = "2018-03-11 15:13:05 +0000";
layers = (
{
components = (
{
name = I;
}
);
layerId = "36D41E8E-F531-4154-A930-CD44EA9C85A7";
paths = (
{
closed = 1;
nodes = (
"586 577 LINE",
"586 679 LINE",
"126 679 LINE",
"126 577 LINE"
);
},
{
closed = 1;
nodes = (
"507 311 LINE",
"507 413 LINE",
"126 413 LINE",
"126 311 LINE"
);
}
);
width = 624;
}
);
rightKerningGroup = F;
unicode = 0046;
},
{
color = 3;
glyphname = G;
lastChange = "2018-03-05 14:42:38 +0000";
layers = (
{
anchors = (
{
name = bottom;
position = "{409, -9}";
},
{
name = top;
position = "{388, 679}";
}
);
layerId = "36D41E8E-F531-4154-A930-CD44EA9C85A7";
paths = (
{
closed = 1;
nodes = (
"487 -15 OFFCURVE",
"551 10 OFFCURVE",
"591 35 CURVE",
"591 0 LINE",
"700 0 LINE",
"700 397 LINE",
"388 397 LINE",
"388 295 LINE",
"591 295 LINE",
"591 148 LINE",
"551 118 OFFCURVE",
"486 87 OFFCURVE",
"407 87 CURVE SMOOTH",
"264 87 OFFCURVE",
"163 199 OFFCURVE",
"163 340 CURVE SMOOTH",
"163 482 OFFCURVE",
"260 593 OFFCURVE",
"425 593 CURVE SMOOTH",
"485 593 OFFCURVE",
"535 584 OFFCURVE",
"576 566 CURVE SMOOTH",
"617 549 OFFCURVE",
"646 533 OFFCURVE",
"664 518 CURVE",
"664 634 LINE",
"645 646 OFFCURVE",
"614 659 OFFCURVE",
"572 673 CURVE SMOOTH",
"531 688 OFFCURVE",
"482 695 OFFCURVE",
"425 695 CURVE SMOOTH",
"202 698 OFFCURVE",
"47 534 OFFCURVE",
"50 340 CURVE SMOOTH",
"47 146 OFFCURVE",
"197 -15 OFFCURVE",
"407 -15 CURVE SMOOTH"
);
}
);
width = 776;
}
);
leftKerningGroup = "ronde-cap";
rightKerningGroup = G;
unicode = 0047;
},
{
color = 3;
glyphname = H;
lastChange = "2018-02-09 15:44:29 +0000";
layers = (
{
anchors = (
{
name = center;
position = "{376, 547}";
},
{
name = top;
position = "{376, 679}";
}
);
components = (
{
name = I;
transform = "{1, 0, 0, 1, 462, 0}";
},
{
name = I;
}
);
layerId = "36D41E8E-F531-4154-A930-CD44EA9C85A7";
paths = (
{
closed = 1;
nodes = (
"553 311 LINE",
"553 413 LINE",
"199 413 LINE",
"199 311 LINE"
);
}
);
width = 751;
}
);
leftKerningGroup = H;
rightKerningGroup = H;
unicode = 0048;
},
{
color = 3;
glyphname = I;
lastChange = "2018-02-09 15:44:29 +0000";
layers = (
{
anchors = (
{
name = ogonek;
position = "{193, 10}";
},
{
name = top;
position = "{145, 679}";
}
);
layerId = "36D41E8E-F531-4154-A930-CD44EA9C85A7";
paths = (
{
closed = 1;
nodes = (
"199 0 LINE",
"199 679 LINE",
"90 679 LINE",
"90 0 LINE"
);
}
);
width = 289;
}
);
leftKerningGroup = I;
rightKerningGroup = I;
unicode = 0049;
},
{
color = 3;
glyphname = J;
lastChange = "2018-02-09 15:44:29 +0000";
layers = (
{
anchors = (
{
name = top;
position = "{271, 679}";
}
);
layerId = "36D41E8E-F531-4154-A930-CD44EA9C85A7";
paths = (
{
closed = 1;
nodes = (
"378 -15 OFFCURVE",
"477 72 OFFCURVE",
"477 229 CURVE SMOOTH",
"477 679 LINE",
"368 679 LINE",
"368 227 LINE SMOOTH",
"368 128 OFFCURVE",
"324 88 OFFCURVE",
"214 88 CURVE SMOOTH",
"142 88 OFFCURVE",
"53 135 OFFCURVE",
"41 142 CURVE",
"41 38 LINE SMOOTH",
"41 33 OFFCURVE",
"135 -15 OFFCURVE",
"229 -15 CURVE SMOOTH"
);
}
);
width = 542;
}
);
leftKerningGroup = J;
rightKerningGroup = J;
unicode = 004A;
},
{
color = 3;
glyphname = K;
lastChange = "2018-03-05 13:24:09 +0000";
layers = (
{
anchors = (
{
name = bottom;
position = "{338, 0}";
},
{
name = top;
position = "{338, 679}";
}
);
layerId = "36D41E8E-F531-4154-A930-CD44EA9C85A7";
paths = (
{
closed = 1;
nodes = (
"198 0 LINE",
"198 243 LINE",
"289 329 LINE",
"532 0 LINE",
"668 0 LINE",
"368 404 LINE",
"668 679 LINE",
"526 679 LINE",
"198 370 LINE",
"198 679 LINE",
"90 679 LINE",
"90 0 LINE"
);
}
);
width = 686;
}
);
rightKerningGroup = K;
unicode = 004B;
},
{
color = 3;
glyphname = L;
lastChange = "2018-03-05 14:02:03 +0000";
layers = (
{
anchors = (
{
name = bottom;
position = "{324, 0}";
},
{
name = "caron-t";
position = "{328, 383}";
},
{
name = center;
position = "{145, 361}";
},
{
name = middle;
position = "{404, 355}";
},
{
name = top;
position = "{138, 679}";
}
);
layerId = "36D41E8E-F531-4154-A930-CD44EA9C85A7";
paths = (
{
closed = 1;
nodes = (
"610 0 LINE",
"610 102 LINE",
"198 102 LINE",
"198 679 LINE",
"90 679 LINE",
"90 0 LINE"
);
}
);
width = 648;
}
);
rightKerningGroup = L;
unicode = 004C;
},
{
color = 3;
glyphname = M;
lastChange = "2018-02-09 15:44:29 +0000";
layers = (
{
layerId = "36D41E8E-F531-4154-A930-CD44EA9C85A7";
paths = (
{
closed = 1;
nodes = (
"198 0 LINE",
"198 515 LINE",
"364 263 LINE",
"463 263 LINE",
"629 515 LINE",
"629 0 LINE",
"737 0 LINE",
"737 679 LINE",
"610 679 LINE",
"413 376 LINE",
"413 377 LINE",
"217 679 LINE",
"90 679 LINE",
"90 0 LINE"
);
}
);
width = 827;
}
);
leftKerningGroup = M;
rightKerningGroup = M;
unicode = 004D;
},
{
color = 3;
glyphname = N;
lastChange = "2018-02-09 15:44:29 +0000";
layers = (
{
anchors = (
{
name = bottom;
position = "{386, 0}";
},
{
name = top;
position = "{386, 679}";
}
);
layerId = "36D41E8E-F531-4154-A930-CD44EA9C85A7";
paths = (
{
closed = 1;
nodes = (
"198 0 LINE",
"198 523 LINE",
"560 0 LINE",
"681 0 LINE",
"681 679 LINE",
"573 679 LINE",
"573 165 LINE",
"215 679 LINE",
"90 679 LINE",
"90 0 LINE"
);
}
);
width = 771;
}
);
leftKerningGroup = N;
rightKerningGroup = N;
unicode = 004E;
},
{
color = 3;
glyphname = Eng;
lastChange = "2018-02-09 15:44:29 +0000";
layers = (
{
anchors = (
{
name = bottom;
position = "{386, 0}";
},
{
name = top;
position = "{386, 679}";
}
);
components = (
{
name = N;
}
);
layerId = "36D41E8E-F531-4154-A930-CD44EA9C85A7";
paths = (
{
closed = 1;
nodes = (
"655 -224 OFFCURVE",
"681 -108 OFFCURVE",
"681 -31 CURVE SMOOTH",
"681 84 LINE",
"573 84 LINE",
"573 -40 LINE SMOOTH",
"573 -81 OFFCURVE",
"559 -128 OFFCURVE",
"506 -128 CURVE SMOOTH",
"426 -128 OFFCURVE",
"375 -49 OFFCURVE",
"375 -49 CURVE",
"375 -161 LINE",
"375 -161 OFFCURVE",
"411 -224 OFFCURVE",
"521 -224 CURVE SMOOTH"
);
}
);
width = 771;
}
);
leftKerningGroup = N;
leftMetricsKey = N;
rightKerningGroup = N;
rightMetricsKey = N;
unicode = 014A;
},
{
color = 3;
glyphname = O;
lastChange = "2018-03-11 15:13:18 +0000";
layers = (
{
anchors = (
{
name = "#exit";
position = "{645, 0}";
},
{
name = bottom;
position = "{402, 0}";
},
{
name = center;
position = "{401, 340}";
},
{
name = top;
position = "{402, 679}";
}
);
layerId = "36D41E8E-F531-4154-A930-CD44EA9C85A7";
paths = (
{
closed = 1;
nodes = (
"608 -18 OFFCURVE",
"761 146 OFFCURVE",
"758 340 CURVE",
"761 534 OFFCURVE",
"608 698 OFFCURVE",
"401 695 CURVE SMOOTH",
"194 698 OFFCURVE",
"42 534 OFFCURVE",
"45 340 CURVE SMOOTH",
"42 146 OFFCURVE",
"194 -18 OFFCURVE",
"401 -15 CURVE SMOOTH"
);
},
{
closed = 1;
nodes = (
"253 88 OFFCURVE",
"157 197 OFFCURVE",
"157 340 CURVE SMOOTH",
"157 482 OFFCURVE",
"253 593 OFFCURVE",
"401 593 CURVE SMOOTH",
"551 593 OFFCURVE",
"645 482 OFFCURVE",
"645 340 CURVE SMOOTH",
"645 197 OFFCURVE",
"551 88 OFFCURVE",
"401 88 CURVE SMOOTH"
);
}
);
width = 803;
}
);
leftKerningGroup = "ronde-cap";
rightKerningGroup = "ronde-cap";
unicode = 004F;
},
{
color = 3;
glyphname = P;
lastChange = "2018-03-11 15:12:28 +0000";
layers = (
{
components = (
{
name = I;
}
);
layerId = "36D41E8E-F531-4154-A930-CD44EA9C85A7";
paths = (
{
closed = 1;
nodes = (
"406 233 LINE SMOOTH",
"544 233 OFFCURVE",
"649 322 OFFCURVE",
"649 456 CURVE SMOOTH",
"649 590 OFFCURVE",
"545 679 OFFCURVE",
"409 679 CURVE SMOOTH",
"122 679 LINE",
"122 577 LINE",
"401 577 LINE SMOOTH",
"475 577 OFFCURVE",
"537 528 OFFCURVE",
"537 454 CURVE SMOOTH",
"537 381 OFFCURVE",
"475 333 OFFCURVE",
"401 333 CURVE SMOOTH",
"122 333 LINE",
"122 233 LINE"
);
}
);
width = 698;
}
);
leftKerningGroup = P;
rightKerningGroup = P;
unicode = 0050;
},
{
color = 3;
glyphname = Thorn;
lastChange = "2018-02-09 15:44:29 +0000";
layers = (
{
components = (
{
name = I;
}
);
layerId = "36D41E8E-F531-4154-A930-CD44EA9C85A7";
paths = (
{
closed = 1;
nodes = (
"386 93 LINE SMOOTH",
"543 93 OFFCURVE",
"649 189 OFFCURVE",
"649 341 CURVE SMOOTH",
"649 496 OFFCURVE",
"553 589 OFFCURVE",
"389 589 CURVE SMOOTH",
"160 589 LINE",
"160 487 LINE",
"381 487 LINE SMOOTH",
"485 487 OFFCURVE",
"537 438 OFFCURVE",
"537 339 CURVE SMOOTH",
"537 242 OFFCURVE",
"485 193 OFFCURVE",
"381 193 CURVE SMOOTH",
"160 193 LINE",
"160 93 LINE"
);
}
);
width = 698;
}
);
leftMetricsKey = P;
rightKerningGroup = P;
rightMetricsKey = P;
unicode = 00DE;
},
{
color = 3;
glyphname = Q;
lastChange = "2018-03-11 15:13:31 +0000";
layers = (
{
anchors = (
{
name = bottom;
position = "{414, 0}";
},
{
name = top;
position = "{414, 679}";
}
);
components = (
{
name = O;
}
);
layerId = "36D41E8E-F531-4154-A930-CD44EA9C85A7";
paths = (
{
closed = 1;
nodes = (
"783 -15 LINE",
"783 87 LINE",
"401 87 LINE",
"401 -15 LINE"
);
}
);
width = 803;
}
);
leftKerningGroup = "ronde-cap";
rightKerningGroup = "ronde-cap";
unicode = 0051;
},
{
color = 3;
glyphname = R;
lastChange = "2018-03-11 15:13:35 +0000";
layers = (
{
anchors = (
{
name = bottom;
position = "{362, 0}";
},
{
name = top;
position = "{321, 679}";
}
);
components = (
{
name = I;
}
);
layerId = "36D41E8E-F531-4154-A930-CD44EA9C85A7";
paths = (
{
closed = 1;
nodes = (
"668 0 LINE",
"466 272 LINE",
"563 296 OFFCURVE",
"629 365 OFFCURVE",
"629 471 CURVE SMOOTH",
"629 605 OFFCURVE",
"525 679 OFFCURVE",
"389 679 CURVE SMOOTH",
"122 679 LINE",
"122 577 LINE",
"381 577 LINE SMOOTH",
"455 577 OFFCURVE",
"517 543 OFFCURVE",
"517 469 CURVE SMOOTH",
"517 396 OFFCURVE",
"455 363 OFFCURVE",
"381 363 CURVE SMOOTH",
"122 363 LINE",
"122 263 LINE",
"338 263 LINE",
"532 0 LINE"
);
}
);
width = 689;
}
);
leftKerningGroup = R;
rightKerningGroup = R;
unicode = 0052;
},
{
color = 3;
glyphname = S;
lastChange = "2018-03-11 15:13:36 +0000";
layers = (
{
anchors = (
{
name = bottom;
position = "{263, 0}";
},
{
name = top;
position = "{263, 679}";
}
);
layerId = "36D41E8E-F531-4154-A930-CD44EA9C85A7";
paths = (
{
closed = 1;
nodes = (
"426 -16 OFFCURVE",
"527 67 OFFCURVE",
"527 179 CURVE SMOOTH",
"527 298 OFFCURVE",
"459 344 OFFCURVE",
"323 400 CURVE SMOOTH",
"231 438 OFFCURVE",
"186 457 OFFCURVE",
"186 517 CURVE SMOOTH",
"186 567 OFFCURVE",
"235 594 OFFCURVE",
"309 595 CURVE SMOOTH",
"382 595 OFFCURVE",
"448 567 OFFCURVE",
"488 530 CURVE",
"488 647 LINE",
"439 680 OFFCURVE",
"382 700 OFFCURVE",
"319 699 CURVE SMOOTH",
"176 699 OFFCURVE",
"74 624 OFFCURVE",
"74 517 CURVE SMOOTH",
"74 398 OFFCURVE",
"140 351 OFFCURVE",
"274 295 CURVE SMOOTH",
"366 257 OFFCURVE",
"415 232 OFFCURVE",
"415 180 CURVE SMOOTH",
"415 125 OFFCURVE",
"376 87 OFFCURVE",
"272 87 CURVE SMOOTH",
"191 87 OFFCURVE",
"106 118 OFFCURVE",
"45 166 CURVE",
"45 54 LINE",
"84 20 OFFCURVE",
"160 -16 OFFCURVE",
"272 -16 CURVE SMOOTH"
);
}
);
width = 582;
}
);
leftKerningGroup = S;
rightKerningGroup = S;
unicode = 0053;
},
{
color = 3;
glyphname = T;
lastChange = "2019-10-31 17:06:47 +0000";
layers = (
{
anchors = (
{
name = bottom;
position = "{332, 0}";
},
{
name = center;
position = "{332, 420}";
},
{
name = top;
position = "{332, 679}";
}
);
layerId = "36D41E8E-F531-4154-A930-CD44EA9C85A7";
paths = (
{
closed = 1;
nodes = (
"386 0 LINE",
"386 577 LINE",
"624 577 LINE",
"624 679 LINE",
"40 679 LINE",
"40 577 LINE",
"278 577 LINE",
"278 0 LINE"
);
}
);
width = 664;
}
);
leftKerningGroup = T;
rightKerningGroup = T;
unicode = 0054;
},
{
color = 3;
glyphname = U;
lastChange = "2018-03-11 15:07:39 +0000";
layers = (
{
anchors = (
{
name = bottom;
position = "{353, 0}";
},
{
name = ogonek;
position = "{413, 10}";
},
{
name = top;
position = "{353, 679}";
}
);
layerId = "36D41E8E-F531-4154-A930-CD44EA9C85A7";
paths = (
{
closed = 1;
nodes = (
"514 -15 OFFCURVE",
"631 65 OFFCURVE",
"631 259 CURVE SMOOTH",
"631 679 LINE",
"522 679 LINE",
"522 261 LINE SMOOTH",
"522 140 OFFCURVE",
"462 90 OFFCURVE",
"353 90 CURVE SMOOTH",
"261 90 OFFCURVE",
"184 140 OFFCURVE",
"184 261 CURVE SMOOTH",
"184 679 LINE",
"75 679 LINE",
"75 259 LINE SMOOTH",
"75 65 OFFCURVE",
"192 -15 OFFCURVE",
"353 -15 CURVE SMOOTH"
);
}
);
width = 706;
}
);
leftKerningGroup = U;
rightKerningGroup = U;
unicode = 0055;
},
{
color = 3;
glyphname = V;
lastChange = "2019-10-31 17:06:58 +0000";
layers = (
{
layerId = "36D41E8E-F531-4154-A930-CD44EA9C85A7";
paths = (
{
closed = 1;
nodes = (
"412 0 LINE",
"671 679 LINE",
"547 679 LINE",
"348 147 LINE",
"155 679 LINE",
"31 679 LINE",
"290 0 LINE"
);
}
);
width = 702;
}
);
leftKerningGroup = "diag-cap";
rightKerningGroup = "diag-cap";
unicode = 0056;
},
{
color = 3;
glyphname = W;
lastChange = "2018-02-09 15:44:29 +0000";
layers = (
{
anchors = (
{
name = top;
position = "{517, 679}";
}
);
layerId = "36D41E8E-F531-4154-A930-CD44EA9C85A7";
paths = (
{
closed = 1;
nodes = (
"369 0 LINE",
"517 524 LINE",
"666 0 LINE",
"792 0 LINE",
"1003 679 LINE",
"879 679 LINE",
"729 137 LINE",
"578 679 LINE",
"456 679 LINE",
"306 137 LINE",
"155 679 LINE",
"31 679 LINE",
"242 0 LINE"
);
}
);
width = 1034;
}
);
leftKerningGroup = "diag-cap";
rightKerningGroup = "diag-cap";
unicode = 0057;
},
{
color = 3;
glyphname = X;
lastChange = "2018-02-09 15:44:29 +0000";
layers = (
{
layerId = "36D41E8E-F531-4154-A930-CD44EA9C85A7";
paths = (
{
closed = 1;
nodes = (
"163 0 LINE",
"352 269 LINE",
"548 0 LINE",
"680 0 LINE",
"417 357 LINE",
"662 679 LINE",
"530 679 LINE",
"352 437 LINE",
"178 679 LINE",
"46 679 LINE",
"288 358 LINE",
"31 0 LINE"
);
}
);
width = 711;
}
);
leftKerningGroup = X;
rightKerningGroup = X;
unicode = 0058;
},
{
color = 3;
glyphname = Y;
lastChange = "2019-10-31 17:07:02 +0000";
layers = (
{
anchors = (
{
name = center;
position = "{340, 169}";
},
{
name = top;
position = "{338, 679}";
}
);
layerId = "36D41E8E-F531-4154-A930-CD44EA9C85A7";
paths = (
{
closed = 1;
nodes = (
"393 0 LINE",
"393 291 LINE",
"656 679 LINE",
"525 679 LINE",
"309 345 LINE",
"367 346 LINE",
"150 679 LINE",
"20 679 LINE",
"283 291 LINE",
"283 0 LINE"
);
}
);
width = 676;
}
);
leftKerningGroup = Y;
rightKerningGroup = Y;
unicode = 0059;
},
{
color = 3;
glyphname = Z;
lastChange = "2018-03-11 15:09:59 +0000";
layers = (
{
anchors = (
{
name = top;
position = "{342, 679}";
}
);
layerId = "36D41E8E-F531-4154-A930-CD44EA9C85A7";
paths = (
{
closed = 1;
nodes = (
"629 0 LINE",
"629 102 LINE",
"216 102 LINE",
"616 577 LINE",
"616 679 LINE",
"94 679 LINE",
"94 577 LINE",
"478 577 LINE",
"75 102 LINE",
"75 0 LINE"
);
}
);
width = 684;
}
);
leftKerningGroup = Z;
rightKerningGroup = Z;
unicode = 005A;
},
{
color = 5;
glyphname = A.ss02;
lastChange = "2018-03-11 16:27:12 +0000";
layers = (
{
anchors = (
{
name = ogonek;
position = "{801, 0}";
},
{
name = top;
position = "{414, 679}";
}
);
layerId = "36D41E8E-F531-4154-A930-CD44EA9C85A7";
paths = (
{
closed = 1;
nodes = (
"801 0 LINE",
"411 721 LINE",
"30 0 LINE"
);
},
{
closed = 1;
nodes = (
"434 536 LINE",
"390 536 LINE",
"634 58 LINE",
"661 101 LINE",
"161 99 LINE",
"188 56 LINE"
);
}
);
width = 827;
}
);
leftKerningGroup = A;
note = A;
rightKerningGroup = A;
},
{
color = 5;
glyphname = AE.ss02;
lastChange = "2018-03-11 16:27:12 +0000";
layers = (
{
layerId = "36D41E8E-F531-4154-A930-CD44EA9C85A7";
paths = (
{
closed = 1;
nodes = (
"884 0 LINE",
"884 102 LINE",
"603 102 LINE",
"603 302 LINE",
"794 302 LINE",
"794 404 LINE",
"603 404 LINE",
"603 597 LINE",
"884 597 LINE",
"884 699 LINE",
"485 699 LINE",
"25 0 LINE"
);
},
{
closed = 1;
nodes = (
"485 522 LINE",
"485 102 LINE",
"222 102 LINE"
);
}
);
width = 980;
}
);
leftKerningGroup = A;
note = AE;
rightKerningGroup = E;
},
{
color = 5;
glyphname = B.ss02;
lastChange = "2018-03-05 14:07:36 +0000";
layers = (
{
layerId = "36D41E8E-F531-4154-A930-CD44EA9C85A7";
paths = (
{
closed = 1;
nodes = (
"427 0 LINE SMOOTH",
"597 0 OFFCURVE",
"662 88 OFFCURVE",
"662 202 CURVE SMOOTH",
"662 285 OFFCURVE",
"597 361 OFFCURVE",
"509 380 CURVE",
"558 396 OFFCURVE",
"588 465 OFFCURVE",
"588 514 CURVE SMOOTH",
"588 628 OFFCURVE",
"510 715 OFFCURVE",
"356 715 CURVE",
"356 613 LINE",
"424 613 OFFCURVE",
"470 568 OFFCURVE",
"470 514 CURVE SMOOTH",
"470 460 OFFCURVE",
"434 405 OFFCURVE",
"350 405 CURVE SMOOTH",
"104 405 LINE",
"104 0 LINE"
);
},
{
closed = 1;
nodes = (
"222 303 LINE",
"396 303 LINE SMOOTH",
"484 303 OFFCURVE",
"544 267 OFFCURVE",
"544 202 CURVE SMOOTH",
"544 148 OFFCURVE",
"517 102 OFFCURVE",
"427 102 CURVE SMOOTH",
"222 102 LINE"
);
}
);
width = 740;
}
);
note = B;
rightKerningGroup = B;
},
{
color = 5;
glyphname = C.ss02;
lastChange = "2018-03-11 16:27:12 +0000";
layers = (
{
layerId = "36D41E8E-F531-4154-A930-CD44EA9C85A7";
paths = (
{
closed = 1;
nodes = (
"498 95 LINE",
"362 95 OFFCURVE",
"207 161 OFFCURVE",
"207 340 CURVE SMOOTH",
"207 520 OFFCURVE",
"362 590 OFFCURVE",
"498 590 CURVE",
"498 378 LINE",
"615 378 LINE",
"615 699 LINE",
"498 699 LINE SMOOTH",
"296 699 OFFCURVE",
"88 597 OFFCURVE",
"88 340 CURVE SMOOTH",
"88 84 OFFCURVE",
"296 -14 OFFCURVE",
"498 -14 CURVE"
);
}
);
width = 714;
}
);
leftKerningGroup = "ronde-cap";
note = C;
rightKerningGroup = C.ss01;
},
{
color = 5;
glyphname = Ccedilla.ss02;
lastChange = "2018-03-11 16:27:12 +0000";
layers = (
{
layerId = "36D41E8E-F531-4154-A930-CD44EA9C85A7";
paths = (
{
closed = 1;
nodes = (
"499 -249 LINE",
"499 29 LINE",
"498 29 LINE",
"498 95 LINE",
"362 95 OFFCURVE",
"207 161 OFFCURVE",
"207 340 CURVE SMOOTH",
"207 520 OFFCURVE",
"362 590 OFFCURVE",
"498 590 CURVE",
"498 378 LINE",
"615 378 LINE",
"615 699 LINE",
"498 699 LINE SMOOTH",
"296 699 OFFCURVE",
"88 597 OFFCURVE",
"88 340 CURVE SMOOTH",
"88 133 OFFCURVE",
"224 29 OFFCURVE",
"383 -3 CURVE",
"383 -249 LINE"
);
}
);
width = 714;
}
);
leftKerningGroup = "ronde-cap";
note = Ccedilla;
rightKerningGroup = C.ss01;
},
{
color = 5;
glyphname = D.ss02;
lastChange = "2018-03-11 16:27:12 +0000";
layers = (
{
layerId = "36D41E8E-F531-4154-A930-CD44EA9C85A7";
paths = (
{
closed = 1;
nodes = (
"422 -14 OFFCURVE",
"630 86 OFFCURVE",
"630 342 CURVE SMOOTH",
"630 599 OFFCURVE",
"432 700 OFFCURVE",
"239 700 CURVE SMOOTH",
"104 700 LINE",
"104 277 LINE",
"356 277 LINE",
"356 379 LINE",
"221 379 LINE",
"221 591 LINE",
"383 591 OFFCURVE",
"512 522 OFFCURVE",
"512 342 CURVE SMOOTH",
"512 163 OFFCURVE",
"357 95 OFFCURVE",
"221 95 CURVE",
"221 -14 LINE"
);
}
);
width = 705;
}
);
note = D;
rightKerningGroup = D;
},
{
color = 5;
glyphname = E.ss02;
lastChange = "2018-03-11 16:27:12 +0000";
layers = (
{
anchors = (
{
name = top;
position = "{447, 679}";
}
);
layerId = "36D41E8E-F531-4154-A930-CD44EA9C85A7";
paths = (
{
closed = 1;
nodes = (
"640 0 LINE",
"640 102 LINE",
"359 102 LINE",
"359 597 LINE",
"640 597 LINE",
"640 699 LINE",
"241 699 LINE",
"241 404 LINE",
"50 404 LINE",
"50 302 LINE",
"241 302 LINE",
"241 0 LINE"
);
}
);
width = 728;
}
);
leftKerningGroup = "E-s2";
note = E;
rightKerningGroup = C;
},
{
color = 5;
glyphname = F.ss02;
lastChange = "2018-03-11 16:27:12 +0000";
layers = (
{
layerId = "36D41E8E-F531-4154-A930-CD44EA9C85A7";
paths = (
{
closed = 1;
nodes = (
"357 0 LINE",
"357 303 LINE",
"597 303 LINE",
"597 405 LINE",
"357 405 LINE",
"357 699 LINE",
"50 699 LINE",
"50 597 LINE",
"240 597 LINE",
"240 0 LINE"
);
}
);
width = 683;
}
);
leftKerningGroup = "E-s2";
note = F;
},
{
color = 5;
glyphname = G.ss02;
lastChange = "2018-03-11 16:27:12 +0000";
layers = (
{
layerId = "36D41E8E-F531-4154-A930-CD44EA9C85A7";
paths = (
{
closed = 1;
nodes = (
"615 -14 LINE",
"615 410 LINE",
"362 410 LINE",
"362 308 LINE",
"498 308 LINE",
"498 96 LINE",
"362 96 OFFCURVE",
"207 172 OFFCURVE",
"207 351 CURVE SMOOTH",
"207 530 OFFCURVE",
"362 606 OFFCURVE",
"498 606 CURVE",
"498 715 LINE",
"296 715 OFFCURVE",
"88 607 OFFCURVE",
"88 351 CURVE SMOOTH",
"88 95 OFFCURVE",
"296 -14 OFFCURVE",
"498 -14 CURVE SMOOTH"
);
}
);
width = 739;
}
);
leftKerningGroup = "ronde-cap";
note = G;
rightKerningGroup = G;
},
{
color = 5;
glyphname = H.ss02;
lastChange = "2018-03-11 16:27:12 +0000";
layers = (
{
layerId = "36D41E8E-F531-4154-A930-CD44EA9C85A7";
paths = (
{
closed = 1;
nodes = (
"811 0 LINE",
"811 699 LINE",
"694 699 LINE",
"694 404 LINE",
"497 404 LINE",
"497 302 LINE",
"694 302 LINE",
"694 0 LINE"
);
},
{
closed = 1;
nodes = (
"358 0 LINE",
"358 699 LINE",
"241 699 LINE",
"241 404 LINE",
"50 404 LINE",
"50 302 LINE",
"241 302 LINE",
"241 0 LINE"
);
}
);
width = 925;
}
);
note = H;
},
{
color = 5;
glyphname = I.ss02;
lastChange = "2018-03-11 16:27:12 +0000";
layers = (
{
layerId = "36D41E8E-F531-4154-A930-CD44EA9C85A7";
paths = (
{
closed = 1;
nodes = (
"231 0 LINE",
"231 699 LINE",
"114 699 LINE",
"114 0 LINE"
);
}
);
width = 345;
}
);
note = I;
},
{
color = 5;
glyphname = J.ss02;
lastChange = "2018-03-11 16:27:12 +0000";
layers = (
{
layerId = "36D41E8E-F531-4154-A930-CD44EA9C85A7";
paths = (
{
closed = 1;
nodes = (
"357 0 LINE",
"357 699 LINE",
"32 699 LINE",
"32 597 LINE",
"240 597 LINE",
"240 0 LINE"
);
}
);
width = 471;
}
);
note = J;
},
{
color = 5;
glyphname = K.ss02;
lastChange = "2018-03-11 16:27:12 +0000";
layers = (
{
layerId = "36D41E8E-F531-4154-A930-CD44EA9C85A7";
paths = (
{
closed = 1;
nodes = (
"231 0 LINE",
"231 499 LINE",
"580 0 LINE",
"722 0 LINE",
"477 348 LINE",
"746 699 LINE",
"609 699 LINE",
"414 439 LINE",
"231 699 LINE",
"231 699 LINE",
"114 699 LINE",
"114 0 LINE"
);
}
);
width = 791;
}
);
note = K;
rightKerningGroup = K;
},
{
color = 5;
glyphname = L.ss02;
lastChange = "2018-03-11 16:27:12 +0000";
layers = (
{
layerId = "36D41E8E-F531-4154-A930-CD44EA9C85A7";
paths = (
{
closed = 1;
nodes = (
"618 0 LINE",
"618 102 LINE",
"232 102 LINE",
"232 699 LINE",
"114 699 LINE",
"114 0 LINE"
);
}
);
width = 681;
}
);
note = L;
rightKerningGroup = L;
},
{
color = 5;
glyphname = M.ss02;
lastChange = "2018-03-11 16:27:12 +0000";
layers = (
{
layerId = "36D41E8E-F531-4154-A930-CD44EA9C85A7";
paths = (
{
closed = 1;
nodes = (
"236 0 LINE",
"624 531 LINE",
"624 0 LINE",
"742 0 LINE",
"742 700 LINE",
"624 700 LINE",
"433 435 LINE",
"269 700 LINE",
"114 700 LINE",
"114 0 LINE"
);
},
{
closed = 1;
nodes = (
"230 572 LINE",
"363 344 LINE",
"230 155 LINE"
);
}
);
width = 856;
}
);
leftKerningGroup = M;
note = M;
rightKerningGroup = M;
},
{
color = 5;
glyphname = N.ss02;
lastChange = "2018-03-11 16:27:12 +0000";
layers = (
{
layerId = "36D41E8E-F531-4154-A930-CD44EA9C85A7";
paths = (
{
closed = 1;
nodes = (
"231 0 LINE",
"231 538 LINE",
"561 254 LINE",
"561 0 LINE",
"678 0 LINE",
"678 699 LINE",
"561 699 LINE",
"561 413 LINE",
"231 698 LINE",
"231 699 LINE",
"114 699 LINE",
"114 0 LINE"
);
}
);
width = 791;
}
);
note = N;
rightKerningGroup = N;
},
{
color = 5;
glyphname = O.ss02;
lastChange = "2018-03-11 16:27:12 +0000";
layers = (
{
layerId = "36D41E8E-F531-4154-A930-CD44EA9C85A7";
paths = (
{
closed = 1;
nodes = (
"634 -15 OFFCURVE",
"798 148 OFFCURVE",
"798 349 CURVE SMOOTH",
"798 551 OFFCURVE",
"634 714 OFFCURVE",
"433 714 CURVE SMOOTH",
"232 714 OFFCURVE",
"69 551 OFFCURVE",
"69 349 CURVE SMOOTH",
"69 148 OFFCURVE",
"232 -15 OFFCURVE",
"433 -15 CURVE SMOOTH"
);
},
{
closed = 1;
nodes = (
"297 94 OFFCURVE",
"188 208 OFFCURVE",
"188 349 CURVE SMOOTH",
"188 490 OFFCURVE",
"297 605 OFFCURVE",
"433 605 CURVE SMOOTH",
"569 605 OFFCURVE",
"679 490 OFFCURVE",
"679 349 CURVE SMOOTH",
"679 208 OFFCURVE",
"569 94 OFFCURVE",
"433 94 CURVE SMOOTH"
);
}
);
width = 867;
}
);
leftKerningGroup = "ronde-cap";
note = O;
rightKerningGroup = "ronde-cap";
},
{
color = 5;
glyphname = P.ss02;
lastChange = "2018-03-11 16:27:12 +0000";
layers = (
{
layerId = "36D41E8E-F531-4154-A930-CD44EA9C85A7";
paths = (
{
closed = 1;
nodes = (
"358 0 LINE",
"358 591 LINE",
"523 591 LINE SMOOTH",
"575 591 OFFCURVE",
"617 547 OFFCURVE",
"617 493 CURVE SMOOTH",
"617 439 OFFCURVE",
"575 395 OFFCURVE",
"523 395 CURVE",
"523 287 LINE",
"636 287 OFFCURVE",
"729 379 OFFCURVE",
"729 493 CURVE SMOOTH",
"729 607 OFFCURVE",
"636 699 OFFCURVE",
"523 699 CURVE SMOOTH",
"240 699 LINE",
"240 404 LINE",
"50 404 LINE",
"50 302 LINE",
"240 302 LINE",
"240 0 LINE"
);
}
);
width = 821;
}
);
leftKerningGroup = P;
note = P;
rightKerningGroup = P;
},
{
color = 5;
glyphname = Q.ss02;
lastChange = "2018-03-11 16:27:12 +0000";
layers = (
{
layerId = "36D41E8E-F531-4154-A930-CD44EA9C85A7";
paths = (
{
closed = 1;
nodes = (
"497 -137 LINE",
"497 -10 LINE",
"668 20 OFFCURVE",
"798 169 OFFCURVE",
"798 349 CURVE SMOOTH",
"798 550 OFFCURVE",
"635 714 OFFCURVE",
"434 714 CURVE SMOOTH",
"233 714 OFFCURVE",
"69 550 OFFCURVE",
"69 349 CURVE SMOOTH",
"69 166 OFFCURVE",
"204 15 OFFCURVE",
"379 -11 CURVE",
"379 -137 LINE"
);
},
{
closed = 1;
nodes = (
"270 126 OFFCURVE",
"188 228 OFFCURVE",
"188 349 CURVE SMOOTH",
"188 490 OFFCURVE",
"298 604 OFFCURVE",
"434 604 CURVE SMOOTH",
"569 604 OFFCURVE",
"679 490 OFFCURVE",
"679 349 CURVE SMOOTH",
"679 231 OFFCURVE",
"602 131 OFFCURVE",
"497 102 CURVE",
"497 222 LINE",
"379 222 LINE",
"379 100 LINE"
);
}
);
width = 867;
}
);
leftKerningGroup = "ronde-cap";
note = Q;
rightKerningGroup = "ronde-cap";
},
{
color = 5;
glyphname = R.ss02;
lastChange = "2018-03-11 16:27:12 +0000";
layers = (
{
layerId = "36D41E8E-F531-4154-A930-CD44EA9C85A7";
paths = (
{
closed = 1;
nodes = (
"221 0 LINE",
"221 302 LINE",
"326 302 LINE",
"525 0 LINE",
"661 0 LINE",
"457 306 LINE",
"553 323 OFFCURVE",
"625 404 OFFCURVE",
"625 505 CURVE SMOOTH",
"625 619 OFFCURVE",
"546 714 OFFCURVE",
"414 714 CURVE SMOOTH",
"205 714 LINE",
"205 612 LINE",
"413 612 LINE SMOOTH",
"465 612 OFFCURVE",
"507 559 OFFCURVE",
"507 505 CURVE SMOOTH",
"507 451 OFFCURVE",
"465 404 OFFCURVE",
"413 404 CURVE SMOOTH",
"104 404 LINE",
"104 0 LINE"
);
}
);
width = 733;
}
);
leftKerningGroup = R;
note = R;
rightKerningGroup = R;
},
{
color = 5;
glyphname = S.ss02;
lastChange = "2018-03-11 16:27:12 +0000";
layers = (
{
layerId = "36D41E8E-F531-4154-A930-CD44EA9C85A7";
paths = (
{
closed = 1;
nodes = (
"556 0 LINE",
"181 508 LINE",
"180 508 LINE",
"180 560 OFFCURVE",
"224 602 OFFCURVE",
"278 602 CURVE SMOOTH",
"332 602 OFFCURVE",
"376 560 OFFCURVE",
"376 508 CURVE",
"484 508 LINE",
"484 622 OFFCURVE",
"387 714 OFFCURVE",
"273 714 CURVE SMOOTH",
"146 714 OFFCURVE",
"49 607 OFFCURVE",
"49 493 CURVE",
"413 0 LINE"
);
}
);
width = 602;
}
);
leftKerningGroup = S.ss01;
note = S;
rightKerningGroup = S.ss01;
},
{
color = 5;
glyphname = T.ss02;
lastChange = "2018-03-11 16:27:12 +0000";
layers = (
{
layerId = "36D41E8E-F531-4154-A930-CD44EA9C85A7";
paths = (
{
closed = 1;
nodes = (
"422 252 LINE",
"422 598 LINE",
"690 598 LINE",
"690 699 LINE",
"38 699 LINE",
"38 598 LINE",
"305 598 LINE",
"305 252 LINE"
);
}
);
width = 728;
}
);
leftKerningGroup = T;
note = T;
rightKerningGroup = T;
},
{
color = 5;
glyphname = U.ss02;
lastChange = "2018-03-05 14:07:37 +0000";
layers = (
{
layerId = "36D41E8E-F531-4154-A930-CD44EA9C85A7";
paths = (
{
closed = 1;
nodes = (
"546 -15 OFFCURVE",
"660 88 OFFCURVE",
"660 254 CURVE SMOOTH",
"660 699 LINE",
"543 699 LINE",
"543 265 LINE SMOOTH",
"543 162 OFFCURVE",
"472 94 OFFCURVE",
"385 94 CURVE SMOOTH",
"298 94 OFFCURVE",
"227 162 OFFCURVE",
"227 265 CURVE SMOOTH",
"227 699 LINE",
"110 699 LINE",
"110 254 LINE SMOOTH",
"110 88 OFFCURVE",
"224 -15 OFFCURVE",
"385 -15 CURVE SMOOTH"
);
}
);
width = 770;
}
);
leftKerningGroup = U;
note = U;
rightKerningGroup = U;
},
{
color = 5;
glyphname = V.ss02;
lastChange = "2018-03-05 14:07:37 +0000";
layers = (
{
layerId = "36D41E8E-F531-4154-A930-CD44EA9C85A7";
paths = (
{
closed = 1;
nodes = (
"355 254 LINE",
"682 699 LINE",
"546 699 LINE",
"351 438 LINE",
"157 699 LINE",
"20 699 LINE",
"347 254 LINE"
);
}
);
width = 702;
}
);
leftKerningGroup = "diag-cap-2";
note = V;
rightKerningGroup = "diag-cap-2";
},
{
color = 5;
glyphname = W.ss02;
lastChange = "2018-03-11 16:27:12 +0000";
layers = (
{
layerId = "36D41E8E-F531-4154-A930-CD44EA9C85A7";
paths = (
{
closed = 1;
nodes = (
"753 78 LINE",
"1079 523 LINE",
"943 523 LINE",
"748 263 LINE",
"554 523 LINE",
"683 699 LINE",
"546 699 LINE",
"352 438 LINE",
"157 699 LINE",
"21 699 LINE",
"347 254 LINE",
"356 254 LINE",
"486 430 LINE",
"744 78 LINE"
);
}
);
width = 1101;
}
);
leftKerningGroup = "diag-cap";
note = W;
rightKerningGroup = "diag-cap";
},
{
color = 5;
glyphname = X.ss02;
lastChange = "2018-03-11 16:27:12 +0000";
layers = (
{
layerId = "36D41E8E-F531-4154-A930-CD44EA9C85A7";
paths = (
{
closed = 1;
nodes = (
"693 0 LINE",
"437 347 LINE",
"703 699 LINE",
"561 699 LINE",
"365 438 LINE",
"170 699 LINE",
"30 699 LINE",
"547 0 LINE"
);
}
);
width = 762;
}
);
leftKerningGroup = X;
note = X;
rightKerningGroup = X;
},
{
color = 5;
glyphname = Y.ss02;
lastChange = "2018-03-11 16:27:12 +0000";
layers = (
{
layerId = "36D41E8E-F531-4154-A930-CD44EA9C85A7";
paths = (
{
closed = 1;
nodes = (
"422 0 LINE",
"422 319 LINE",
"700 699 LINE",
"565 699 LINE",
"364 420 LINE",
"147 699 LINE",
"12 699 LINE",
"305 320 LINE",
"305 0 LINE"
);
}
);
width = 720;
}
);
leftKerningGroup = Y;
note = Y;
rightKerningGroup = Y;
},
{
color = 5;
glyphname = Z.ss02;
lastChange = "2018-03-11 16:27:12 +0000";
layers = (
{
layerId = "36D41E8E-F531-4154-A930-CD44EA9C85A7";
paths = (
{
closed = 1;
nodes = (
"706 0 LINE",
"442 385 LINE",
"596 607 LINE",
"596 699 LINE",
"101 699 LINE",
"101 597 LINE",
"454 597 LINE",
"41 0 LINE"
);
},
{
closed = 1;
nodes = (
"374 286 LINE",
"500 102 LINE",
"247 102 LINE"
);
}
);
width = 733;
}
);
leftKerningGroup = Z;
note = Z;
},
{
color = 4;
glyphname = A.ss03;
lastChange = "2018-03-11 16:27:12 +0000";
layers = (
{
anchors = (
{
name = ogonek;
position = "{780, 0}";
},
{
name = top;
position = "{345, 679}";
}
);
layerId = "36D41E8E-F531-4154-A930-CD44EA9C85A7";
paths = (
{
closed = 1;
nodes = (
"780 0 LINE",
"305 700 LINE",
"169 700 LINE",
"347 434 LINE",
"21 0 LINE"
);
},
{
closed = 1;
nodes = (
"411 338 LINE",
"568 105 LINE",
"238 105 LINE"
);
}
);
width = 801;
}
);
leftMetricsKey = A;
note = A.alt;
rightKerningGroup = A;
rightMetricsKey = A;
},
{
color = 4;
glyphname = AE.ss03;
lastChange = "2018-03-11 16:27:12 +0000";
layers = (
{
layerId = "36D41E8E-F531-4154-A930-CD44EA9C85A7";
paths = (
{
closed = 1;
nodes = (
"884 0 LINE",
"884 102 LINE",
"603 102 LINE",
"603 302 LINE",
"794 302 LINE",
"794 404 LINE",
"603 404 LINE",
"603 597 LINE",
"884 597 LINE",
"884 699 LINE",
"485 699 LINE",
"25 0 LINE"
);
},
{
closed = 1;
nodes = (
"485 522 LINE",
"485 102 LINE",
"222 102 LINE"
);
}
);
width = 980;
}
);
leftKerningGroup = A;
note = AE;
rightKerningGroup = E;
},
{
color = 4;
glyphname = B.ss03;
lastChange = "2018-03-05 14:07:57 +0000";
layers = (
{
layerId = "36D41E8E-F531-4154-A930-CD44EA9C85A7";
paths = (
{
closed = 1;
nodes = (
"427 0 LINE SMOOTH",
"597 0 OFFCURVE",
"662 88 OFFCURVE",
"662 202 CURVE SMOOTH",
"662 285 OFFCURVE",
"597 361 OFFCURVE",
"509 380 CURVE",
"558 396 OFFCURVE",
"588 465 OFFCURVE",
"588 514 CURVE SMOOTH",
"588 628 OFFCURVE",
"510 715 OFFCURVE",
"356 715 CURVE",
"356 613 LINE",
"424 613 OFFCURVE",
"470 568 OFFCURVE",
"470 514 CURVE SMOOTH",
"470 460 OFFCURVE",
"434 405 OFFCURVE",
"350 405 CURVE SMOOTH",
"104 405 LINE",
"104 0 LINE"
);
},
{
closed = 1;
nodes = (
"222 303 LINE",
"396 303 LINE SMOOTH",
"484 303 OFFCURVE",
"544 267 OFFCURVE",
"544 202 CURVE SMOOTH",
"544 148 OFFCURVE",
"517 102 OFFCURVE",
"427 102 CURVE SMOOTH",
"222 102 LINE"
);
}
);
width = 740;
}
);
note = B;
rightKerningGroup = B;
},
{
color = 4;
glyphname = C.ss03;
lastChange = "2018-03-11 16:27:12 +0000";
layers = (
{
layerId = "36D41E8E-F531-4154-A930-CD44EA9C85A7";
paths = (
{
closed = 1;
nodes = (
"498 95 LINE",
"362 95 OFFCURVE",
"207 161 OFFCURVE",
"207 340 CURVE SMOOTH",
"207 520 OFFCURVE",
"362 590 OFFCURVE",
"498 590 CURVE",
"498 378 LINE",
"615 378 LINE",
"615 699 LINE",
"498 699 LINE SMOOTH",
"296 699 OFFCURVE",
"88 597 OFFCURVE",
"88 340 CURVE SMOOTH",
"88 84 OFFCURVE",
"296 -14 OFFCURVE",
"498 -14 CURVE"
);
}
);
width = 714;
}
);
leftKerningGroup = "ronde-cap";
note = C;
},
{
color = 4;
glyphname = Ccedilla.ss03;
lastChange = "2018-03-11 16:27:12 +0000";
layers = (
{
layerId = "36D41E8E-F531-4154-A930-CD44EA9C85A7";
paths = (
{
closed = 1;
nodes = (
"499 -249 LINE",
"499 29 LINE",
"498 29 LINE",
"498 95 LINE",
"362 95 OFFCURVE",
"207 161 OFFCURVE",
"207 340 CURVE SMOOTH",
"207 520 OFFCURVE",
"362 590 OFFCURVE",
"498 590 CURVE",
"498 378 LINE",
"615 378 LINE",
"615 699 LINE",
"498 699 LINE SMOOTH",
"296 699 OFFCURVE",
"88 597 OFFCURVE",
"88 340 CURVE SMOOTH",
"88 133 OFFCURVE",
"224 29 OFFCURVE",
"383 -3 CURVE",
"383 -249 LINE"
);
}
);
width = 714;
}
);
leftKerningGroup = "ronde-cap";
note = Ccedilla;
},
{
color = 4;
glyphname = D.ss03;
lastChange = "2018-03-11 16:27:12 +0000";
layers = (
{
layerId = "36D41E8E-F531-4154-A930-CD44EA9C85A7";
paths = (
{
closed = 1;
nodes = (
"422 -14 OFFCURVE",
"630 86 OFFCURVE",
"630 342 CURVE SMOOTH",
"630 599 OFFCURVE",
"432 700 OFFCURVE",
"239 700 CURVE SMOOTH",
"104 700 LINE",
"104 277 LINE",
"356 277 LINE",
"356 379 LINE",
"221 379 LINE",
"221 591 LINE",
"383 591 OFFCURVE",
"512 522 OFFCURVE",
"512 342 CURVE SMOOTH",
"512 163 OFFCURVE",
"357 95 OFFCURVE",
"221 95 CURVE",
"221 -14 LINE"
);
}
);
width = 705;
}
);
note = D;
},
{
color = 4;
glyphname = E.ss03;
lastChange = "2018-03-11 16:27:12 +0000";
layers = (
{
layerId = "36D41E8E-F531-4154-A930-CD44EA9C85A7";
paths = (
{
closed = 1;
nodes = (
"640 0 LINE",
"640 102 LINE",
"359 102 LINE",
"359 302 LINE",
"572 302 LINE",
"572 404 LINE",
"359 404 LINE",
"359 597 LINE",
"640 597 LINE",
"640 699 LINE",
"241 699 LINE",
"241 404 LINE",
"50 404 LINE",
"50 302 LINE",
"241 302 LINE",
"241 0 LINE"
);
}
);
width = 728;
}
);
leftKerningGroup = "E-s2";
note = E.alt;
rightKerningGroup = E;
},
{
color = 4;
glyphname = F.ss03;
lastChange = "2018-03-11 16:27:12 +0000";
layers = (
{
layerId = "36D41E8E-F531-4154-A930-CD44EA9C85A7";
paths = (
{
closed = 1;
nodes = (
"357 0 LINE",
"357 303 LINE",
"597 303 LINE",
"597 405 LINE",
"357 405 LINE",
"357 699 LINE",
"50 699 LINE",
"50 597 LINE",
"240 597 LINE",
"240 0 LINE"
);
}
);
width = 683;
}
);
note = F;
},
{
color = 4;
glyphname = G.ss03;
lastChange = "2018-03-11 16:27:12 +0000";
layers = (
{
layerId = "36D41E8E-F531-4154-A930-CD44EA9C85A7";
paths = (
{
closed = 1;
nodes = (
"615 -14 LINE",
"615 410 LINE",
"362 410 LINE",
"362 308 LINE",
"498 308 LINE",
"498 96 LINE",
"362 96 OFFCURVE",
"207 172 OFFCURVE",
"207 351 CURVE SMOOTH",
"207 530 OFFCURVE",
"362 606 OFFCURVE",
"498 606 CURVE",
"498 715 LINE",
"296 715 OFFCURVE",
"88 607 OFFCURVE",
"88 351 CURVE SMOOTH",
"88 95 OFFCURVE",
"296 -14 OFFCURVE",
"498 -14 CURVE SMOOTH"
);
}
);
width = 739;
}
);
leftKerningGroup = "ronde-cap";
note = G;
},
{
color = 4;
glyphname = H.ss03;
lastChange = "2018-03-11 16:27:12 +0000";
layers = (
{
layerId = "36D41E8E-F531-4154-A930-CD44EA9C85A7";
paths = (
{
closed = 1;
nodes = (
"811 0 LINE",
"811 699 LINE",
"694 699 LINE",
"694 404 LINE",
"497 404 LINE",
"497 302 LINE",
"694 302 LINE",
"694 0 LINE"
);
},
{
closed = 1;
nodes = (
"358 0 LINE",
"358 699 LINE",
"241 699 LINE",
"241 404 LINE",
"50 404 LINE",
"50 302 LINE",
"241 302 LINE",
"241 0 LINE"
);
}
);
width = 925;
}
);
leftKerningGroup = "E-s2";
note = H;
},
{
color = 4;
glyphname = I.ss03;
lastChange = "2018-03-11 16:27:12 +0000";
layers = (
{
layerId = "36D41E8E-F531-4154-A930-CD44EA9C85A7";
paths = (
{
closed = 1;
nodes = (
"231 0 LINE",
"231 699 LINE",
"114 699 LINE",
"114 0 LINE"
);
}
);
width = 345;
}
);
note = I;
},
{
color = 4;
glyphname = J.ss03;
lastChange = "2018-03-11 16:27:12 +0000";
layers = (
{
layerId = "36D41E8E-F531-4154-A930-CD44EA9C85A7";
paths = (
{
closed = 1;
nodes = (
"357 0 LINE",
"357 699 LINE",
"32 699 LINE",
"32 597 LINE",
"240 597 LINE",
"240 0 LINE"
);
}
);
width = 471;
}
);
note = J;
},
{
color = 4;
glyphname = K.ss03;
lastChange = "2018-03-11 16:27:12 +0000";
layers = (
{
layerId = "36D41E8E-F531-4154-A930-CD44EA9C85A7";
paths = (
{
closed = 1;
nodes = (
"231 0 LINE",
"231 499 LINE",
"580 0 LINE",
"722 0 LINE",
"477 348 LINE",
"746 699 LINE",
"609 699 LINE",
"414 439 LINE",
"231 699 LINE",
"231 699 LINE",
"114 699 LINE",
"114 0 LINE"
);
}
);
width = 791;
}
);
note = K;
rightKerningGroup = K;
},
{
color = 4;
glyphname = L.ss03;
lastChange = "2018-03-11 16:27:12 +0000";
layers = (
{
layerId = "36D41E8E-F531-4154-A930-CD44EA9C85A7";
paths = (
{
closed = 1;
nodes = (
"618 0 LINE",
"618 102 LINE",
"232 102 LINE",
"232 699 LINE",
"114 699 LINE",
"114 0 LINE"
);
}
);
width = 681;
}
);
note = L;
rightKerningGroup = L;
},
{
color = 4;
glyphname = M.ss03;
lastChange = "2018-03-11 16:27:12 +0000";
layers = (
{
layerId = "36D41E8E-F531-4154-A930-CD44EA9C85A7";
paths = (
{
closed = 1;
nodes = (
"236 0 LINE",
"624 531 LINE",
"624 0 LINE",
"742 0 LINE",
"742 700 LINE",
"624 700 LINE",
"433 435 LINE",
"269 700 LINE",
"114 700 LINE",
"114 0 LINE"
);
},
{
closed = 1;
nodes = (
"230 572 LINE",
"363 344 LINE",
"230 155 LINE"
);
}
);
width = 856;
}
);
note = M;
},
{
color = 4;
glyphname = N.ss03;
lastChange = "2018-03-11 16:27:12 +0000";
layers = (
{
layerId = "36D41E8E-F531-4154-A930-CD44EA9C85A7";
paths = (
{
closed = 1;
nodes = (
"231 0 LINE",
"231 538 LINE",
"561 254 LINE",
"561 0 LINE",
"678 0 LINE",
"678 699 LINE",
"561 699 LINE",
"561 413 LINE",
"231 698 LINE",
"231 699 LINE",
"114 699 LINE",
"114 0 LINE"
);
}
);
width = 791;
}
);
leftKerningGroup = N;
note = N;
rightKerningGroup = N;
},
{
color = 4;
glyphname = O.ss03;
lastChange = "2018-03-11 16:27:12 +0000";
layers = (
{
anchors = (
{
name = bottom;
position = "{310, 241}";
},
{
name = center;
position = "{311, 477}";
},
{
name = top;
position = "{311, 679}";
}
);
layerId = "36D41E8E-F531-4154-A930-CD44EA9C85A7";
paths = (
{
closed = 1;
nodes = (
"441 241 OFFCURVE",
"546 346 OFFCURVE",
"546 477 CURVE SMOOTH",
"546 608 OFFCURVE",
"441 713 OFFCURVE",
"310 713 CURVE SMOOTH",
"179 713 OFFCURVE",
"74 608 OFFCURVE",
"74 477 CURVE SMOOTH",
"74 346 OFFCURVE",
"179 241 OFFCURVE",
"310 241 CURVE SMOOTH"
);
},
{
closed = 1;
nodes = (
"243 346 OFFCURVE",
"187 407 OFFCURVE",
"187 477 CURVE SMOOTH",
"187 547 OFFCURVE",
"243 608 OFFCURVE",
"310 608 CURVE SMOOTH",
"377 608 OFFCURVE",
"433 547 OFFCURVE",
"433 477 CURVE SMOOTH",
"433 407 OFFCURVE",
"377 346 OFFCURVE",
"310 346 CURVE SMOOTH"
);
}
);
width = 621;
}
);
leftKerningGroup = "ronde-cap-alt";
note = O.alt;
rightKerningGroup = "ronde-cap-alt";
},
{
color = 4;
glyphname = P.ss03;
lastChange = "2018-03-11 16:27:12 +0000";
layers = (
{
layerId = "36D41E8E-F531-4154-A930-CD44EA9C85A7";
paths = (
{
closed = 1;
nodes = (
"358 0 LINE",
"358 591 LINE",
"523 591 LINE SMOOTH",
"575 591 OFFCURVE",
"617 547 OFFCURVE",
"617 493 CURVE SMOOTH",
"617 439 OFFCURVE",
"575 395 OFFCURVE",
"523 395 CURVE",
"523 287 LINE",
"636 287 OFFCURVE",
"729 379 OFFCURVE",
"729 493 CURVE SMOOTH",
"729 607 OFFCURVE",
"636 699 OFFCURVE",
"523 699 CURVE SMOOTH",
"240 699 LINE",
"240 404 LINE",
"50 404 LINE",
"50 302 LINE",
"240 302 LINE",
"240 0 LINE"
);
}
);
width = 821;
}
);
leftKerningGroup = P;
note = P;
rightKerningGroup = P;
},
{
color = 4;
glyphname = Q.ss03;
lastChange = "2018-03-11 16:27:12 +0000";
layers = (
{
layerId = "36D41E8E-F531-4154-A930-CD44EA9C85A7";
paths = (
{
closed = 1;
nodes = (
"497 -137 LINE",
"497 -10 LINE",
"668 20 OFFCURVE",
"798 169 OFFCURVE",
"798 349 CURVE SMOOTH",
"798 550 OFFCURVE",
"635 714 OFFCURVE",
"434 714 CURVE SMOOTH",
"233 714 OFFCURVE",
"69 550 OFFCURVE",
"69 349 CURVE SMOOTH",
"69 166 OFFCURVE",
"204 15 OFFCURVE",
"379 -11 CURVE",
"379 -137 LINE"
);
},
{
closed = 1;
nodes = (
"270 126 OFFCURVE",
"188 228 OFFCURVE",
"188 349 CURVE SMOOTH",
"188 490 OFFCURVE",
"298 604 OFFCURVE",
"434 604 CURVE SMOOTH",
"569 604 OFFCURVE",
"679 490 OFFCURVE",
"679 349 CURVE SMOOTH",
"679 231 OFFCURVE",
"602 131 OFFCURVE",
"497 102 CURVE",
"497 222 LINE",
"379 222 LINE",
"379 100 LINE"
);
}
);
width = 867;
}
);
leftKerningGroup = "ronde-cap";
note = Q;
rightKerningGroup = "ronde-cap";
},
{
color = 4;
glyphname = R.ss03;
lastChange = "2018-03-11 16:27:12 +0000";
layers = (
{
layerId = "36D41E8E-F531-4154-A930-CD44EA9C85A7";
paths = (
{
closed = 1;
nodes = (
"160 0 LINE",
"323 270 LINE",
"531 0 LINE",
"680 0 LINE",
"430 308 LINE",
"521 329 OFFCURVE",
"588 405 OFFCURVE",
"588 502 CURVE SMOOTH",
"588 616 OFFCURVE",
"502 714 OFFCURVE",
"382 714 CURVE",
"382 606 LINE",
"434 606 OFFCURVE",
"477 552 OFFCURVE",
"477 498 CURVE SMOOTH",
"477 444 OFFCURVE",
"434 390 OFFCURVE",
"382 390 CURVE SMOOTH",
"358 390 OFFCURVE",
"335 400 OFFCURVE",
"318 416 CURVE",
"306 431 LINE",
"28 0 LINE"
);
}
);
width = 695;
}
);
leftKerningGroup = A;
note = R.alt;
rightKerningGroup = R;
},
{
color = 4;
glyphname = S.ss03;
lastChange = "2018-03-11 16:27:12 +0000";
layers = (
{
layerId = "36D41E8E-F531-4154-A930-CD44EA9C85A7";
paths = (
{
closed = 1;
nodes = (
"556 0 LINE",
"181 508 LINE",
"180 508 LINE",
"180 560 OFFCURVE",
"224 602 OFFCURVE",
"278 602 CURVE SMOOTH",
"332 602 OFFCURVE",
"376 560 OFFCURVE",
"376 508 CURVE",
"484 508 LINE",
"484 622 OFFCURVE",
"387 714 OFFCURVE",
"273 714 CURVE SMOOTH",
"146 714 OFFCURVE",
"49 607 OFFCURVE",
"49 493 CURVE",
"413 0 LINE"
);
}
);
width = 602;
}
);
leftKerningGroup = S.ss01;
note = S;
rightKerningGroup = S.ss01;
},
{
color = 4;
glyphname = T.ss03;
lastChange = "2018-03-11 16:27:12 +0000";
layers = (
{
layerId = "36D41E8E-F531-4154-A930-CD44EA9C85A7";
paths = (
{
closed = 1;
nodes = (
"422 252 LINE",
"422 598 LINE",
"690 598 LINE",
"690 699 LINE",
"38 699 LINE",
"38 598 LINE",
"305 598 LINE",
"305 252 LINE"
);
}
);
width = 728;
}
);
leftKerningGroup = T;
note = T;
rightKerningGroup = T;
},
{
color = 4;
glyphname = U.ss03;
lastChange = "2018-03-05 14:07:57 +0000";
layers = (
{
layerId = "36D41E8E-F531-4154-A930-CD44EA9C85A7";
paths = (
{
closed = 1;
nodes = (
"546 -15 OFFCURVE",
"660 88 OFFCURVE",
"660 254 CURVE SMOOTH",
"660 699 LINE",
"543 699 LINE",
"543 265 LINE SMOOTH",
"543 162 OFFCURVE",
"472 94 OFFCURVE",
"385 94 CURVE SMOOTH",
"298 94 OFFCURVE",
"227 162 OFFCURVE",
"227 265 CURVE SMOOTH",
"227 699 LINE",
"110 699 LINE",
"110 254 LINE SMOOTH",
"110 88 OFFCURVE",
"224 -15 OFFCURVE",
"385 -15 CURVE SMOOTH"
);
}
);
width = 770;
}
);
leftKerningGroup = U;
note = U;
rightKerningGroup = U;
},
{
color = 4;
glyphname = V.ss03;
lastChange = "2018-03-05 14:15:59 +0000";
layers = (
{
layerId = "36D41E8E-F531-4154-A930-CD44EA9C85A7";
paths = (
{
closed = 1;
nodes = (
"355 254 LINE",
"682 699 LINE",
"546 699 LINE",
"351 438 LINE",
"157 699 LINE",
"20 699 LINE",
"347 254 LINE"
);
}
);
width = 702;
}
);
leftKerningGroup = "diag-cap-2";
note = V;
rightKerningGroup = "diag-cap-2";
},
{
color = 4;
glyphname = W.ss03;
lastChange = "2018-03-11 16:27:12 +0000";
layers = (
{
layerId = "36D41E8E-F531-4154-A930-CD44EA9C85A7";
paths = (
{
closed = 1;
nodes = (
"753 78 LINE",
"1079 523 LINE",
"943 523 LINE",
"748 263 LINE",
"554 523 LINE",
"683 699 LINE",
"546 699 LINE",
"352 438 LINE",
"157 699 LINE",
"21 699 LINE",
"347 254 LINE",
"356 254 LINE",
"486 430 LINE",
"744 78 LINE"
);
}
);
width = 1101;
}
);
leftKerningGroup = "diag-cap";
note = W;
rightKerningGroup = "diag-cap";
},
{
color = 4;
glyphname = X.ss03;
lastChange = "2018-03-11 16:27:12 +0000";
layers = (
{
layerId = "36D41E8E-F531-4154-A930-CD44EA9C85A7";
paths = (
{
closed = 1;
nodes = (
"693 0 LINE",
"437 347 LINE",
"703 699 LINE",
"561 699 LINE",
"365 438 LINE",
"170 699 LINE",
"30 699 LINE",
"547 0 LINE"
);
}
);
width = 762;
}
);
leftKerningGroup = X;
note = X;
rightKerningGroup = X;
},
{
color = 4;
glyphname = Y.ss03;
lastChange = "2018-03-11 16:27:12 +0000";
layers = (
{
layerId = "36D41E8E-F531-4154-A930-CD44EA9C85A7";
paths = (
{
closed = 1;
nodes = (
"217 0 LINE",
"734 699 LINE",
"599 699 LINE",
"404 438 LINE",
"208 699 LINE",
"71 699 LINE",
"335 346 LINE",
"78 0 LINE"
);
}
);
width = 753;
}
);
leftKerningGroup = Y;
note = Y.alt;
rightKerningGroup = Y;
},
{
color = 4;
glyphname = Z.ss03;
lastChange = "2018-03-11 16:27:12 +0000";
layers = (
{
layerId = "36D41E8E-F531-4154-A930-CD44EA9C85A7";
paths = (
{
closed = 1;
nodes = (
"706 0 LINE",
"442 385 LINE",
"596 607 LINE",
"596 699 LINE",
"101 699 LINE",
"101 597 LINE",
"454 597 LINE",
"41 0 LINE"
);
},
{
closed = 1;
nodes = (
"374 286 LINE",
"500 102 LINE",
"247 102 LINE"
);
}
);
width = 733;
}
);
leftKerningGroup = Z;
note = Z;
},
{
color = 3;
glyphname = a;
lastChange = "2018-03-05 12:50:30 +0000";
layers = (
{
anchors = (
{
name = ogonek;
position = "{590, 1}";
},
{
name = top;
position = "{331, 516}";
}
);
layerId = "36D41E8E-F531-4154-A930-CD44EA9C85A7";
paths = (
{
closed = 1;
nodes = (
"394 -15 OFFCURVE",
"449 18 OFFCURVE",
"483 53 CURVE",
"482 0 LINE",
"591 0 LINE",
"591 517 LINE",
"484 517 LINE",
"484 467 LINE",
"448 503 OFFCURVE",
"385 532 OFFCURVE",
"310 532 CURVE SMOOTH",
"152 532 OFFCURVE",
"40 409 OFFCURVE",
"40 258 CURVE SMOOTH",
"40 107 OFFCURVE",
"152 -15 OFFCURVE",
"310 -15 CURVE SMOOTH"
);
},
{
closed = 1;
nodes = (
"221 81 OFFCURVE",
"148 161 OFFCURVE",
"148 259 CURVE SMOOTH",
"148 357 OFFCURVE",
"221 436 OFFCURVE",
"318 436 CURVE SMOOTH",
"414 436 OFFCURVE",
"490 371 OFFCURVE",
"490 259 CURVE SMOOTH",
"490 146 OFFCURVE",
"414 81 OFFCURVE",
"318 81 CURVE SMOOTH"
);
}
);
width = 672;
}
);
leftKerningGroup = "ronde-min";
note = a;
rightKerningGroup = a;
unicode = 0061;
},
{
color = 3;
glyphname = b;
lastChange = "2018-02-09 15:44:29 +0000";
layers = (
{
layerId = "36D41E8E-F531-4154-A930-CD44EA9C85A7";
paths = (
{
closed = 1;
nodes = (
"520 -15 OFFCURVE",
"632 107 OFFCURVE",
"632 258 CURVE SMOOTH",
"632 409 OFFCURVE",
"520 532 OFFCURVE",
"362 532 CURVE SMOOTH",
"287 532 OFFCURVE",
"224 503 OFFCURVE",
"188 467 CURVE",
"188 697 LINE",
"81 679 LINE",
"81 0 LINE",
"190 0 LINE",
"189 53 LINE",
"223 18 OFFCURVE",
"278 -15 OFFCURVE",
"362 -15 CURVE SMOOTH"
);
},
{
closed = 1;
nodes = (
"258 81 OFFCURVE",
"182 146 OFFCURVE",
"182 259 CURVE SMOOTH",
"182 371 OFFCURVE",
"258 436 OFFCURVE",
"354 436 CURVE SMOOTH",
"451 436 OFFCURVE",
"527 357 OFFCURVE",
"527 259 CURVE SMOOTH",
"527 161 OFFCURVE",
"451 81 OFFCURVE",
"354 81 CURVE SMOOTH"
);
}
);
width = 672;
}
);
note = b;
rightKerningGroup = "ronde-min";
unicode = 0062;
},
{
color = 3;
glyphname = c;
lastChange = "2018-03-05 13:08:07 +0000";
layers = (
{
anchors = (
{
name = bottom;
position = "{334, -9}";
},
{
name = top;
position = "{324, 516}";
}
);
layerId = "36D41E8E-F531-4154-A930-CD44EA9C85A7";
paths = (
{
closed = 1;
nodes = (
"386 -15 OFFCURVE",
"471 -3 OFFCURVE",
"518 34 CURVE",
"518 134 LINE",
"518 134 OFFCURVE",
"454 80 OFFCURVE",
"333 80 CURVE SMOOTH",
"218 80 OFFCURVE",
"145 152 OFFCURVE",
"145 259 CURVE SMOOTH",
"145 357 OFFCURVE",
"221 437 OFFCURVE",
"323 437 CURVE SMOOTH",
"447 437 OFFCURVE",
"508 359 OFFCURVE",
"508 359 CURVE",
"508 470 LINE",
"462 513 OFFCURVE",
"387 532 OFFCURVE",
"323 532 CURVE SMOOTH",
"155 532 OFFCURVE",
"40 410 OFFCURVE",
"40 259 CURVE SMOOTH",
"40 108 OFFCURVE",
"140 -15 OFFCURVE",
"333 -15 CURVE SMOOTH"
);
}
);
width = 553;
}
);
leftKerningGroup = "ronde-min";
note = c;
rightKerningGroup = c;
unicode = 0063;
},
{
color = 3;
glyphname = d;
lastChange = "2018-03-05 13:08:01 +0000";
layers = (
{
anchors = (
{
name = "caron-t";
position = "{637, 401}";
},
{
name = center;
position = "{516, 580}";
}
);
layerId = "36D41E8E-F531-4154-A930-CD44EA9C85A7";
paths = (
{
closed = 1;
nodes = (
"394 -15 OFFCURVE",
"449 18 OFFCURVE",
"483 53 CURVE",
"482 0 LINE",
"592 0 LINE",
"592 697 LINE",
"484 679 LINE",
"484 467 LINE",
"448 503 OFFCURVE",
"385 532 OFFCURVE",
"310 532 CURVE SMOOTH",
"152 532 OFFCURVE",
"40 409 OFFCURVE",
"40 258 CURVE SMOOTH",
"40 107 OFFCURVE",
"152 -15 OFFCURVE",
"310 -15 CURVE SMOOTH"
);
},
{
closed = 1;
nodes = (
"221 81 OFFCURVE",
"145 161 OFFCURVE",
"145 259 CURVE SMOOTH",
"145 357 OFFCURVE",
"221 436 OFFCURVE",
"318 436 CURVE SMOOTH",
"414 436 OFFCURVE",
"490 371 OFFCURVE",
"490 259 CURVE SMOOTH",
"490 146 OFFCURVE",
"414 81 OFFCURVE",
"318 81 CURVE SMOOTH"
);
}
);
width = 672;
}
);
leftKerningGroup = "ronde-min";
note = d;
rightKerningGroup = d;
unicode = 0064;
},
{
color = 3;
glyphname = eth;
lastChange = "2018-02-09 15:44:29 +0000";
layers = (
{
layerId = "36D41E8E-F531-4154-A930-CD44EA9C85A7";
paths = (
{
closed = 1;
nodes = (
"440 -15 OFFCURVE",
"549 80 OFFCURVE",
"549 273 CURVE SMOOTH",
"549 417 OFFCURVE",
"503 542 OFFCURVE",
"380 614 CURVE",
"399 656 LINE",
"319 696 LINE",
"298 649 LINE",
"243 667 OFFCURVE",
"178 676 OFFCURVE",
"101 676 CURVE",
"101 582 LINE",
"162 582 OFFCURVE",
"215 578 OFFCURVE",
"261 567 CURVE",
"238 517 LINE",
"319 478 LINE",
"344 534 LINE",
"398 501 OFFCURVE",
"434 449 OFFCURVE",
"455 369 CURVE",
"423 413 OFFCURVE",
"361 450 OFFCURVE",
"284 450 CURVE SMOOTH",
"138 450 OFFCURVE",
"40 357 OFFCURVE",
"40 217 CURVE SMOOTH",
"40 78 OFFCURVE",
"142 -15 OFFCURVE",
"295 -15 CURVE SMOOTH"
);
},
{
closed = 1;
nodes = (
"207 81 OFFCURVE",
"148 137 OFFCURVE",
"148 220 CURVE SMOOTH",
"148 300 OFFCURVE",
"202 354 OFFCURVE",
"284 354 CURVE SMOOTH",
"383 354 OFFCURVE",
"442 298 OFFCURVE",
"442 220 CURVE SMOOTH",
"442 148 OFFCURVE",
"385 81 OFFCURVE",
"295 81 CURVE SMOOTH"
);
}
);
width = 589;
}
);
leftKerningGroup = "ronde-min";
leftMetricsKey = o;
rightKerningGroup = "ronde-min";
rightMetricsKey = o;
unicode = 00F0;
},
{
color = 3;
glyphname = dcroat;
lastChange = "2018-02-09 15:44:29 +0000";
layers = (
{
anchors = (
{
name = _center;
position = "{515.5, 580}";
}
);
components = (
{
name = d;
}
);
layerId = "36D41E8E-F531-4154-A930-CD44EA9C85A7";
paths = (
{
closed = 1;
nodes = (
"654 537 LINE",
"654 627 LINE",
"397 627 LINE",
"397 537 LINE"
);
}
);
width = 664;
}
);
leftKerningGroup = "ronde-min";
unicode = 0111;
},
{
color = 3;
glyphname = e;
lastChange = "2018-03-05 13:08:04 +0000";
layers = (
{
anchors = (
{
name = "#entry";
position = "{40, 0}";
},
{
name = ogonek;
position = "{533, 38}";
},
{
name = top;
position = "{319, 516}";
}
);
layerId = "36D41E8E-F531-4154-A930-CD44EA9C85A7";
paths = (
{
closed = 1;
nodes = (
"477 -15 OFFCURVE",
"533 38 OFFCURVE",
"533 38 CURVE",
"533 135 LINE",
"532 135 OFFCURVE",
"455 81 OFFCURVE",
"328 81 CURVE SMOOTH",
"211 81 OFFCURVE",
"155 153 OFFCURVE",
"143 233 CURVE",
"556 233 LINE",
"556 283 LINE SMOOTH",
"556 408 OFFCURVE",
"469 532 OFFCURVE",
"319 532 CURVE SMOOTH",
"159 532 OFFCURVE",
"40 414 OFFCURVE",
"40 259 CURVE SMOOTH",
"40 110 OFFCURVE",
"144 -15 OFFCURVE",
"326 -15 CURVE SMOOTH"
);
},
{
closed = 1;
nodes = (
"154 357 OFFCURVE",
"192 444 OFFCURVE",
"305 444 CURVE SMOOTH",
"418 444 OFFCURVE",
"444 357 OFFCURVE",
"448 317 CURVE",
"148 317 LINE"
);
}
);
width = 596;
}
);
leftKerningGroup = "ronde-min";
note = e;
rightKerningGroup = "ronde-min";
unicode = 0065;
},
{
color = 3;
glyphname = f;
lastChange = "2018-02-09 15:44:29 +0000";
layers = (
{
layerId = "36D41E8E-F531-4154-A930-CD44EA9C85A7";
paths = (
{
closed = 1;
nodes = (
"248 0 LINE",
"248 370 LINE",
"481 370 LINE",
"481 458 LINE",
"248 458 LINE",
"248 579 OFFCURVE",
"295 621 OFFCURVE",
"375 621 CURVE SMOOTH",
"455 621 OFFCURVE",
"506 567 OFFCURVE",
"506 567 CURVE",
"506 663 LINE",
"506 663 OFFCURVE",
"470 717 OFFCURVE",
"360 717 CURVE SMOOTH",
"231 717 OFFCURVE",
"140 623 OFFCURVE",
"140 458 CURVE",
"30 458 LINE",
"30 370 LINE",
"140 370 LINE",
"140 0 LINE"
);
}
);
width = 521;
}
);
leftKerningGroup = f;
note = f;
rightKerningGroup = f;
unicode = 0066;
},
{
color = 3;
glyphname = g;
lastChange = "2018-03-05 10:55:47 +0000";
layers = (
{
anchors = (
{
name = top;
position = "{321, 516}";
}
);
layerId = "36D41E8E-F531-4154-A930-CD44EA9C85A7";
paths = (
{
closed = 1;
nodes = (
"509 -225 OFFCURVE",
"590 -97 OFFCURVE",
"590 54 CURVE SMOOTH",
"592 517 LINE",
"484 517 LINE",
"484 467 LINE",
"448 503 OFFCURVE",
"385 532 OFFCURVE",
"310 532 CURVE SMOOTH",
"152 532 OFFCURVE",
"40 409 OFFCURVE",
"40 258 CURVE SMOOTH",
"40 107 OFFCURVE",
"152 -15 OFFCURVE",
"310 -15 CURVE SMOOTH",
"393 -15 OFFCURVE",
"448 17 OFFCURVE",
"482 52 CURVE",
"482 40 LINE SMOOTH",
"482 -81 OFFCURVE",
"408 -129 OFFCURVE",
"291 -129 CURVE SMOOTH",
"164 -129 OFFCURVE",
"88 -75 OFFCURVE",
"88 -75 CURVE",
"88 -172 LINE",
"88 -172 OFFCURVE",
"144 -225 OFFCURVE",
"295 -225 CURVE SMOOTH"
);
},
{
closed = 1;
nodes = (
"221 81 OFFCURVE",
"148 161 OFFCURVE",
"148 259 CURVE SMOOTH",
"148 357 OFFCURVE",
"221 436 OFFCURVE",
"318 436 CURVE SMOOTH",
"414 436 OFFCURVE",
"490 371 OFFCURVE",
"490 259 CURVE SMOOTH",
"490 146 OFFCURVE",
"414 81 OFFCURVE",
"318 81 CURVE SMOOTH"
);
}
);
width = 645;
}
);
leftKerningGroup = "ronde-min";
note = g;
unicode = 0067;
},
{
color = 3;
glyphname = h;
lastChange = "2018-02-09 15:44:29 +0000";
layers = (
{
anchors = (
{
name = center;
position = "{176, 574}";
},
{
name = top;
position = "{314, 680}";
}
);
components = (
{
name = l;
}
);
layerId = "36D41E8E-F531-4154-A930-CD44EA9C85A7";
paths = (
{
closed = 1;
nodes = (
"557 0 LINE",
"557 318 LINE SMOOTH",
"557 460 OFFCURVE",
"465 533 OFFCURVE",
"349 533 CURVE SMOOTH",
"223 533 OFFCURVE",
"188 453 OFFCURVE",
"188 453 CURVE",
"188 291 LINE",
"188 388 OFFCURVE",
"258 437 OFFCURVE",
"333 437 CURVE SMOOTH",
"404 437 OFFCURVE",
"449 390 OFFCURVE",
"449 307 CURVE SMOOTH",
"449 0 LINE"
);
}
);
width = 627;
}
);
note = h;
rightKerningGroup = n;
unicode = 0068;
},
{
color = 3;
glyphname = hbar;
lastChange = "2018-02-09 15:44:29 +0000";
layers = (
{
anchors = (
{
name = _center;
position = "{159, 574}";
}
);
components = (
{
name = h;
transform = "{1, 0, 0, 1, -17, 0}";
}
);
layerId = "36D41E8E-F531-4154-A930-CD44EA9C85A7";
paths = (
{
closed = 1;
nodes = (
"257 537 LINE",
"257 627 LINE",
"0 627 LINE",
"0 537 LINE"
);
}
);
width = 610;
}
);
rightKerningGroup = n;
unicode = 0127;
},
{
color = 3;
glyphname = i;
lastChange = "2018-02-09 15:44:29 +0000";
layers = (
{
anchors = (
{
name = ogonek;
position = "{200, 1}";
}
);
layerId = "36D41E8E-F531-4154-A930-CD44EA9C85A7";
paths = (
{
closed = 1;
nodes = (
"200 0 LINE",
"200 518 LINE",
"92 518 LINE",
"92 0 LINE"
);
},
{
closed = 1;
nodes = (
"176 591 OFFCURVE",
"203 618 OFFCURVE",
"203 652 CURVE SMOOTH",
"203 687 OFFCURVE",
"176 714 OFFCURVE",
"141 714 CURVE SMOOTH",
"107 714 OFFCURVE",
"80 687 OFFCURVE",
"80 652 CURVE SMOOTH",
"80 618 OFFCURVE",
"107 591 OFFCURVE",
"141 591 CURVE SMOOTH"
);
}
);
width = 283;
}
);
leftKerningGroup = i;
note = i;
rightKerningGroup = i;
unicode = 0069;
},
{
color = 3;
glyphname = j;
lastChange = "2018-02-09 15:44:29 +0000";
layers = (
{
layerId = "36D41E8E-F531-4154-A930-CD44EA9C85A7";
paths = (
{
closed = 1;
nodes = (
"171 -224 OFFCURVE",
"197 -108 OFFCURVE",
"197 -31 CURVE SMOOTH",
"197 518 LINE",
"89 518 LINE",
"89 -40 LINE SMOOTH",
"89 -81 OFFCURVE",
"75 -128 OFFCURVE",
"22 -128 CURVE SMOOTH",
"-58 -128 OFFCURVE",
"-109 -49 OFFCURVE",
"-109 -49 CURVE",
"-109 -161 LINE",
"-109 -161 OFFCURVE",
"-73 -224 OFFCURVE",
"37 -224 CURVE SMOOTH"
);
},
{
closed = 1;
nodes = (
"170 591 OFFCURVE",
"197 618 OFFCURVE",
"197 652 CURVE SMOOTH",
"197 687 OFFCURVE",
"170 714 OFFCURVE",
"135 714 CURVE SMOOTH",
"101 714 OFFCURVE",
"74 687 OFFCURVE",
"74 652 CURVE SMOOTH",
"74 618 OFFCURVE",
"101 591 OFFCURVE",
"135 591 CURVE SMOOTH"
);
}
);
width = 268;
}
);
leftKerningGroup = j;
note = j;
rightKerningGroup = j;
unicode = 006A;
},
{
color = 3;
glyphname = k;
lastChange = "2018-03-05 12:48:24 +0000";
layers = (
{
anchors = (
{
name = bottom;
position = "{314, 0}";
}
);
layerId = "36D41E8E-F531-4154-A930-CD44EA9C85A7";
paths = (
{
closed = 1;
nodes = (
"188 0 LINE",
"188 266 LINE",
"151 186 LINE",
"277 292 LINE",
"202 299 LINE",
"447 0 LINE",
"586 0 LINE",
"316 324 LINE",
"546 517 LINE",
"406 517 LINE",
"144 298 LINE",
"188 280 LINE",
"188 697 LINE",
"80 679 LINE",
"80 0 LINE"
);
}
);
width = 576;
}
);
note = k;
rightKerningGroup = k;
unicode = 006B;
},
{
color = 3;
glyphname = l;
lastChange = "2018-03-05 13:36:08 +0000";
layers = (
{
anchors = (
{
name = bottom;
position = "{126, 0}";
},
{
name = "caron-t";
position = "{234, 401}";
},
{
name = center;
position = "{137, 368}";
},
{
name = middle;
position = "{307, 355}";
},
{
name = top;
position = "{134, 679}";
}
);
layerId = "36D41E8E-F531-4154-A930-CD44EA9C85A7";
paths = (
{
closed = 1;
nodes = (
"188 0 LINE",
"188 697 LINE",
"80 679 LINE",
"80 0 LINE"
);
}
);
width = 268;
}
);
note = l;
unicode = 006C;
},
{
color = 3;
glyphname = m;
lastChange = "2018-02-09 15:44:29 +0000";
layers = (
{
components = (
{
name = idotless;
}
);
layerId = "36D41E8E-F531-4154-A930-CD44EA9C85A7";
paths = (
{
closed = 1;
nodes = (
"532 0 LINE",
"532 291 LINE SMOOTH",
"532 388 OFFCURVE",
"597 437 OFFCURVE",
"662 437 CURVE SMOOTH",
"733 437 OFFCURVE",
"763 390 OFFCURVE",
"763 307 CURVE SMOOTH",
"763 0 LINE",
"871 0 LINE",
"871 318 LINE SMOOTH",
"871 460 OFFCURVE",
"794 533 OFFCURVE",
"678 533 CURVE SMOOTH",
"580 533 OFFCURVE",
"526 493 OFFCURVE",
"502 448 CURVE",
"469 504 OFFCURVE",
"412 533 OFFCURVE",
"339 533 CURVE SMOOTH",
"223 533 OFFCURVE",
"193 453 OFFCURVE",
"193 453 CURVE",
"193 291 LINE",
"193 388 OFFCURVE",
"258 437 OFFCURVE",
"323 437 CURVE SMOOTH",
"394 437 OFFCURVE",
"424 390 OFFCURVE",
"424 307 CURVE SMOOTH",
"424 0 LINE"
);
}
);
width = 941;
}
);
note = m;
unicode = 006D;
},
{
color = 3;
glyphname = n;
lastChange = "2018-02-09 15:44:29 +0000";
layers = (
{
anchors = (
{
name = bottom;
position = "{314, 0}";
},
{
name = top;
position = "{349, 516}";
}
);
components = (
{
name = idotless;
}
);
layerId = "36D41E8E-F531-4154-A930-CD44EA9C85A7";
paths = (
{
closed = 1;
nodes = (
"563 0 LINE",
"563 318 LINE SMOOTH",
"563 460 OFFCURVE",
"471 533 OFFCURVE",
"355 533 CURVE SMOOTH",
"229 533 OFFCURVE",
"194 453 OFFCURVE",
"194 453 CURVE",
"194 291 LINE",
"194 388 OFFCURVE",
"264 437 OFFCURVE",
"339 437 CURVE SMOOTH",
"410 437 OFFCURVE",
"455 390 OFFCURVE",
"455 307 CURVE SMOOTH",
"455 0 LINE"
);
}
);
width = 633;
}
);
note = n;
rightKerningGroup = n;
unicode = 006E;
},
{
color = 3;
glyphname = eng;
lastChange = "2018-02-09 15:44:29 +0000";
layers = (
{
components = (
{
name = n;
}
);
layerId = "36D41E8E-F531-4154-A930-CD44EA9C85A7";
paths = (
{
closed = 1;
nodes = (
"537 -224 OFFCURVE",
"563 -108 OFFCURVE",
"563 -31 CURVE SMOOTH",
"563 223 LINE",
"455 223 LINE",
"455 -40 LINE SMOOTH",
"455 -81 OFFCURVE",
"441 -128 OFFCURVE",
"388 -128 CURVE SMOOTH",
"308 -128 OFFCURVE",
"257 -49 OFFCURVE",
"257 -49 CURVE",
"257 -161 LINE",
"257 -161 OFFCURVE",
"293 -224 OFFCURVE",
"403 -224 CURVE SMOOTH"
);
}
);
width = 633;
}
);
leftKerningGroup = n;
rightKerningGroup = n;
rightMetricsKey = n;
unicode = 014B;
},
{
color = 3;
glyphname = o;
lastChange = "2018-03-11 15:09:58 +0000";
layers = (
{
anchors = (
{
name = "#exit";
position = "{502, 0}";
},
{
name = center;
position = "{323, 258}";
},
{
name = top;
position = "{323, 516}";
}
);
layerId = "36D41E8E-F531-4154-A930-CD44EA9C85A7";
paths = (
{
closed = 1;
nodes = (
"480 -15 OFFCURVE",
"606 107 OFFCURVE",
"606 258 CURVE SMOOTH",
"606 409 OFFCURVE",
"480 532 OFFCURVE",
"323 532 CURVE SMOOTH",
"166 532 OFFCURVE",
"40 409 OFFCURVE",
"40 258 CURVE SMOOTH",
"40 107 OFFCURVE",
"166 -15 OFFCURVE",
"323 -15 CURVE SMOOTH"
);
},
{
closed = 1;
nodes = (
"221 82 OFFCURVE",
"144 161 OFFCURVE",
"144 258 CURVE SMOOTH",
"144 356 OFFCURVE",
"221 435 OFFCURVE",
"323 435 CURVE SMOOTH",
"425 435 OFFCURVE",
"502 356 OFFCURVE",
"502 258 CURVE SMOOTH",
"502 161 OFFCURVE",
"425 82 OFFCURVE",
"323 82 CURVE SMOOTH"
);
}
);
width = 646;
}
);
leftKerningGroup = "ronde-min";
note = o;
rightKerningGroup = "ronde-min";
unicode = 006F;
},
{
color = 3;
glyphname = p;
lastChange = "2018-03-05 13:08:00 +0000";
layers = (
{
layerId = "36D41E8E-F531-4154-A930-CD44EA9C85A7";
paths = (
{
closed = 1;
nodes = (
"188 -212 LINE",
"188 55 LINE",
"222 18 OFFCURVE",
"277 -15 OFFCURVE",
"362 -15 CURVE SMOOTH",
"520 -15 OFFCURVE",
"632 107 OFFCURVE",
"632 258 CURVE SMOOTH",
"632 409 OFFCURVE",
"520 532 OFFCURVE",
"362 532 CURVE SMOOTH",
"287 532 OFFCURVE",
"224 503 OFFCURVE",
"188 467 CURVE",
"188 517 LINE",
"80 517 LINE",
"80 -212 LINE"
);
},
{
closed = 1;
nodes = (
"267 81 OFFCURVE",
"182 146 OFFCURVE",
"182 258 CURVE SMOOTH",
"182 371 OFFCURVE",
"267 436 OFFCURVE",
"364 436 CURVE SMOOTH",
"461 436 OFFCURVE",
"527 356 OFFCURVE",
"527 258 CURVE SMOOTH",
"527 160 OFFCURVE",
"461 81 OFFCURVE",
"364 81 CURVE SMOOTH"
);
}
);
width = 672;
}
);
note = p;
rightKerningGroup = "ronde-min";
unicode = 0070;
},
{
color = 3;
glyphname = thorn;
lastChange = "2018-02-09 15:44:29 +0000";
layers = (
{
anchors = (
{
name = bottom;
position = "{127, 0}";
},
{
name = "caron-t";
position = "{235, 401}";
},
{
name = center;
position = "{138, 368}";
},
{
name = top;
position = "{135, 679}";
}
);
layerId = "36D41E8E-F531-4154-A930-CD44EA9C85A7";
paths = (
{
closed = 1;
nodes = (
"189 -212 LINE",
"189 55 LINE",
"223 18 OFFCURVE",
"278 -15 OFFCURVE",
"363 -15 CURVE SMOOTH",
"521 -15 OFFCURVE",
"633 107 OFFCURVE",
"633 258 CURVE SMOOTH",
"633 409 OFFCURVE",
"521 532 OFFCURVE",
"363 532 CURVE SMOOTH",
"288 532 OFFCURVE",
"225 503 OFFCURVE",
"189 467 CURVE",
"189 697 LINE",
"81 679 LINE",
"81 -212 LINE"
);
},
{
closed = 1;
nodes = (
"268 81 OFFCURVE",
"183 146 OFFCURVE",
"183 258 CURVE SMOOTH",
"183 371 OFFCURVE",
"268 436 OFFCURVE",
"365 436 CURVE SMOOTH",
"462 436 OFFCURVE",
"528 356 OFFCURVE",
"528 258 CURVE SMOOTH",
"528 160 OFFCURVE",
"462 81 OFFCURVE",
"365 81 CURVE SMOOTH"
);
}
);
width = 673;
}
);
leftKerningGroup = thorn;
leftMetricsKey = b;
rightKerningGroup = "ronde-min";
rightMetricsKey = p;
unicode = 00FE;
},
{
color = 3;
glyphname = q;
lastChange = "2018-02-09 15:44:29 +0000";
layers = (
{
layerId = "36D41E8E-F531-4154-A930-CD44EA9C85A7";
paths = (
{
closed = 1;
nodes = (
"592 -212 LINE",
"592 517 LINE",
"484 517 LINE",
"484 467 LINE",
"448 503 OFFCURVE",
"385 532 OFFCURVE",
"310 532 CURVE SMOOTH",
"152 532 OFFCURVE",
"40 409 OFFCURVE",
"40 258 CURVE SMOOTH",
"40 107 OFFCURVE",
"152 -15 OFFCURVE",
"310 -15 CURVE SMOOTH",
"395 -15 OFFCURVE",
"450 18 OFFCURVE",
"484 55 CURVE",
"484 -212 LINE"
);
},
{
closed = 1;
nodes = (
"211 81 OFFCURVE",
"145 160 OFFCURVE",
"145 258 CURVE SMOOTH",
"145 356 OFFCURVE",
"211 436 OFFCURVE",
"308 436 CURVE SMOOTH",
"405 436 OFFCURVE",
"490 371 OFFCURVE",
"490 258 CURVE SMOOTH",
"490 146 OFFCURVE",
"405 81 OFFCURVE",
"308 81 CURVE SMOOTH"
);
}
);
width = 669;
}
);
leftKerningGroup = "ronde-min";
note = q;
unicode = 0071;
},
{
color = 3;
glyphname = r;
lastChange = "2018-03-05 14:42:24 +0000";
layers = (
{
anchors = (
{
name = bottom;
position = "{127, 0}";
},
{
name = top;
position = "{225, 516}";
}
);
layerId = "36D41E8E-F531-4154-A930-CD44EA9C85A7";
paths = (
{
closed = 1;
nodes = (
"188 0 LINE",
"188 259 LINE SMOOTH",
"190 369 OFFCURVE",
"269 444 OFFCURVE",
"400 444 CURVE",
"400 533 LINE",
"290 533 OFFCURVE",
"212 481 OFFCURVE",
"188 418 CURVE",
"188 518 LINE",
"80 518 LINE",
"80 0 LINE"
);
}
);
width = 410;
}
);
leftKerningGroup = r;
note = r;
rightKerningGroup = r;
unicode = 0072;
},
{
color = 3;
glyphname = s;
lastChange = "2018-03-05 14:50:52 +0000";
layers = (
{
anchors = (
{
name = bottom;
position = "{214, 0}";
},
{
name = top;
position = "{231, 516}";
}
);
layerId = "36D41E8E-F531-4154-A930-CD44EA9C85A7";
paths = (
{
closed = 1;
nodes = (
"338 -15 OFFCURVE",
"397 63 OFFCURVE",
"397 142 CURVE SMOOTH",
"397 220 OFFCURVE",
"358 254 OFFCURVE",
"289 294 CURVE SMOOTH",
"200 346 OFFCURVE",
"172 357 OFFCURVE",
"172 390 CURVE SMOOTH",
"172 417 OFFCURVE",
"196 436 OFFCURVE",
"254 436 CURVE SMOOTH",
"306 436 OFFCURVE",
"352 414 OFFCURVE",
"375 392 CURVE",
"375 498 LINE",
"350 513 OFFCURVE",
"304 532 OFFCURVE",
"241 532 CURVE SMOOTH",
"147 532 OFFCURVE",
"70 476 OFFCURVE",
"70 388 CURVE SMOOTH",
"70 302 OFFCURVE",
"132 269 OFFCURVE",
"200 231 CURVE SMOOTH",
"261 197 OFFCURVE",
"296 174 OFFCURVE",
"296 136 CURVE SMOOTH",
"296 102 OFFCURVE",
"261 81 OFFCURVE",
"192 81 CURVE SMOOTH",
"108 81 OFFCURVE",
"40 140 OFFCURVE",
"40 140 CURVE",
"40 34 LINE",
"40 34 OFFCURVE",
"105 -15 OFFCURVE",
"193 -15 CURVE SMOOTH"
);
}
);
width = 437;
}
);
leftKerningGroup = s;
note = s;
rightKerningGroup = s;
unicode = 0073;
},
{
color = 3;
glyphname = germandbls;
lastChange = "2018-02-09 15:44:29 +0000";
layers = (
{
layerId = "36D41E8E-F531-4154-A930-CD44EA9C85A7";
paths = (
{
closed = 1;
nodes = (
"463 -13 OFFCURVE",
"567 57 OFFCURVE",
"567 190 CURVE SMOOTH",
"567 278 OFFCURVE",
"507 352 OFFCURVE",
"403 369 CURVE",
"474 383 OFFCURVE",
"522 439 OFFCURVE",
"522 515 CURVE SMOOTH",
"522 632 OFFCURVE",
"450 698 OFFCURVE",
"316 698 CURVE SMOOTH",
"175 698 OFFCURVE",
"90 603 OFFCURVE",
"90 462 CURVE SMOOTH",
"90 403 LINE",
"10 403 LINE",
"10 317 LINE",
"90 317 LINE",
"90 0 LINE",
"197 0 LINE",
"197 472 LINE SMOOTH",
"197 563 OFFCURVE",
"256 610 OFFCURVE",
"316 610 CURVE SMOOTH",
"381 610 OFFCURVE",
"420 580 OFFCURVE",
"420 514 CURVE SMOOTH",
"420 430 OFFCURVE",
"349 404 OFFCURVE",
"293 404 CURVE",
"293 313 LINE",
"310 313 LINE SMOOTH",
"381 313 OFFCURVE",
"457 268 OFFCURVE",
"457 187 CURVE SMOOTH",
"457 102 OFFCURVE",
"385 80 OFFCURVE",
"336 80 CURVE SMOOTH",
"321 80 OFFCURVE",
"306 82 OFFCURVE",
"293 84 CURVE",
"293 -10 LINE",
"306 -12 OFFCURVE",
"320 -13 OFFCURVE",
"336 -13 CURVE SMOOTH"
);
}
);
width = 607;
}
);
rightKerningGroup = "ronde-min";
rightMetricsKey = o;
unicode = 00DF;
},
{
color = 3;
glyphname = t;
lastChange = "2018-03-05 11:05:33 +0000";
layers = (
{
anchors = (
{
name = bottom;
position = "{250, 0}";
},
{
name = "caron-t";
position = "{351, 401}";
}
);
layerId = "36D41E8E-F531-4154-A930-CD44EA9C85A7";
paths = (
{
closed = 1;
nodes = (
"312 0 LINE",
"312 443 LINE",
"489 443 LINE",
"489 531 LINE",
"312 531 LINE",
"312 696 LINE",
"5 443 LINE",
"204 443 LINE",
"204 0 LINE"
);
}
);
width = 502;
}
);
leftKerningGroup = t;
note = t;
rightKerningGroup = t;
unicode = 0074;
},
{
color = 3;
glyphname = u;
lastChange = "2018-02-09 15:44:29 +0000";
layers = (
{
anchors = (
{
name = ogonek;
position = "{372, -6}";
},
{
name = top;
position = "{305, 516}";
}
);
layerId = "36D41E8E-F531-4154-A930-CD44EA9C85A7";
paths = (
{
closed = 1;
nodes = (
"370 -16 OFFCURVE",
"540 -11 OFFCURVE",
"540 209 CURVE SMOOTH",
"540 517 LINE",
"432 517 LINE",
"432 206 LINE",
"432 206 OFFCURVE",
"438 79 OFFCURVE",
"305 79 CURVE SMOOTH",
"172 79 OFFCURVE",
"178 206 OFFCURVE",
"178 206 CURVE",
"178 517 LINE",
"70 517 LINE",
"70 209 LINE SMOOTH",
"70 -11 OFFCURVE",
"240 -16 OFFCURVE",
"305 -16 CURVE SMOOTH"
);
}
);
width = 610;
}
);
leftKerningGroup = u;
note = u;
rightKerningGroup = u;
unicode = 0075;
},
{
color = 3;
glyphname = v;
lastChange = "2018-03-05 13:13:53 +0000";
layers = (
{
layerId = "36D41E8E-F531-4154-A930-CD44EA9C85A7";
paths = (
{
closed = 1;
nodes = (
"545 517 LINE",
"432 517 LINE",
"276 179 LINE",
"118 517 LINE",
"5 517 LINE",
"275 -41 LINE"
);
}
);
width = 550;
}
);
leftKerningGroup = "diag-min";
note = v;
rightKerningGroup = "diag-min";
unicode = 0076;
},
{
color = 3;
glyphname = w;
lastChange = "2018-02-09 15:44:29 +0000";
layers = (
{
anchors = (
{
name = top;
position = "{374, 516}";
}
);
layerId = "36D41E8E-F531-4154-A930-CD44EA9C85A7";
paths = (
{
closed = 1;
nodes = (
"371 304 LINE",
"517 -41 LINE",
"717 517 LINE",
"604 517 LINE",
"509 218 LINE",
"372 538 LINE",
"246 219 LINE",
"143 517 LINE",
"30 517 LINE",
"230 -41 LINE"
);
}
);
width = 747;
}
);
leftKerningGroup = "diag-min";
note = w;
rightKerningGroup = "diag-min";
unicode = 0077;
},
{
color = 3;
glyphname = x;
lastChange = "2018-03-11 16:15:52 +0000";
layers = (
{
layerId = "36D41E8E-F531-4154-A930-CD44EA9C85A7";
paths = (
{
closed = 1;
nodes = (
"150 0 LINE",
"310 202 LINE",
"468 0 LINE",
"598 0 LINE",
"377 270 LINE",
"578 517 LINE",
"460 517 LINE",
"316 345 LINE",
"175 517 LINE",
"45 517 LINE",
"247 278 LINE",
"25 0 LINE"
);
}
);
width = 623;
}
);
leftKerningGroup = x;
note = x;
rightKerningGroup = x;
unicode = 0078;
},
{
color = 3;
glyphname = y;
lastChange = "2018-03-05 10:57:20 +0000";
layers = (
{
anchors = (
{
name = top;
position = "{293, 516}";
}
);
layerId = "36D41E8E-F531-4154-A930-CD44EA9C85A7";
paths = (
{
closed = 1;
nodes = (
"217 -208 LINE",
"566 517 LINE",
"453 517 LINE",
"293 174 LINE",
"133 517 LINE",
"20 517 LINE",
"237 60 LINE",
"102 -208 LINE"
);
}
);
width = 586;
}
);
leftKerningGroup = "diag-min";
note = y;
rightKerningGroup = "diag-min";
unicode = 0079;
},
{
color = 3;
glyphname = z;
lastChange = "2018-02-09 15:44:29 +0000";
layers = (
{
anchors = (
{
name = top;
position = "{288, 516}";
}
);
layerId = "36D41E8E-F531-4154-A930-CD44EA9C85A7";
paths = (
{
closed = 1;
nodes = (
"526 0 LINE",
"526 94 LINE",
"198 94 LINE",
"516 434 LINE",
"516 518 LINE",
"70 518 LINE",
"70 424 LINE",
"377 424 LINE",
"50 74 LINE",
"50 0 LINE"
);
}
);
width = 576;
}
);
leftKerningGroup = z;
note = z;
rightKerningGroup = z;
unicode = 007A;
},
{
color = 3;
glyphname = j.calt;
lastChange = "2018-03-05 11:02:31 +0000";
layers = (
{
layerId = "36D41E8E-F531-4154-A930-CD44EA9C85A7";
paths = (
{
closed = 1;
nodes = (
"79 -224 OFFCURVE",
"123 -209 OFFCURVE",
"151 -180 CURVE SMOOTH",
"180 -151 OFFCURVE",
"193 -77 OFFCURVE",
"192 42 CURVE",
"192 518 LINE",
"84 518 LINE",
"84 -40 LINE SMOOTH",
"84 -89 OFFCURVE",
"65 -128 OFFCURVE",
"17 -128 CURVE",
"17 -176 LINE SMOOTH",
"18 -208 OFFCURVE",
"18 -224 OFFCURVE",
"18 -224 CURVE"
);
},
{
closed = 1;
nodes = (
"168 591 OFFCURVE",
"195 618 OFFCURVE",
"195 652 CURVE SMOOTH",
"195 687 OFFCURVE",
"168 714 OFFCURVE",
"133 714 CURVE SMOOTH",
"99 714 OFFCURVE",
"72 687 OFFCURVE",
"72 652 CURVE SMOOTH",
"72 618 OFFCURVE",
"99 591 OFFCURVE",
"133 591 CURVE SMOOTH"
);
}
);
width = 272;
}
);
rightKerningGroup = j;
},
{
glyphname = a.ss01;
lastChange = "2018-03-11 16:27:12 +0000";
layers = (
{
anchors = (
{
name = "#exit";
position = "{422, 0}";
},
{
name = bottom;
position = "{287, 0}";
},
{
name = center;
position = "{296, 258}";
},
{
name = ogonek;
position = "{530, 0}";
},
{
name = top;
position = "{302, 516}";
}
);
layerId = "36D41E8E-F531-4154-A930-CD44EA9C85A7";
paths = (
{
closed = 1;
nodes = (
"338 -15 OFFCURVE",
"389 14 OFFCURVE",
"422 46 CURVE",
"422 0 LINE",
"530 0 LINE",
"530 318 LINE SMOOTH",
"530 447 OFFCURVE",
"461 533 OFFCURVE",
"296 533 CURVE SMOOTH",
"238 533 OFFCURVE",
"143 514 OFFCURVE",
"97 471 CURVE",
"97 360 LINE",
"97 360 OFFCURVE",
"178 438 OFFCURVE",
"296 437 CURVE SMOOTH",
"380 437 OFFCURVE",
"422 392 OFFCURVE",
"422 314 CURVE SMOOTH",
"422 296 LINE",
"380 321 OFFCURVE",
"329 335 OFFCURVE",
"269 335 CURVE SMOOTH",
"138 335 OFFCURVE",
"45 265 OFFCURVE",
"45 159 CURVE SMOOTH",
"45 55 OFFCURVE",
"135 -15 OFFCURVE",
"259 -15 CURVE SMOOTH"
);
},
{
closed = 1;
nodes = (
"216 73 OFFCURVE",
"153 105 OFFCURVE",
"153 163 CURVE SMOOTH",
"153 216 OFFCURVE",
"195 257 OFFCURVE",
"289 257 CURVE SMOOTH",
"350 257 OFFCURVE",
"397 233 OFFCURVE",
"422 213 CURVE",
"422 179 LINE SMOOTH",
"422 101 OFFCURVE",
"346 73 OFFCURVE",
"279 73 CURVE SMOOTH"
);
}
);
width = 600;
}
);
leftKerningGroup = "ronde-min";
rightKerningGroup = n;
},
{
color = 5;
glyphname = g.ss01;
lastChange = "2018-03-05 11:02:36 +0000";
layers = (
{
anchors = (
{
name = top;
position = "{302, 516}";
}
);
layerId = "36D41E8E-F531-4154-A930-CD44EA9C85A7";
paths = (
{
closed = 1;
nodes = (
"469 -225 OFFCURVE",
"542 -144 OFFCURVE",
"542 -49 CURVE SMOOTH",
"542 37 OFFCURVE",
"471 83 OFFCURVE",
"414 117 CURVE SMOOTH",
"297 188 LINE",
"411 187 OFFCURVE",
"486 259 OFFCURVE",
"486 353 CURVE SMOOTH",
"486 392 OFFCURVE",
"475 427 OFFCURVE",
"454 455 CURVE",
"559 455 LINE",
"559 532 LINE",
"272 532 LINE SMOOTH",
"136 532 OFFCURVE",
"56 457 OFFCURVE",
"56 353 CURVE SMOOTH",
"56 293 OFFCURVE",
"83 252 OFFCURVE",
"131 215 CURVE SMOOTH",
"172 184 OFFCURVE",
"216 153 OFFCURVE",
"259 122 CURVE",
"109 127 OFFCURVE",
"30 41 OFFCURVE",
"30 -49 CURVE SMOOTH",
"30 -144 OFFCURVE",
"103 -225 OFFCURVE",
"286 -225 CURVE SMOOTH"
);
},
{
closed = 1;
nodes = (
"186 -139 OFFCURVE",
"135 -100 OFFCURVE",
"135 -45 CURVE SMOOTH",
"135 10 OFFCURVE",
"191 55 OFFCURVE",
"286 55 CURVE SMOOTH",
"374 55 OFFCURVE",
"437 10 OFFCURVE",
"437 -45 CURVE SMOOTH",
"437 -100 OFFCURVE",
"386 -139 OFFCURVE",
"286 -139 CURVE SMOOTH"
);
},
{
closed = 1;
nodes = (
"200 249 OFFCURVE",
"157 292 OFFCURVE",
"157 347 CURVE SMOOTH",
"157 402 OFFCURVE",
"200 453 OFFCURVE",
"272 453 CURVE SMOOTH",
"345 453 OFFCURVE",
"384 402 OFFCURVE",
"384 347 CURVE SMOOTH",
"384 292 OFFCURVE",
"345 249 OFFCURVE",
"272 249 CURVE SMOOTH"
);
}
);
width = 589;
}
);
leftKerningGroup = "ronde-min";
rightKerningGroup = "ronde-min";
},
{
color = 5;
glyphname = i.ss01;
lastChange = "2018-03-05 10:57:24 +0000";
layers = (
{
layerId = "36D41E8E-F531-4154-A930-CD44EA9C85A7";
paths = (
{
closed = 1;
nodes = (
"398 0 LINE",
"398 88 LINE",
"278 88 LINE",
"278 518 LINE",
"170 518 LINE",
"170 88 LINE",
"50 88 LINE",
"50 0 LINE"
);
},
{
closed = 1;
nodes = (
"254 591 OFFCURVE",
"281 618 OFFCURVE",
"281 652 CURVE SMOOTH",
"281 687 OFFCURVE",
"254 714 OFFCURVE",
"219 714 CURVE SMOOTH",
"185 714 OFFCURVE",
"158 687 OFFCURVE",
"158 652 CURVE SMOOTH",
"158 618 OFFCURVE",
"185 591 OFFCURVE",
"219 591 CURVE SMOOTH"
);
}
);
width = 448;
}
);
leftKerningGroup = i.ss01;
note = i;
rightKerningGroup = I.ss01;
},
{
color = 5;
glyphname = r.ss01;
lastChange = "2018-03-05 14:42:30 +0000";
layers = (
{
anchors = (
{
name = bottom;
position = "{264, -9}";
},
{
name = top;
position = "{225, 516}";
}
);
layerId = "36D41E8E-F531-4154-A930-CD44EA9C85A7";
paths = (
{
closed = 1;
nodes = (
"448 0 LINE",
"448 88 LINE",
"278 88 LINE",
"278 254 LINE SMOOTH",
"278 367 OFFCURVE",
"358 444 OFFCURVE",
"490 444 CURVE",
"490 533 LINE",
"380 533 OFFCURVE",
"301 481 OFFCURVE",
"278 417 CURVE",
"278 518 LINE",
"170 518 LINE",
"170 88 LINE",
"53 88 LINE",
"53 0 LINE"
);
}
);
width = 523;
}
);
leftKerningGroup = i.ss01;
note = r;
rightKerningGroup = r.ss01;
},
{
glyphname = f_f;
lastChange = "2018-02-09 15:44:29 +0000";
layers = (
{
layerId = "36D41E8E-F531-4154-A930-CD44EA9C85A7";
paths = (
{
closed = 1;
nodes = (
"268 0 LINE",
"268 370 LINE",
"502 370 LINE",
"502 0 LINE",
"610 0 LINE",
"610 370 LINE",
"843 370 LINE",
"843 458 LINE",
"610 458 LINE",
"610 579 OFFCURVE",
"657 621 OFFCURVE",
"737 621 CURVE SMOOTH",
"817 621 OFFCURVE",
"868 567 OFFCURVE",
"868 567 CURVE",
"868 663 LINE",
"868 663 OFFCURVE",
"832 717 OFFCURVE",
"722 717 CURVE SMOOTH",
"639 717 OFFCURVE",
"572 678 OFFCURVE",
"535 608 CURVE",
"519 633 OFFCURVE",
"475 687 OFFCURVE",
"379 687 CURVE SMOOTH",
"250 687 OFFCURVE",
"160 596 OFFCURVE",
"160 458 CURVE",
"50 458 LINE",
"50 370 LINE",
"160 370 LINE",
"160 0 LINE"
);
},
{
closed = 1;
nodes = (
"268 543 OFFCURVE",
"302 591 OFFCURVE",
"382 591 CURVE SMOOTH",
"453 591 OFFCURVE",
"494 523 OFFCURVE",
"504 503 CURVE",
"503 489 OFFCURVE",
"502 474 OFFCURVE",
"502 458 CURVE",
"268 458 LINE"
);
}
);
width = 901;
}
);
leftKerningGroup = f;
note = ff;
rightKerningGroup = f;
},
{
glyphname = f_f_i;
lastChange = "2018-02-09 15:44:29 +0000";
layers = (
{
layerId = "36D41E8E-F531-4154-A930-CD44EA9C85A7";
paths = (
{
closed = 1;
nodes = (
"268 0 LINE",
"268 370 LINE",
"502 370 LINE",
"502 0 LINE",
"610 0 LINE",
"610 370 LINE",
"849 370 LINE",
"849 78 LINE",
"729 78 LINE",
"729 0 LINE",
"1077 0 LINE",
"1077 78 LINE",
"957 78 LINE",
"957 458 LINE",
"610 458 LINE",
"610 579 OFFCURVE",
"657 621 OFFCURVE",
"737 621 CURVE SMOOTH",
"817 621 OFFCURVE",
"868 567 OFFCURVE",
"868 567 CURVE",
"868 663 LINE",
"868 663 OFFCURVE",
"832 717 OFFCURVE",
"722 717 CURVE SMOOTH",
"639 717 OFFCURVE",
"572 678 OFFCURVE",
"535 608 CURVE",
"519 633 OFFCURVE",
"475 687 OFFCURVE",
"379 687 CURVE SMOOTH",
"250 687 OFFCURVE",
"160 596 OFFCURVE",
"160 458 CURVE",
"50 458 LINE",
"50 370 LINE",
"160 370 LINE",
"160 0 LINE"
);
},
{
closed = 1;
nodes = (
"268 543 OFFCURVE",
"302 591 OFFCURVE",
"382 591 CURVE SMOOTH",
"453 591 OFFCURVE",
"494 523 OFFCURVE",
"504 503 CURVE",
"503 489 OFFCURVE",
"502 474 OFFCURVE",
"502 458 CURVE",
"268 458 LINE"
);
}
);
width = 1127;
}
);
leftKerningGroup = f;
note = ffi;
rightKerningGroup = I.ss01;
},
{
glyphname = f_f_l;
lastChange = "2018-02-09 15:44:29 +0000";
layers = (
{
layerId = "36D41E8E-F531-4154-A930-CD44EA9C85A7";
paths = (
{
closed = 1;
nodes = (
"268 0 LINE",
"268 370 LINE",
"502 370 LINE",
"502 0 LINE",
"610 0 LINE",
"610 370 LINE",
"773 370 LINE",
"773 458 LINE",
"610 458 LINE",
"610 579 OFFCURVE",
"662 621 OFFCURVE",
"742 621 CURVE SMOOTH",
"833 621 OFFCURVE",
"855 563 OFFCURVE",
"855 563 CURVE",
"855 0 LINE",
"963 0 LINE",
"963 588 LINE",
"961 589 LINE",
"963 590 LINE",
"963 590 OFFCURVE",
"915 717 OFFCURVE",
"737 717 CURVE SMOOTH",
"653 717 OFFCURVE",
"579 677 OFFCURVE",
"537 604 CURVE",
"524 627 OFFCURVE",
"480 687 OFFCURVE",
"379 687 CURVE SMOOTH",
"250 687 OFFCURVE",
"160 596 OFFCURVE",
"160 458 CURVE",
"50 458 LINE",
"50 370 LINE",
"160 370 LINE",
"160 0 LINE"
);
},
{
closed = 1;
nodes = (
"268 543 OFFCURVE",
"302 591 OFFCURVE",
"382 591 CURVE SMOOTH",
"453 591 OFFCURVE",
"494 522 OFFCURVE",
"504 502 CURVE",
"502 488 OFFCURVE",
"502 473 OFFCURVE",
"502 458 CURVE",
"268 458 LINE"
);
}
);
width = 1043;
}
);
leftKerningGroup = f;
note = ffl;
rightKerningGroup = l;
},
{
color = 3;
glyphname = fi;
lastChange = "2018-02-09 15:44:29 +0000";
layers = (
{
layerId = "36D41E8E-F531-4154-A930-CD44EA9C85A7";
paths = (
{
closed = 1;
nodes = (
"268 0 LINE",
"268 370 LINE",
"507 370 LINE",
"507 78 LINE",
"387 78 LINE",
"387 0 LINE",
"735 0 LINE",
"735 78 LINE",
"615 78 LINE",
"615 458 LINE",
"268 458 LINE",
"268 566 OFFCURVE",
"340 621 OFFCURVE",
"436 621 CURVE SMOOTH",
"557 621 OFFCURVE",
"608 527 OFFCURVE",
"608 527 CURVE",
"608 635 LINE",
"608 635 OFFCURVE",
"574 717 OFFCURVE",
"429 717 CURVE SMOOTH",
"285 717 OFFCURVE",
"160 623 OFFCURVE",
"160 458 CURVE",
"50 458 LINE",
"50 370 LINE",
"160 370 LINE",
"160 0 LINE"
);
}
);
width = 785;
}
);
leftKerningGroup = f;
note = fi;
rightKerningGroup = I.ss01;
unicode = FB01;
},
{
color = 3;
glyphname = fl;
lastChange = "2018-02-09 15:44:29 +0000";
layers = (
{
layerId = "36D41E8E-F531-4154-A930-CD44EA9C85A7";
paths = (
{
closed = 1;
nodes = (
"268 0 LINE",
"268 370 LINE",
"431 370 LINE",
"431 458 LINE",
"268 458 LINE",
"268 579 OFFCURVE",
"320 621 OFFCURVE",
"400 621 CURVE SMOOTH",
"491 621 OFFCURVE",
"513 563 OFFCURVE",
"513 563 CURVE",
"513 0 LINE",
"621 0 LINE",
"621 588 LINE",
"619 589 LINE",
"621 590 LINE",
"621 590 OFFCURVE",
"573 717 OFFCURVE",
"395 717 CURVE SMOOTH",
"266 717 OFFCURVE",
"160 623 OFFCURVE",
"160 458 CURVE",
"50 458 LINE",
"50 370 LINE",
"160 370 LINE",
"160 0 LINE"
);
}
);
width = 701;
}
);
leftKerningGroup = f;
note = fl;
rightKerningGroup = l;
unicode = FB02;
},
{
glyphname = S_R.alt;
lastChange = "2018-02-09 15:44:29 +0000";
layers = (
{
layerId = "36D41E8E-F531-4154-A930-CD44EA9C85A7";
paths = (
{
closed = 1;
nodes = (
"556 0 LINE",
"510 62 LINE",
"635 270 LINE",
"843 0 LINE",
"992 0 LINE",
"742 308 LINE",
"833 329 OFFCURVE",
"900 405 OFFCURVE",
"900 502 CURVE SMOOTH",
"900 616 OFFCURVE",
"814 714 OFFCURVE",
"694 714 CURVE",
"694 606 LINE",
"746 606 OFFCURVE",
"789 552 OFFCURVE",
"789 498 CURVE SMOOTH",
"789 444 OFFCURVE",
"746 390 OFFCURVE",
"694 390 CURVE SMOOTH",
"670 390 OFFCURVE",
"647 400 OFFCURVE",
"630 416 CURVE",
"618 431 LINE",
"440 156 LINE",
"181 508 LINE",
"180 508 LINE",
"180 560 OFFCURVE",
"224 602 OFFCURVE",
"278 602 CURVE SMOOTH",
"332 602 OFFCURVE",
"376 560 OFFCURVE",
"376 508 CURVE",
"484 508 LINE",
"484 622 OFFCURVE",
"387 714 OFFCURVE",
"273 714 CURVE SMOOTH",
"146 714 OFFCURVE",
"49 607 OFFCURVE",
"49 493 CURVE",
"374 53 LINE",
"340 0 LINE"
);
}
);
width = 1007;
}
);
leftKerningGroup = S.ss01;
note = S_R.alt;
rightKerningGroup = K;
},
{
glyphname = ordfeminine;
lastChange = "2018-03-01 16:25:51 +0000";
layers = (
{
anchors = (
{
name = ogonek;
position = "{332, 255}";
},
{
name = top;
position = "{192, 519}";
}
);
layerId = "36D41E8E-F531-4154-A930-CD44EA9C85A7";
paths = (
{
closed = 1;
nodes = (
"222 246 OFFCURVE",
"252 260 OFFCURVE",
"261 281 CURVE",
"260 254 LINE",
"336 254 LINE",
"337 519 LINE",
"261 519 LINE",
"261 494 LINE",
"252 513 OFFCURVE",
"222 527 OFFCURVE",
"188 527 CURVE SMOOTH",
"107 527 OFFCURVE",
"50 464 OFFCURVE",
"50 386 CURVE SMOOTH",
"50 309 OFFCURVE",
"107 246 OFFCURVE",
"188 246 CURVE SMOOTH"
);
},
{
closed = 1;
nodes = (
"155 318 OFFCURVE",
"127 349 OFFCURVE",
"127 387 CURVE SMOOTH",
"127 425 OFFCURVE",
"155 455 OFFCURVE",
"192 455 CURVE SMOOTH",
"229 455 OFFCURVE",
"259 430 OFFCURVE",
"259 387 CURVE SMOOTH",
"259 343 OFFCURVE",
"229 318 OFFCURVE",
"192 318 CURVE SMOOTH"
);
}
);
width = 387;
}
);
unicode = 00AA;
},
{
glyphname = ordmasculine;
lastChange = "2018-03-01 16:25:54 +0000";
layers = (
{
anchors = (
{
name = "#exit";
position = "{287, 256}";
},
{
name = center;
position = "{195, 388}";
},
{
name = top;
position = "{195, 521}";
}
);
layerId = "36D41E8E-F531-4154-A930-CD44EA9C85A7";
paths = (
{
closed = 1;
nodes = (
"275 248 OFFCURVE",
"340 311 OFFCURVE",
"340 388 CURVE SMOOTH",
"340 466 OFFCURVE",
"275 529 OFFCURVE",
"195 529 CURVE SMOOTH",
"114 529 OFFCURVE",
"50 466 OFFCURVE",
"50 388 CURVE SMOOTH",
"50 311 OFFCURVE",
"114 248 OFFCURVE",
"195 248 CURVE SMOOTH"
);
},
{
closed = 1;
nodes = (
"155 321 OFFCURVE",
"126 351 OFFCURVE",
"126 388 CURVE SMOOTH",
"126 426 OFFCURVE",
"155 457 OFFCURVE",
"195 457 CURVE SMOOTH",
"234 457 OFFCURVE",
"264 426 OFFCURVE",
"264 388 CURVE SMOOTH",
"264 351 OFFCURVE",
"234 321 OFFCURVE",
"195 321 CURVE SMOOTH"
);
}
);
width = 390;
}
);
unicode = 00BA;
},
{
glyphname = Alpha;
lastChange = "2018-03-11 15:35:45 +0000";
layers = (
{
layerId = "36D41E8E-F531-4154-A930-CD44EA9C85A7";
paths = (
{
closed = 1;
nodes = (
"129 0 LINE",
"197 161 LINE",
"529 161 LINE",
"595 0 LINE",
"722 0 LINE",
"421 679 LINE",
"307 679 LINE",
"6 0 LINE"
);
},
{
closed = 1;
nodes = (
"364 563 LINE",
"489 263 LINE",
"237 263 LINE"
);
}
);
width = 728;
}
);
leftKerningGroup = A;
rightKerningGroup = A;
unicode = 0391;
},
{
glyphname = Beta;
lastChange = "2018-02-09 15:44:29 +0000";
layers = (
{
layerId = "36D41E8E-F531-4154-A930-CD44EA9C85A7";
paths = (
{
closed = 1;
nodes = (
"386 0 LINE SMOOTH",
"520 0 OFFCURVE",
"626 58 OFFCURVE",
"626 206 CURVE SMOOTH",
"626 293 OFFCURVE",
"570 359 OFFCURVE",
"478 369 CURVE",
"540 380 OFFCURVE",
"589 425 OFFCURVE",
"589 504 CURVE SMOOTH",
"589 628 OFFCURVE",
"511 679 OFFCURVE",
"368 679 CURVE SMOOTH",
"90 679 LINE",
"90 0 LINE"
);
},
{
closed = 1;
nodes = (
"197 311 LINE",
"378 311 LINE SMOOTH",
"434 311 OFFCURVE",
"511 299 OFFCURVE",
"511 208 CURVE SMOOTH",
"511 117 OFFCURVE",
"434 102 OFFCURVE",
"378 102 CURVE SMOOTH",
"197 102 LINE"
);
},
{
closed = 1;
nodes = (
"197 577 LINE",
"354 577 LINE SMOOTH",
"409 577 OFFCURVE",
"482 577 OFFCURVE",
"482 496 CURVE SMOOTH",
"482 412 OFFCURVE",
"404 408 OFFCURVE",
"348 408 CURVE SMOOTH",
"197 408 LINE"
);
}
);
width = 676;
}
);
rightKerningGroup = B;
unicode = 0392;
},
{
glyphname = Gamma;
lastChange = "2018-03-05 10:52:16 +0000";
layers = (
{
layerId = "36D41E8E-F531-4154-A930-CD44EA9C85A7";
paths = (
{
closed = 1;
nodes = (
"198 0 LINE",
"198 577 LINE",
"594 577 LINE",
"594 679 LINE",
"90 679 LINE",
"90 0 LINE"
);
}
);
width = 654;
}
);
rightKerningGroup = T;
unicode = 0393;
},
{
glyphname = Epsilon;
lastChange = "2018-02-09 15:44:29 +0000";
layers = (
{
layerId = "36D41E8E-F531-4154-A930-CD44EA9C85A7";
paths = (
{
closed = 1;
nodes = (
"592 0 LINE",
"592 102 LINE",
"198 102 LINE",
"198 311 LINE",
"507 311 LINE",
"507 413 LINE",
"198 413 LINE",
"198 577 LINE",
"586 577 LINE",
"586 679 LINE",
"90 679 LINE",
"90 0 LINE"
);
}
);
width = 647;
}
);
rightKerningGroup = E;
unicode = 0395;
},
{
glyphname = Zeta;
lastChange = "2018-02-09 15:44:29 +0000";
layers = (
{
layerId = "36D41E8E-F531-4154-A930-CD44EA9C85A7";
paths = (
{
closed = 1;
nodes = (
"584 0 LINE",
"584 102 LINE",
"171 102 LINE",
"571 577 LINE",
"571 679 LINE",
"49 679 LINE",
"49 577 LINE",
"432 577 LINE",
"30 102 LINE",
"30 0 LINE"
);
}
);
width = 614;
}
);
leftKerningGroup = Z;
rightKerningGroup = Z;
unicode = 0396;
},
{
glyphname = Eta;
lastChange = "2018-02-09 15:44:29 +0000";
layers = (
{
layerId = "36D41E8E-F531-4154-A930-CD44EA9C85A7";
paths = (
{
closed = 1;
nodes = (
"199 0 LINE",
"199 311 LINE",
"553 311 LINE",
"553 0 LINE",
"662 0 LINE",
"662 679 LINE",
"553 679 LINE",
"553 413 LINE",
"199 413 LINE",
"199 679 LINE",
"90 679 LINE",
"90 0 LINE"
);
}
);
width = 752;
}
);
unicode = 0397;
},
{
glyphname = Theta;
lastChange = "2018-03-05 10:52:59 +0000";
layers = (
{
layerId = "36D41E8E-F531-4154-A930-CD44EA9C85A7";
paths = (
{
closed = 1;
nodes = (
"609 -15 OFFCURVE",
"753 144 OFFCURVE",
"753 340 CURVE SMOOTH",
"753 536 OFFCURVE",
"609 695 OFFCURVE",
"396 695 CURVE SMOOTH",
"183 695 OFFCURVE",
"40 536 OFFCURVE",
"40 340 CURVE SMOOTH",
"40 144 OFFCURVE",
"183 -15 OFFCURVE",
"396 -15 CURVE SMOOTH"
);
},
{
closed = 1;
nodes = (
"256 88 OFFCURVE",
"166 183 OFFCURVE",
"153 309 CURVE",
"638 309 LINE",
"626 183 OFFCURVE",
"536 88 OFFCURVE",
"396 88 CURVE SMOOTH"
);
},
{
closed = 1;
nodes = (
"186 517 OFFCURVE",
"271 593 OFFCURVE",
"396 593 CURVE SMOOTH",
"521 593 OFFCURVE",
"605 517 OFFCURVE",
"631 411 CURVE",
"160 411 LINE"
);
}
);
width = 793;
}
);
leftKerningGroup = "ronde-cap";
rightKerningGroup = "ronde-cap";
unicode = 0398;
},
{
glyphname = Iota;
lastChange = "2018-02-09 15:44:29 +0000";
layers = (
{
layerId = "36D41E8E-F531-4154-A930-CD44EA9C85A7";
paths = (
{
closed = 1;
nodes = (
"199 0 LINE",
"199 679 LINE",
"90 679 LINE",
"90 0 LINE"
);
}
);
width = 289;
}
);
unicode = 0399;
},
{
glyphname = Kappa;
lastChange = "2018-02-09 15:44:29 +0000";
layers = (
{
layerId = "36D41E8E-F531-4154-A930-CD44EA9C85A7";
paths = (
{
closed = 1;
nodes = (
"198 0 LINE",
"198 243 LINE",
"291 331 LINE",
"532 0 LINE",
"668 0 LINE",
"368 404 LINE",
"668 679 LINE",
"526 679 LINE",
"198 370 LINE",
"198 679 LINE",
"90 679 LINE",
"90 0 LINE"
);
}
);
width = 682;
}
);
rightKerningGroup = K;
unicode = 039A;
},
{
glyphname = Lambda;
lastChange = "2018-03-05 10:51:58 +0000";
layers = (
{
layerId = "36D41E8E-F531-4154-A930-CD44EA9C85A7";
paths = (
{
closed = 1;
nodes = (
"144 0 LINE",
"365 563 LINE",
"579 0 LINE",
"706 0 LINE",
"422 679 LINE",
"308 679 LINE",
"21 0 LINE"
);
}
);
width = 727;
}
);
leftKerningGroup = A;
leftMetricsKey = A;
rightKerningGroup = A;
rightMetricsKey = A;
unicode = 039B;
},
{
glyphname = Mu;
lastChange = "2018-02-09 15:44:29 +0000";
layers = (
{
layerId = "36D41E8E-F531-4154-A930-CD44EA9C85A7";
paths = (
{
closed = 1;
nodes = (
"198 0 LINE",
"198 530 LINE",
"364 263 LINE",
"465 263 LINE",
"633 530 LINE",
"633 0 LINE",
"741 0 LINE",
"741 679 LINE",
"605 679 LINE",
"414 376 LINE",
"227 679 LINE",
"90 679 LINE",
"90 0 LINE"
);
}
);
width = 831;
}
);
unicode = 039C;
},
{
glyphname = Nu;
lastChange = "2018-02-09 15:44:29 +0000";
layers = (
{
layerId = "36D41E8E-F531-4154-A930-CD44EA9C85A7";
paths = (
{
closed = 1;
nodes = (
"198 0 LINE",
"198 519 LINE",
"561 0 LINE",
"681 0 LINE",
"681 679 LINE",
"573 679 LINE",
"573 169 LINE",
"210 679 LINE",
"90 679 LINE",
"90 0 LINE"
);
}
);
width = 771;
}
);
unicode = 039D;
},
{
glyphname = Xi;
lastChange = "2018-02-09 15:44:29 +0000";
layers = (
{
layerId = "36D41E8E-F531-4154-A930-CD44EA9C85A7";
paths = (
{
closed = 1;
nodes = (
"644 0 LINE",
"644 102 LINE",
"60 102 LINE",
"60 0 LINE"
);
},
{
closed = 1;
nodes = (
"577 301 LINE",
"577 403 LINE",
"128 403 LINE",
"128 301 LINE"
);
},
{
closed = 1;
nodes = (
"629 577 LINE",
"629 679 LINE",
"75 679 LINE",
"75 577 LINE"
);
}
);
width = 704;
}
);
rightKerningGroup = E;
unicode = 039E;
},
{
glyphname = Omicron;
lastChange = "2018-02-09 15:44:29 +0000";
layers = (
{
layerId = "36D41E8E-F531-4154-A930-CD44EA9C85A7";
paths = (
{
closed = 1;
nodes = (
"610 -15 OFFCURVE",
"753 144 OFFCURVE",
"753 340 CURVE SMOOTH",
"753 536 OFFCURVE",
"610 695 OFFCURVE",
"397 695 CURVE SMOOTH",
"184 695 OFFCURVE",
"40 536 OFFCURVE",
"40 340 CURVE SMOOTH",
"40 144 OFFCURVE",
"184 -15 OFFCURVE",
"397 -15 CURVE SMOOTH"
);
},
{
closed = 1;
nodes = (
"245 88 OFFCURVE",
"153 199 OFFCURVE",
"153 340 CURVE SMOOTH",
"153 481 OFFCURVE",
"245 593 OFFCURVE",
"397 593 CURVE SMOOTH",
"548 593 OFFCURVE",
"641 481 OFFCURVE",
"641 340 CURVE SMOOTH",
"641 199 OFFCURVE",
"548 88 OFFCURVE",
"397 88 CURVE SMOOTH"
);
}
);
width = 793;
}
);
leftKerningGroup = "ronde-cap";
rightKerningGroup = "ronde-cap";
unicode = 039F;
},
{
glyphname = Pi;
lastChange = "2018-02-09 15:44:29 +0000";
layers = (
{
layerId = "36D41E8E-F531-4154-A930-CD44EA9C85A7";
paths = (
{
closed = 1;
nodes = (
"198 0 LINE",
"198 577 LINE",
"530 577 LINE",
"530 0 LINE",
"638 0 LINE",
"638 679 LINE",
"90 679 LINE",
"90 0 LINE"
);
}
);
width = 728;
}
);
unicode = 03A0;
},
{
glyphname = Rho;
lastChange = "2018-03-05 10:51:08 +0000";
layers = (
{
layerId = "36D41E8E-F531-4154-A930-CD44EA9C85A7";
paths = (
{
closed = 1;
nodes = (
"198 0 LINE",
"198 183 LINE",
"386 183 LINE SMOOTH",
"542 183 OFFCURVE",
"649 277 OFFCURVE",
"649 431 CURVE SMOOTH",
"649 585 OFFCURVE",
"553 679 OFFCURVE",
"388 679 CURVE SMOOTH",
"90 679 LINE",
"90 0 LINE"
);
},
{
closed = 1;
nodes = (
"197 577 LINE",
"381 577 LINE SMOOTH",
"489 577 OFFCURVE",
"537 523 OFFCURVE",
"537 429 CURVE SMOOTH",
"537 335 OFFCURVE",
"489 283 OFFCURVE",
"381 283 CURVE SMOOTH",
"197 283 LINE"
);
}
);
width = 688;
}
);
leftKerningGroup = P;
rightKerningGroup = P;
unicode = 03A1;
},
{
glyphname = Sigma;
lastChange = "2018-03-05 10:51:42 +0000";
layers = (
{
layerId = "36D41E8E-F531-4154-A930-CD44EA9C85A7";
paths = (
{
closed = 1;
nodes = (
"561 0 LINE",
"561 102 LINE",
"209 102 LINE",
"417 292 LINE",
"417 378 LINE",
"199 577 LINE",
"549 577 LINE",
"549 679 LINE",
"60 679 LINE",
"60 582 LINE",
"323 335 LINE",
"60 97 LINE",
"60 0 LINE"
);
}
);
width = 596;
}
);
leftKerningGroup = X;
rightKerningGroup = E;
unicode = 03A3;
},
{
glyphname = Tau;
lastChange = "2018-02-09 15:44:29 +0000";
layers = (
{
layerId = "36D41E8E-F531-4154-A930-CD44EA9C85A7";
paths = (
{
closed = 1;
nodes = (
"376 0 LINE",
"376 577 LINE",
"614 577 LINE",
"614 679 LINE",
"30 679 LINE",
"30 577 LINE",
"268 577 LINE",
"268 0 LINE"
);
}
);
width = 644;
}
);
leftKerningGroup = T;
rightKerningGroup = T;
unicode = 03A4;
},
{
glyphname = Upsilon;
lastChange = "2018-02-09 15:44:29 +0000";
layers = (
{
anchors = (
{
name = top;
position = "{327, 679}";
}
);
layerId = "36D41E8E-F531-4154-A930-CD44EA9C85A7";
paths = (
{
closed = 1;
nodes = (
"383 0 LINE",
"383 291 LINE",
"646 679 LINE",
"522 679 LINE",
"328 386 LINE",
"133 679 LINE",
"9 679 LINE",
"273 291 LINE",
"273 0 LINE"
);
}
);
width = 655;
}
);
leftKerningGroup = Y;
rightKerningGroup = Y;
unicode = 03A5;
},
{
glyphname = Phi;
lastChange = "2018-02-09 15:44:29 +0000";
layers = (
{
layerId = "36D41E8E-F531-4154-A930-CD44EA9C85A7";
paths = (
{
closed = 1;
nodes = (
"609 -15 OFFCURVE",
"753 144 OFFCURVE",
"753 340 CURVE SMOOTH",
"753 536 OFFCURVE",
"609 695 OFFCURVE",
"396 695 CURVE SMOOTH",
"183 695 OFFCURVE",
"40 536 OFFCURVE",
"40 340 CURVE SMOOTH",
"40 144 OFFCURVE",
"183 -15 OFFCURVE",
"396 -15 CURVE SMOOTH"
);
},
{
closed = 1;
nodes = (
"224 114 OFFCURVE",
"152 216 OFFCURVE",
"152 340 CURVE SMOOTH",
"152 465 OFFCURVE",
"224 566 OFFCURVE",
"345 588 CURVE",
"345 92 LINE"
);
},
{
closed = 1;
nodes = (
"447 588 LINE",
"568 566 OFFCURVE",
"640 465 OFFCURVE",
"640 340 CURVE SMOOTH",
"640 216 OFFCURVE",
"568 114 OFFCURVE",
"447 92 CURVE"
);
}
);
width = 793;
}
);
leftKerningGroup = "ronde-cap";
rightKerningGroup = "ronde-cap";
unicode = 03A6;
},
{
glyphname = Chi;
lastChange = "2018-03-05 10:52:24 +0000";
layers = (
{
layerId = "36D41E8E-F531-4154-A930-CD44EA9C85A7";
paths = (
{
closed = 1;
nodes = (
"163 0 LINE",
"353 269 LINE",
"548 0 LINE",
"680 0 LINE",
"417 358 LINE",
"662 679 LINE",
"530 679 LINE",
"353 437 LINE",
"178 679 LINE",
"46 679 LINE",
"288 358 LINE",
"31 0 LINE"
);
}
);
width = 711;
}
);
leftKerningGroup = X;
rightKerningGroup = X;
unicode = 03A7;
},
{
glyphname = Psi;
lastChange = "2018-03-05 10:52:01 +0000";
layers = (
{
layerId = "36D41E8E-F531-4154-A930-CD44EA9C85A7";
paths = (
{
closed = 1;
nodes = (
"414 0 LINE",
"414 152 LINE",
"549 171 OFFCURVE",
"649 262 OFFCURVE",
"649 422 CURVE SMOOTH",
"649 679 LINE",
"540 679 LINE",
"540 423 LINE SMOOTH",
"540 328 OFFCURVE",
"482 277 OFFCURVE",
"414 259 CURVE",
"414 679 LINE",
"305 679 LINE",
"305 259 LINE",
"238 277 OFFCURVE",
"179 328 OFFCURVE",
"179 423 CURVE SMOOTH",
"179 679 LINE",
"70 679 LINE",
"70 422 LINE SMOOTH",
"70 262 OFFCURVE",
"170 171 OFFCURVE",
"305 152 CURVE",
"305 0 LINE"
);
}
);
width = 719;
}
);
unicode = 03A8;
},
{
glyphname = alpha;
lastChange = "2018-03-05 13:20:30 +0000";
layers = (
{
anchors = (
{
name = top;
position = "{319, 516}";
}
);
layerId = "36D41E8E-F531-4154-A930-CD44EA9C85A7";
paths = (
{
closed = 1;
nodes = (
"373 -15 OFFCURVE",
"458 3 OFFCURVE",
"499 60 CURVE",
"501 39 OFFCURVE",
"504 18 OFFCURVE",
"509 -2 CURVE",
"616 -2 LINE",
"596 83 OFFCURVE",
"583 175 OFFCURVE",
"583 260 CURVE",
"616 518 LINE",
"509 518 LINE",
"506 445 LINE",
"471 505 OFFCURVE",
"377 532 OFFCURVE",
"319 532 CURVE SMOOTH",
"161 532 OFFCURVE",
"40 410 OFFCURVE",
"40 259 CURVE SMOOTH",
"40 108 OFFCURVE",
"161 -15 OFFCURVE",
"319 -15 CURVE SMOOTH"
);
},
{
closed = 1;
nodes = (
"222 81 OFFCURVE",
"146 161 OFFCURVE",
"146 259 CURVE SMOOTH",
"146 357 OFFCURVE",
"222 436 OFFCURVE",
"318 436 CURVE SMOOTH",
"415 436 OFFCURVE",
"491 371 OFFCURVE",
"491 259 CURVE SMOOTH",
"491 146 OFFCURVE",
"415 81 OFFCURVE",
"318 81 CURVE SMOOTH"
);
}
);
width = 676;
}
);
leftKerningGroup = "ronde-min";
leftMetricsKey = a;
rightKerningGroup = alpha;
unicode = 03B1;
},
{
glyphname = beta;
lastChange = "2018-02-09 15:44:29 +0000";
layers = (
{
layerId = "36D41E8E-F531-4154-A930-CD44EA9C85A7";
paths = (
{
closed = 1;
nodes = (
"187 -216 LINE",
"187 24 LINE",
"191 22 LINE SMOOTH",
"213 11 OFFCURVE",
"260 -13 OFFCURVE",
"326 -13 CURVE SMOOTH",
"453 -13 OFFCURVE",
"557 57 OFFCURVE",
"557 190 CURVE SMOOTH",
"557 279 OFFCURVE",
"480 348 OFFCURVE",
"385 368 CURVE",
"460 379 OFFCURVE",
"512 436 OFFCURVE",
"512 515 CURVE SMOOTH",
"512 632 OFFCURVE",
"440 698 OFFCURVE",
"306 698 CURVE SMOOTH",
"165 698 OFFCURVE",
"80 603 OFFCURVE",
"80 462 CURVE SMOOTH",
"80 -216 LINE"
);
},
{
closed = 1;
nodes = (
"261 80 OFFCURVE",
"210 108 OFFCURVE",
"187 131 CURVE",
"187 472 LINE SMOOTH",
"187 563 OFFCURVE",
"246 610 OFFCURVE",
"306 610 CURVE SMOOTH",
"371 610 OFFCURVE",
"410 580 OFFCURVE",
"410 514 CURVE SMOOTH",
"410 430 OFFCURVE",
"339 404 OFFCURVE",
"283 404 CURVE",
"283 313 LINE",
"300 313 LINE SMOOTH",
"371 313 OFFCURVE",
"447 268 OFFCURVE",
"447 187 CURVE SMOOTH",
"447 102 OFFCURVE",
"375 80 OFFCURVE",
"326 80 CURVE SMOOTH"
);
}
);
width = 607;
}
);
rightKerningGroup = german;
unicode = 03B2;
},
{
glyphname = gamma;
lastChange = "2018-03-11 15:35:43 +0000";
layers = (
{
layerId = "36D41E8E-F531-4154-A930-CD44EA9C85A7";
paths = (
{
closed = 1;
nodes = (
"314 -216 LINE",
"314 0 LINE",
"508 517 LINE",
"395 517 LINE",
"259 112 LINE",
"123 517 LINE",
"10 517 LINE",
"204 0 LINE",
"204 -216 LINE"
);
}
);
width = 518;
}
);
leftKerningGroup = "y-greek";
rightKerningGroup = "y-greek";
unicode = 03B3;
},
{
glyphname = delta;
lastChange = "2018-03-05 10:50:29 +0000";
layers = (
{
layerId = "36D41E8E-F531-4154-A930-CD44EA9C85A7";
paths = (
{
closed = 1;
nodes = (
"412 -15 OFFCURVE",
"518 88 OFFCURVE",
"518 216 CURVE SMOOTH",
"518 288 OFFCURVE",
"484 353 OFFCURVE",
"429 396 CURVE",
"229 590 LINE",
"486 590 LINE",
"486 678 LINE",
"97 678 LINE",
"97 590 LINE",
"246 445 LINE",
"129 429 OFFCURVE",
"40 332 OFFCURVE",
"40 216 CURVE SMOOTH",
"40 88 OFFCURVE",
"146 -15 OFFCURVE",
"279 -15 CURVE SMOOTH"
);
},
{
closed = 1;
nodes = (
"206 81 OFFCURVE",
"151 141 OFFCURVE",
"151 216 CURVE SMOOTH",
"151 290 OFFCURVE",
"206 351 OFFCURVE",
"279 351 CURVE SMOOTH",
"352 351 OFFCURVE",
"407 290 OFFCURVE",
"407 216 CURVE SMOOTH",
"407 141 OFFCURVE",
"352 81 OFFCURVE",
"279 81 CURVE SMOOTH"
);
}
);
width = 538;
}
);
leftKerningGroup = "ronde-min";
rightKerningGroup = "ronde-min";
unicode = 03B4;
},
{
glyphname = epsilon;
lastChange = "2018-02-09 15:44:29 +0000";
layers = (
{
anchors = (
{
name = top;
position = "{263, 516}";
}
);
layerId = "36D41E8E-F531-4154-A930-CD44EA9C85A7";
paths = (
{
closed = 1;
nodes = (
"317 -15 OFFCURVE",
"410 5 OFFCURVE",
"447 34 CURVE",
"447 134 LINE",
"447 134 OFFCURVE",
"359 80 OFFCURVE",
"270 80 CURVE SMOOTH",
"209 80 OFFCURVE",
"145 95 OFFCURVE",
"145 154 CURVE SMOOTH",
"145 200 OFFCURVE",
"189 227 OFFCURVE",
"239 227 CURVE SMOOTH",
"334 227 LINE",
"334 315 LINE",
"254 315 LINE SMOOTH",
"200 315 OFFCURVE",
"160 332 OFFCURVE",
"160 379 CURVE SMOOTH",
"160 421 OFFCURVE",
"207 436 OFFCURVE",
"276 436 CURVE SMOOTH",
"337 436 OFFCURVE",
"410 411 OFFCURVE",
"432 395 CURVE",
"432 493 LINE",
"391 520 OFFCURVE",
"326 532 OFFCURVE",
"264 532 CURVE SMOOTH",
"148 532 OFFCURVE",
"58 480 OFFCURVE",
"58 391 CURVE SMOOTH",
"58 333 OFFCURVE",
"106 279 OFFCURVE",
"164 273 CURVE",
"69 253 OFFCURVE",
"40 184 OFFCURVE",
"40 136 CURVE SMOOTH",
"40 30 OFFCURVE",
"132 -15 OFFCURVE",
"264 -15 CURVE SMOOTH"
);
}
);
width = 487;
}
);
leftKerningGroup = reverse;
rightKerningGroup = reverse;
unicode = 03B5;
},
{
glyphname = zeta;
lastChange = "2018-03-05 10:50:32 +0000";
layers = (
{
layerId = "36D41E8E-F531-4154-A930-CD44EA9C85A7";
paths = (
{
closed = 1;
nodes = (
"432 -216 LINE",
"432 102 LINE",
"414 93 OFFCURVE",
"396 77 OFFCURVE",
"335 77 CURVE SMOOTH",
"250 77 OFFCURVE",
"158 149 OFFCURVE",
"158 258 CURVE SMOOTH",
"158 368 OFFCURVE",
"213 462 OFFCURVE",
"431 591 CURVE",
"431 679 LINE",
"80 679 LINE",
"80 591 LINE",
"282 591 LINE",
"163 521 OFFCURVE",
"50 419 OFFCURVE",
"50 258 CURVE SMOOTH",
"50 107 OFFCURVE",
"162 -15 OFFCURVE",
"324 -15 CURVE",
"324 -216 LINE"
);
}
);
width = 472;
}
);
unicode = 03B6;
},
{
glyphname = eta;
lastChange = "2018-02-09 15:44:29 +0000";
layers = (
{
anchors = (
{
name = top;
position = "{351, 516}";
}
);
layerId = "36D41E8E-F531-4154-A930-CD44EA9C85A7";
paths = (
{
closed = 1;
nodes = (
"557 -215 LINE",
"557 318 LINE SMOOTH",
"557 460 OFFCURVE",
"465 533 OFFCURVE",
"350 533 CURVE SMOOTH",
"223 533 OFFCURVE",
"188 453 OFFCURVE",
"188 453 CURVE",
"188 518 LINE",
"80 518 LINE",
"80 0 LINE",
"188 0 LINE",
"188 291 LINE SMOOTH",
"188 388 OFFCURVE",
"259 437 OFFCURVE",
"334 437 CURVE SMOOTH",
"404 437 OFFCURVE",
"449 390 OFFCURVE",
"449 307 CURVE SMOOTH",
"449 -215 LINE"
);
}
);
width = 627;
}
);
rightKerningGroup = n;
unicode = 03B7;
},
{
glyphname = theta;
lastChange = "2018-02-09 15:44:29 +0000";
layers = (
{
layerId = "36D41E8E-F531-4154-A930-CD44EA9C85A7";
paths = (
{
closed = 1;
nodes = (
"444 -15 OFFCURVE",
"508 141 OFFCURVE",
"508 340 CURVE SMOOTH",
"508 540 OFFCURVE",
"444 695 OFFCURVE",
"279 695 CURVE SMOOTH",
"116 695 OFFCURVE",
"50 540 OFFCURVE",
"50 340 CURVE SMOOTH",
"50 141 OFFCURVE",
"114 -15 OFFCURVE",
"279 -15 CURVE SMOOTH"
);
},
{
closed = 1;
nodes = (
"162 77 OFFCURVE",
"154 219 OFFCURVE",
"154 317 CURVE",
"403 317 LINE",
"402 219 OFFCURVE",
"395 77 OFFCURVE",
"279 77 CURVE SMOOTH"
);
},
{
closed = 1;
nodes = (
"159 497 OFFCURVE",
"178 603 OFFCURVE",
"279 603 CURVE SMOOTH",
"379 603 OFFCURVE",
"398 497 OFFCURVE",
"402 405 CURVE",
"155 405 LINE"
);
}
);
width = 558;
}
);
unicode = 03B8;
},
{
glyphname = iota;
lastChange = "2018-02-09 15:44:29 +0000";
layers = (
{
anchors = (
{
name = top;
position = "{134, 516}";
}
);
layerId = "36D41E8E-F531-4154-A930-CD44EA9C85A7";
paths = (
{
closed = 1;
nodes = (
"188 0 LINE",
"188 517 LINE",
"80 517 LINE",
"80 0 LINE"
);
}
);
width = 268;
}
);
unicode = 03B9;
},
{
glyphname = kappa;
lastChange = "2018-02-09 15:44:29 +0000";
layers = (
{
layerId = "36D41E8E-F531-4154-A930-CD44EA9C85A7";
paths = (
{
closed = 1;
nodes = (
"188 0 LINE",
"188 174 LINE",
"265 255 LINE",
"423 0 LINE",
"546 0 LINE",
"334 324 LINE",
"515 517 LINE",
"392 517 LINE",
"188 294 LINE",
"188 517 LINE",
"80 517 LINE",
"80 0 LINE"
);
}
);
width = 546;
}
);
rightKerningGroup = "k-grec";
unicode = 03BA;
},
{
glyphname = lambda;
lastChange = "2018-02-09 15:44:29 +0000";
layers = (
{
layerId = "36D41E8E-F531-4154-A930-CD44EA9C85A7";
paths = (
{
closed = 1;
nodes = (
"133 2 LINE",
"286 391 LINE",
"441 2 LINE",
"554 2 LINE",
"271 679 LINE",
"168 679 LINE",
"234 508 LINE",
"20 2 LINE"
);
}
);
width = 574;
}
);
leftKerningGroup = A;
rightKerningGroup = A;
unicode = 03BB;
},
{
glyphname = nu;
lastChange = "2018-03-05 10:50:09 +0000";
layers = (
{
layerId = "36D41E8E-F531-4154-A930-CD44EA9C85A7";
paths = (
{
closed = 1;
nodes = (
"313 0 LINE",
"518 515 LINE",
"405 515 LINE",
"269 146 LINE",
"133 515 LINE",
"20 515 LINE",
"225 0 LINE"
);
}
);
width = 538;
}
);
leftKerningGroup = "diag-min";
rightKerningGroup = "diag-min";
unicode = 03BD;
},
{
glyphname = xi;
lastChange = "2018-03-05 12:54:13 +0000";
layers = (
{
layerId = "36D41E8E-F531-4154-A930-CD44EA9C85A7";
paths = (
{
closed = 1;
nodes = (
"447 -216 LINE",
"447 105 LINE",
"419 92 OFFCURVE",
"341 80 OFFCURVE",
"277 80 CURVE SMOOTH",
"188 80 OFFCURVE",
"151 128 OFFCURVE",
"151 186 CURVE SMOOTH",
"151 261 OFFCURVE",
"198 310 OFFCURVE",
"308 310 CURVE SMOOTH",
"377 310 LINE",
"377 398 LINE",
"315 398 LINE SMOOTH",
"231 398 OFFCURVE",
"191 458 OFFCURVE",
"191 517 CURVE SMOOTH",
"191 568 OFFCURVE",
"225 603 OFFCURVE",
"290 603 CURVE SMOOTH",
"356 603 OFFCURVE",
"391 572 OFFCURVE",
"424 549 CURVE",
"424 646 LINE",
"391 673 OFFCURVE",
"353 694 OFFCURVE",
"277 694 CURVE SMOOTH",
"156 694 OFFCURVE",
"85 612 OFFCURVE",
"85 520 CURVE SMOOTH",
"85 442 OFFCURVE",
"144 380 OFFCURVE",
"198 364 CURVE",
"120 347 OFFCURVE",
"40 282 OFFCURVE",
"40 187 CURVE SMOOTH",
"40 71 OFFCURVE",
"121 -16 OFFCURVE",
"277 -16 CURVE SMOOTH",
"298 -16 OFFCURVE",
"319 -14 OFFCURVE",
"340 -11 CURVE",
"340 -216 LINE"
);
}
);
width = 477;
}
);
leftKerningGroup = "ronde-min";
rightKerningGroup = c;
unicode = 03BE;
},
{
glyphname = omicron;
lastChange = "2018-02-09 15:44:29 +0000";
layers = (
{
anchors = (
{
name = top;
position = "{323, 516}";
}
);
layerId = "36D41E8E-F531-4154-A930-CD44EA9C85A7";
paths = (
{
closed = 1;
nodes = (
"480 -15 OFFCURVE",
"606 107 OFFCURVE",
"606 258 CURVE SMOOTH",
"606 409 OFFCURVE",
"480 532 OFFCURVE",
"323 532 CURVE SMOOTH",
"166 532 OFFCURVE",
"40 409 OFFCURVE",
"40 258 CURVE SMOOTH",
"40 107 OFFCURVE",
"166 -15 OFFCURVE",
"323 -15 CURVE SMOOTH"
);
},
{
closed = 1;
nodes = (
"221 82 OFFCURVE",
"147 161 OFFCURVE",
"147 258 CURVE SMOOTH",
"147 356 OFFCURVE",
"221 435 OFFCURVE",
"323 435 CURVE SMOOTH",
"425 435 OFFCURVE",
"499 356 OFFCURVE",
"499 258 CURVE SMOOTH",
"499 161 OFFCURVE",
"425 82 OFFCURVE",
"323 82 CURVE SMOOTH"
);
}
);
width = 646;
}
);
leftKerningGroup = "ronde-min";
rightKerningGroup = "ronde-min";
unicode = 03BF;
},
{
glyphname = pi;
lastChange = "2018-02-09 15:44:29 +0000";
layers = (
{
layerId = "36D41E8E-F531-4154-A930-CD44EA9C85A7";
paths = (
{
closed = 1;
nodes = (
"259 0 LINE",
"259 429 LINE",
"394 429 LINE",
"394 0 LINE",
"502 0 LINE",
"502 429 LINE",
"610 429 LINE",
"610 517 LINE",
"40 517 LINE",
"40 429 LINE",
"151 429 LINE",
"151 0 LINE"
);
}
);
width = 650;
}
);
leftKerningGroup = tau;
rightKerningGroup = tau;
unicode = 03C0;
},
{
glyphname = rho;
lastChange = "2018-02-09 15:44:29 +0000";
layers = (
{
layerId = "36D41E8E-F531-4154-A930-CD44EA9C85A7";
paths = (
{
closed = 1;
nodes = (
"178 -216 LINE",
"178 57 LINE",
"221 -1 OFFCURVE",
"296 -15 OFFCURVE",
"352 -15 CURVE SMOOTH",
"510 -15 OFFCURVE",
"622 108 OFFCURVE",
"622 259 CURVE SMOOTH",
"622 410 OFFCURVE",
"505 532 OFFCURVE",
"353 532 CURVE SMOOTH",
"174 532 OFFCURVE",
"70 412 OFFCURVE",
"70 241 CURVE SMOOTH",
"70 -216 LINE"
);
},
{
closed = 1;
nodes = (
"258 81 OFFCURVE",
"175 146 OFFCURVE",
"175 259 CURVE SMOOTH",
"175 371 OFFCURVE",
"258 436 OFFCURVE",
"355 436 CURVE SMOOTH",
"451 436 OFFCURVE",
"514 357 OFFCURVE",
"514 259 CURVE SMOOTH",
"514 161 OFFCURVE",
"451 81 OFFCURVE",
"355 81 CURVE SMOOTH"
);
}
);
width = 662;
}
);
rightKerningGroup = "ronde-min";
unicode = 03C1;
},
{
glyphname = sigma;
lastChange = "2018-02-09 15:44:29 +0000";
layers = (
{
layerId = "36D41E8E-F531-4154-A930-CD44EA9C85A7";
paths = (
{
closed = 1;
nodes = (
"482 -15 OFFCURVE",
"594 100 OFFCURVE",
"594 251 CURVE SMOOTH",
"594 302 OFFCURVE",
"576 405 OFFCURVE",
"489 429 CURVE",
"620 429 LINE",
"620 517 LINE",
"321 517 LINE SMOOTH",
"117 517 OFFCURVE",
"40 370 OFFCURVE",
"40 251 CURVE SMOOTH",
"40 100 OFFCURVE",
"153 -15 OFFCURVE",
"317 -15 CURVE SMOOTH"
);
},
{
closed = 1;
nodes = (
"208 82 OFFCURVE",
"147 154 OFFCURVE",
"147 251 CURVE SMOOTH",
"147 349 OFFCURVE",
"206 421 OFFCURVE",
"317 421 CURVE SMOOTH",
"419 421 OFFCURVE",
"488 349 OFFCURVE",
"488 251 CURVE SMOOTH",
"488 154 OFFCURVE",
"427 82 OFFCURVE",
"317 82 CURVE SMOOTH"
);
}
);
width = 670;
}
);
leftKerningGroup = "ronde-min";
rightKerningGroup = sigma;
unicode = 03C3;
},
{
glyphname = tau;
lastChange = "2018-02-09 15:44:29 +0000";
layers = (
{
layerId = "36D41E8E-F531-4154-A930-CD44EA9C85A7";
paths = (
{
closed = 1;
nodes = (
"336 0 LINE",
"336 429 LINE",
"521 429 LINE",
"521 517 LINE",
"40 517 LINE",
"40 429 LINE",
"228 429 LINE",
"228 0 LINE"
);
}
);
width = 561;
}
);
leftKerningGroup = tau;
rightKerningGroup = tau;
unicode = 03C4;
},
{
glyphname = upsilon;
lastChange = "2018-02-09 15:44:29 +0000";
layers = (
{
anchors = (
{
name = top;
position = "{305, 516}";
}
);
layerId = "36D41E8E-F531-4154-A930-CD44EA9C85A7";
paths = (
{
closed = 1;
nodes = (
"370 -16 OFFCURVE",
"540 -11 OFFCURVE",
"540 209 CURVE SMOOTH",
"540 517 LINE",
"432 517 LINE",
"432 204 LINE SMOOTH",
"432 186 OFFCURVE",
"427 79 OFFCURVE",
"305 79 CURVE SMOOTH",
"183 79 OFFCURVE",
"178 186 OFFCURVE",
"178 204 CURVE SMOOTH",
"178 517 LINE",
"70 517 LINE",
"70 209 LINE SMOOTH",
"70 -11 OFFCURVE",
"240 -16 OFFCURVE",
"305 -16 CURVE SMOOTH"
);
}
);
width = 610;
}
);
leftKerningGroup = u;
rightKerningGroup = u;
unicode = 03C5;
},
{
glyphname = phi;
lastChange = "2018-02-09 15:44:29 +0000";
layers = (
{
layerId = "36D41E8E-F531-4154-A930-CD44EA9C85A7";
paths = (
{
closed = 1;
nodes = (
"425 -216 LINE",
"425 -15 LINE",
"566 -13 OFFCURVE",
"704 100 OFFCURVE",
"704 249 CURVE SMOOTH",
"704 399 OFFCURVE",
"591 518 OFFCURVE",
"421 518 CURVE SMOOTH",
"367 518 OFFCURVE",
"317 515 OFFCURVE",
"317 515 CURVE",
"317 82 LINE",
"218 85 OFFCURVE",
"147 155 OFFCURVE",
"147 250 CURVE SMOOTH",
"147 338 OFFCURVE",
"191 387 OFFCURVE",
"261 413 CURVE",
"261 508 LINE",
"139 480 OFFCURVE",
"40 387 OFFCURVE",
"40 250 CURVE SMOOTH",
"40 101 OFFCURVE",
"163 -12 OFFCURVE",
"317 -15 CURVE",
"317 -216 LINE"
);
},
{
closed = 1;
nodes = (
"425 430 LINE",
"525 428 OFFCURVE",
"597 368 OFFCURVE",
"597 250 CURVE SMOOTH",
"597 154 OFFCURVE",
"525 84 OFFCURVE",
"425 82 CURVE"
);
}
);
width = 744;
}
);
leftKerningGroup = "ronde-min";
rightKerningGroup = "ronde-min";
unicode = 03C6;
},
{
glyphname = chi;
lastChange = "2018-02-09 15:44:29 +0000";
layers = (
{
layerId = "36D41E8E-F531-4154-A930-CD44EA9C85A7";
paths = (
{
closed = 1;
nodes = (
"118 -216 LINE",
"262 90 LINE",
"407 -216 LINE",
"525 -216 LINE",
"331 178 LINE",
"492 517 LINE",
"374 517 LINE",
"266 269 LINE",
"150 517 LINE",
"33 517 LINE",
"194 184 LINE",
"0 -216 LINE"
);
}
);
width = 525;
}
);
leftKerningGroup = X;
rightKerningGroup = X;
unicode = 03C7;
},
{
glyphname = psi;
lastChange = "2018-02-09 15:44:29 +0000";
layers = (
{
layerId = "36D41E8E-F531-4154-A930-CD44EA9C85A7";
paths = (
{
closed = 1;
nodes = (
"413 -216 LINE",
"413 -16 LINE",
"478 -16 OFFCURVE",
"647 6 OFFCURVE",
"647 209 CURVE SMOOTH",
"647 517 LINE",
"539 517 LINE",
"539 206 LINE SMOOTH",
"539 129 OFFCURVE",
"487 81 OFFCURVE",
"413 79 CURVE",
"413 517 LINE",
"305 517 LINE",
"305 79 LINE",
"183 79 OFFCURVE",
"178 186 OFFCURVE",
"178 204 CURVE SMOOTH",
"178 517 LINE",
"70 517 LINE",
"70 209 LINE SMOOTH",
"70 5 OFFCURVE",
"240 -16 OFFCURVE",
"305 -16 CURVE",
"305 -216 LINE"
);
}
);
width = 717;
}
);
unicode = 03C8;
},
{
glyphname = omega;
lastChange = "2018-02-09 15:44:29 +0000";
layers = (
{
anchors = (
{
name = top;
position = "{341, 516}";
}
);
layerId = "36D41E8E-F531-4154-A930-CD44EA9C85A7";
paths = (
{
closed = 1;
nodes = (
"276 -16 OFFCURVE",
"323 29 OFFCURVE",
"341 81 CURVE",
"359 29 OFFCURVE",
"406 -16 OFFCURVE",
"474 -16 CURVE SMOOTH",
"574 -16 OFFCURVE",
"642 96 OFFCURVE",
"642 297 CURVE SMOOTH",
"642 425 OFFCURVE",
"607 517 OFFCURVE",
"607 517 CURVE SMOOTH",
"503 517 LINE",
"516 466 OFFCURVE",
"533 383 OFFCURVE",
"533 294 CURVE SMOOTH",
"533 205 OFFCURVE",
"523 79 OFFCURVE",
"463 79 CURVE SMOOTH",
"416 79 OFFCURVE",
"395 118 OFFCURVE",
"395 215 CURVE SMOOTH",
"395 399 LINE",
"287 399 LINE",
"287 215 LINE SMOOTH",
"287 118 OFFCURVE",
"266 79 OFFCURVE",
"219 79 CURVE SMOOTH",
"159 79 OFFCURVE",
"149 205 OFFCURVE",
"149 294 CURVE SMOOTH",
"149 383 OFFCURVE",
"166 466 OFFCURVE",
"179 517 CURVE",
"75 517 LINE SMOOTH",
"75 517 OFFCURVE",
"40 425 OFFCURVE",
"40 297 CURVE SMOOTH",
"40 96 OFFCURVE",
"108 -16 OFFCURVE",
"208 -16 CURVE SMOOTH"
);
}
);
width = 682;
}
);
leftKerningGroup = "w-greek";
rightKerningGroup = "w-greek";
unicode = 03C9;
},
{
glyphname = zero;
lastChange = "2018-02-09 15:44:29 +0000";
layers = (
{
layerId = "36D41E8E-F531-4154-A930-CD44EA9C85A7";
paths = (
{
closed = 1;
nodes = (
"473 -18 OFFCURVE",
"553 146 OFFCURVE",
"550 340 CURVE",
"553 534 OFFCURVE",
"473 692 OFFCURVE",
"301 695 CURVE SMOOTH",
"129 692 OFFCURVE",
"47 534 OFFCURVE",
"50 340 CURVE SMOOTH",
"47 146 OFFCURVE",
"129 -18 OFFCURVE",
"301 -15 CURVE SMOOTH"
);
},
{
closed = 1;
nodes = (
"183 88 OFFCURVE",
"162 232 OFFCURVE",
"162 340 CURVE SMOOTH",
"162 447 OFFCURVE",
"183 593 OFFCURVE",
"301 593 CURVE SMOOTH",
"419 593 OFFCURVE",
"438 447 OFFCURVE",
"438 340 CURVE SMOOTH",
"438 232 OFFCURVE",
"419 88 OFFCURVE",
"301 88 CURVE SMOOTH"
);
}
);
width = 600;
}
);
note = zero;
unicode = 0030;
},
{
glyphname = one;
lastChange = "2018-03-05 12:14:07 +0000";
layers = (
{
anchors = (
{
name = ogonek;
position = "{400, 10}";
},
{
name = top;
position = "{285, 679}";
}
);
layerId = "36D41E8E-F531-4154-A930-CD44EA9C85A7";
paths = (
{
closed = 1;
nodes = (
"481 0 LINE",
"481 96 LINE",
"339 96 LINE",
"339 679 LINE",
"70 679 LINE",
"70 584 LINE",
"230 584 LINE",
"230 96 LINE",
"70 96 LINE",
"70 0 LINE"
);
}
);
width = 531;
}
);
note = one;
unicode = 0031;
},
{
glyphname = two;
lastChange = "2018-02-09 15:44:29 +0000";
layers = (
{
layerId = "36D41E8E-F531-4154-A930-CD44EA9C85A7";
paths = (
{
closed = 1;
nodes = (
"526 0 LINE",
"526 96 LINE",
"265 96 LINE",
"473 344 LINE",
"508 381 OFFCURVE",
"529 431 OFFCURVE",
"529 486 CURVE SMOOTH",
"529 603 OFFCURVE",
"430 699 OFFCURVE",
"308 699 CURVE SMOOTH",
"186 699 OFFCURVE",
"87 603 OFFCURVE",
"87 486 CURVE SMOOTH",
"87 375 OFFCURVE",
"174 285 OFFCURVE",
"286 274 CURVE",
"60 1 LINE",
"120 1 LINE",
"119 0 LINE"
);
},
{
closed = 1;
nodes = (
"245 376 OFFCURVE",
"198 425 OFFCURVE",
"198 486 CURVE SMOOTH",
"198 547 OFFCURVE",
"245 596 OFFCURVE",
"308 596 CURVE SMOOTH",
"371 596 OFFCURVE",
"418 547 OFFCURVE",
"418 486 CURVE SMOOTH",
"418 425 OFFCURVE",
"371 376 OFFCURVE",
"308 376 CURVE SMOOTH"
);
}
);
width = 599;
}
);
note = two;
unicode = 0032;
},
{
glyphname = three;
lastChange = "2018-02-09 15:44:29 +0000";
layers = (
{
layerId = "36D41E8E-F531-4154-A930-CD44EA9C85A7";
paths = (
{
closed = 1;
nodes = (
"432 -15 OFFCURVE",
"536 85 OFFCURVE",
"536 209 CURVE SMOOTH",
"536 302 OFFCURVE",
"478 382 OFFCURVE",
"394 416 CURVE",
"393 416 LINE",
"483 679 LINE",
"97 679 LINE",
"97 584 LINE",
"342 584 LINE",
"255 320 LINE",
"270 326 OFFCURVE",
"286 329 OFFCURVE",
"303 329 CURVE SMOOTH",
"372 329 OFFCURVE",
"423 276 OFFCURVE",
"423 209 CURVE SMOOTH",
"423 143 OFFCURVE",
"372 90 OFFCURVE",
"303 90 CURVE SMOOTH",
"234 90 OFFCURVE",
"183 143 OFFCURVE",
"183 209 CURVE",
"70 209 LINE",
"70 85 OFFCURVE",
"174 -15 OFFCURVE",
"303 -15 CURVE SMOOTH"
);
}
);
width = 586;
}
);
note = three;
unicode = 0033;
},
{
glyphname = four;
lastChange = "2018-02-09 15:44:29 +0000";
layers = (
{
layerId = "36D41E8E-F531-4154-A930-CD44EA9C85A7";
paths = (
{
closed = 1;
nodes = (
"494 1 LINE",
"494 321 LINE",
"223 321 LINE",
"420 679 LINE",
"303 679 LINE",
"50 227 LINE",
"377 227 LINE",
"377 1 LINE"
);
}
);
width = 574;
}
);
note = four;
unicode = 0034;
},
{
glyphname = five;
lastChange = "2018-02-09 15:44:29 +0000";
layers = (
{
layerId = "36D41E8E-F531-4154-A930-CD44EA9C85A7";
paths = (
{
closed = 1;
nodes = (
"412 -15 OFFCURVE",
"516 85 OFFCURVE",
"516 209 CURVE SMOOTH",
"516 302 OFFCURVE",
"458 382 OFFCURVE",
"374 416 CURVE SMOOTH",
"346 428 OFFCURVE",
"315 434 OFFCURVE",
"283 434 CURVE",
"283 584 LINE",
"509 584 LINE",
"509 679 LINE",
"174 679 LINE",
"174 336 LINE",
"226 315 LINE",
"242 324 OFFCURVE",
"261 329 OFFCURVE",
"283 329 CURVE SMOOTH",
"352 329 OFFCURVE",
"403 276 OFFCURVE",
"403 209 CURVE SMOOTH",
"403 143 OFFCURVE",
"352 90 OFFCURVE",
"283 90 CURVE SMOOTH",
"214 90 OFFCURVE",
"163 143 OFFCURVE",
"163 209 CURVE",
"50 209 LINE",
"50 85 OFFCURVE",
"154 -15 OFFCURVE",
"283 -15 CURVE SMOOTH"
);
}
);
width = 566;
}
);
note = five;
unicode = 0035;
},
{
glyphname = six;
lastChange = "2018-02-09 15:44:29 +0000";
layers = (
{
layerId = "36D41E8E-F531-4154-A930-CD44EA9C85A7";
paths = (
{
closed = 1;
nodes = (
"432 -14 OFFCURVE",
"536 86 OFFCURVE",
"536 210 CURVE SMOOTH",
"536 327 OFFCURVE",
"444 423 OFFCURVE",
"326 434 CURVE",
"518 679 LINE",
"384 679 LINE",
"134 365 LINE",
"94 324 OFFCURVE",
"70 270 OFFCURVE",
"70 210 CURVE SMOOTH",
"70 86 OFFCURVE",
"174 -14 OFFCURVE",
"303 -14 CURVE SMOOTH"
);
},
{
closed = 1;
nodes = (
"234 91 OFFCURVE",
"183 144 OFFCURVE",
"183 210 CURVE SMOOTH",
"183 277 OFFCURVE",
"234 330 OFFCURVE",
"303 330 CURVE SMOOTH",
"372 330 OFFCURVE",
"423 277 OFFCURVE",
"423 210 CURVE SMOOTH",
"423 144 OFFCURVE",
"372 91 OFFCURVE",
"303 91 CURVE SMOOTH"
);
}
);
width = 606;
}
);
note = six;
unicode = 0036;
},
{
glyphname = seven;
lastChange = "2018-02-09 15:44:29 +0000";
layers = (
{
layerId = "36D41E8E-F531-4154-A930-CD44EA9C85A7";
paths = (
{
closed = 1;
nodes = (
"220 0 LINE",
"470 679 LINE",
"70 679 LINE",
"70 584 LINE",
"320 584 LINE",
"101 0 LINE"
);
}
);
width = 530;
}
);
note = seven;
unicode = 0037;
},
{
glyphname = eight;
lastChange = "2018-02-09 15:44:29 +0000";
layers = (
{
layerId = "36D41E8E-F531-4154-A930-CD44EA9C85A7";
paths = (
{
closed = 1;
nodes = (
"415 -14 OFFCURVE",
"520 83 OFFCURVE",
"520 202 CURVE SMOOTH",
"520 273 OFFCURVE",
"482 336 OFFCURVE",
"423 375 CURVE",
"458 409 OFFCURVE",
"479 456 OFFCURVE",
"479 508 CURVE SMOOTH",
"479 612 OFFCURVE",
"392 697 OFFCURVE",
"283 697 CURVE SMOOTH",
"174 697 OFFCURVE",
"87 612 OFFCURVE",
"87 508 CURVE SMOOTH",
"87 456 OFFCURVE",
"108 409 OFFCURVE",
"143 375 CURVE",
"84 336 OFFCURVE",
"46 273 OFFCURVE",
"46 202 CURVE SMOOTH",
"46 83 OFFCURVE",
"151 -14 OFFCURVE",
"283 -14 CURVE SMOOTH"
);
},
{
closed = 1;
nodes = (
"210 81 OFFCURVE",
"156 134 OFFCURVE",
"156 201 CURVE SMOOTH",
"156 267 OFFCURVE",
"210 319 OFFCURVE",
"283 319 CURVE SMOOTH",
"356 319 OFFCURVE",
"410 267 OFFCURVE",
"410 201 CURVE SMOOTH",
"410 134 OFFCURVE",
"356 81 OFFCURVE",
"283 81 CURVE SMOOTH"
);
},
{
closed = 1;
nodes = (
"230 417 OFFCURVE",
"190 457 OFFCURVE",
"190 508 CURVE SMOOTH",
"190 560 OFFCURVE",
"230 600 OFFCURVE",
"283 600 CURVE SMOOTH",
"336 600 OFFCURVE",
"376 560 OFFCURVE",
"376 508 CURVE SMOOTH",
"376 457 OFFCURVE",
"336 417 OFFCURVE",
"283 417 CURVE SMOOTH"
);
}
);
width = 566;
}
);
note = eight;
unicode = 0038;
},
{
glyphname = nine;
lastChange = "2018-02-09 15:44:29 +0000";
layers = (
{
layerId = "36D41E8E-F531-4154-A930-CD44EA9C85A7";
paths = (
{
closed = 1;
nodes = (
"202 0 LINE",
"479 348 LINE",
"478 348 LINE",
"502 383 OFFCURVE",
"516 426 OFFCURVE",
"516 471 CURVE SMOOTH",
"516 595 OFFCURVE",
"412 695 OFFCURVE",
"283 695 CURVE SMOOTH",
"154 695 OFFCURVE",
"50 595 OFFCURVE",
"50 471 CURVE SMOOTH",
"50 352 OFFCURVE",
"146 254 OFFCURVE",
"268 246 CURVE",
"75 0 LINE"
);
},
{
closed = 1;
nodes = (
"214 351 OFFCURVE",
"163 404 OFFCURVE",
"163 471 CURVE SMOOTH",
"163 537 OFFCURVE",
"214 590 OFFCURVE",
"283 590 CURVE SMOOTH",
"352 590 OFFCURVE",
"403 537 OFFCURVE",
"403 471 CURVE SMOOTH",
"403 404 OFFCURVE",
"352 351 OFFCURVE",
"283 351 CURVE SMOOTH"
);
}
);
width = 566;
}
);
note = nine;
unicode = 0039;
},
{
glyphname = zero.lf;
lastChange = "2018-02-09 15:44:29 +0000";
layers = (
{
layerId = "36D41E8E-F531-4154-A930-CD44EA9C85A7";
paths = (
{
closed = 1;
nodes = (
"473 -18 OFFCURVE",
"553 146 OFFCURVE",
"550 340 CURVE",
"553 534 OFFCURVE",
"473 692 OFFCURVE",
"301 695 CURVE SMOOTH",
"129 692 OFFCURVE",
"47 534 OFFCURVE",
"50 340 CURVE SMOOTH",
"47 146 OFFCURVE",
"129 -18 OFFCURVE",
"301 -15 CURVE SMOOTH"
);
},
{
closed = 1;
nodes = (
"183 88 OFFCURVE",
"162 232 OFFCURVE",
"162 340 CURVE SMOOTH",
"162 447 OFFCURVE",
"183 593 OFFCURVE",
"301 593 CURVE SMOOTH",
"419 593 OFFCURVE",
"438 447 OFFCURVE",
"438 340 CURVE SMOOTH",
"438 232 OFFCURVE",
"419 88 OFFCURVE",
"301 88 CURVE SMOOTH"
);
}
);
width = 600;
}
);
note = zero;
},
{
glyphname = one.lf;
lastChange = "2018-02-09 15:44:29 +0000";
layers = (
{
anchors = (
{
name = ogonek;
position = "{380, 10}";
},
{
name = top;
position = "{265, 679}";
}
);
layerId = "36D41E8E-F531-4154-A930-CD44EA9C85A7";
paths = (
{
closed = 1;
nodes = (
"461 0 LINE",
"461 96 LINE",
"319 96 LINE",
"319 679 LINE",
"50 679 LINE",
"50 584 LINE",
"210 584 LINE",
"210 96 LINE",
"50 96 LINE",
"50 0 LINE"
);
}
);
width = 511;
}
);
note = one;
},
{
glyphname = two.lf;
lastChange = "2018-02-09 15:44:29 +0000";
layers = (
{
layerId = "36D41E8E-F531-4154-A930-CD44EA9C85A7";
paths = (
{
closed = 1;
nodes = (
"516 0 LINE",
"516 96 LINE",
"255 96 LINE",
"463 344 LINE",
"498 381 OFFCURVE",
"519 431 OFFCURVE",
"519 486 CURVE SMOOTH",
"519 603 OFFCURVE",
"420 699 OFFCURVE",
"298 699 CURVE SMOOTH",
"176 699 OFFCURVE",
"77 603 OFFCURVE",
"77 486 CURVE SMOOTH",
"77 375 OFFCURVE",
"164 285 OFFCURVE",
"276 274 CURVE",
"50 1 LINE",
"110 1 LINE",
"109 0 LINE"
);
},
{
closed = 1;
nodes = (
"235 376 OFFCURVE",
"188 425 OFFCURVE",
"188 486 CURVE SMOOTH",
"188 547 OFFCURVE",
"235 596 OFFCURVE",
"298 596 CURVE SMOOTH",
"361 596 OFFCURVE",
"408 547 OFFCURVE",
"408 486 CURVE SMOOTH",
"408 425 OFFCURVE",
"361 376 OFFCURVE",
"298 376 CURVE SMOOTH"
);
}
);
width = 569;
}
);
note = two;
},
{
glyphname = three.lf;
lastChange = "2018-02-09 15:44:29 +0000";
layers = (
{
layerId = "36D41E8E-F531-4154-A930-CD44EA9C85A7";
paths = (
{
closed = 1;
nodes = (
"412 -15 OFFCURVE",
"516 85 OFFCURVE",
"516 209 CURVE SMOOTH",
"516 302 OFFCURVE",
"458 382 OFFCURVE",
"374 416 CURVE",
"373 416 LINE",
"463 679 LINE",
"77 679 LINE",
"77 584 LINE",
"322 584 LINE",
"235 320 LINE",
"250 326 OFFCURVE",
"266 329 OFFCURVE",
"283 329 CURVE SMOOTH",
"352 329 OFFCURVE",
"403 276 OFFCURVE",
"403 209 CURVE SMOOTH",
"403 143 OFFCURVE",
"352 90 OFFCURVE",
"283 90 CURVE SMOOTH",
"214 90 OFFCURVE",
"163 143 OFFCURVE",
"163 209 CURVE",
"50 209 LINE",
"50 85 OFFCURVE",
"154 -15 OFFCURVE",
"283 -15 CURVE SMOOTH"
);
}
);
width = 566;
}
);
note = three;
},
{
glyphname = four.lf;
lastChange = "2018-02-09 15:44:29 +0000";
layers = (
{
layerId = "36D41E8E-F531-4154-A930-CD44EA9C85A7";
paths = (
{
closed = 1;
nodes = (
"494 1 LINE",
"494 321 LINE",
"223 321 LINE",
"420 679 LINE",
"303 679 LINE",
"50 227 LINE",
"377 227 LINE",
"377 1 LINE"
);
}
);
width = 544;
}
);
note = four;
},
{
glyphname = five.lf;
lastChange = "2018-02-09 15:44:29 +0000";
layers = (
{
layerId = "36D41E8E-F531-4154-A930-CD44EA9C85A7";
paths = (
{
closed = 1;
nodes = (
"412 -15 OFFCURVE",
"516 85 OFFCURVE",
"516 209 CURVE SMOOTH",
"516 302 OFFCURVE",
"458 382 OFFCURVE",
"374 416 CURVE SMOOTH",
"346 428 OFFCURVE",
"315 434 OFFCURVE",
"283 434 CURVE",
"283 584 LINE",
"509 584 LINE",
"509 679 LINE",
"174 679 LINE",
"174 336 LINE",
"226 315 LINE",
"242 324 OFFCURVE",
"261 329 OFFCURVE",
"283 329 CURVE SMOOTH",
"352 329 OFFCURVE",
"403 276 OFFCURVE",
"403 209 CURVE SMOOTH",
"403 143 OFFCURVE",
"352 90 OFFCURVE",
"283 90 CURVE SMOOTH",
"214 90 OFFCURVE",
"163 143 OFFCURVE",
"163 209 CURVE",
"50 209 LINE",
"50 85 OFFCURVE",
"154 -15 OFFCURVE",
"283 -15 CURVE SMOOTH"
);
}
);
width = 566;
}
);
note = five;
},
{
glyphname = six.lf;
lastChange = "2018-02-09 15:44:29 +0000";
layers = (
{
layerId = "36D41E8E-F531-4154-A930-CD44EA9C85A7";
paths = (
{
closed = 1;
nodes = (
"412 -14 OFFCURVE",
"516 86 OFFCURVE",
"516 210 CURVE SMOOTH",
"516 327 OFFCURVE",
"424 423 OFFCURVE",
"306 434 CURVE",
"498 679 LINE",
"364 679 LINE",
"114 365 LINE",
"74 324 OFFCURVE",
"50 270 OFFCURVE",
"50 210 CURVE SMOOTH",
"50 86 OFFCURVE",
"154 -14 OFFCURVE",
"283 -14 CURVE SMOOTH"
);
},
{
closed = 1;
nodes = (
"214 91 OFFCURVE",
"163 144 OFFCURVE",
"163 210 CURVE SMOOTH",
"163 277 OFFCURVE",
"214 330 OFFCURVE",
"283 330 CURVE SMOOTH",
"352 330 OFFCURVE",
"403 277 OFFCURVE",
"403 210 CURVE SMOOTH",
"403 144 OFFCURVE",
"352 91 OFFCURVE",
"283 91 CURVE SMOOTH"
);
}
);
width = 566;
}
);
note = six;
},
{
glyphname = seven.lf;
lastChange = "2018-02-09 15:44:29 +0000";
layers = (
{
layerId = "36D41E8E-F531-4154-A930-CD44EA9C85A7";
paths = (
{
closed = 1;
nodes = (
"200 0 LINE",
"450 679 LINE",
"50 679 LINE",
"50 584 LINE",
"300 584 LINE",
"81 0 LINE"
);
}
);
width = 500;
}
);
note = seven;
},
{
glyphname = eight.lf;
lastChange = "2018-02-09 15:44:29 +0000";
layers = (
{
layerId = "36D41E8E-F531-4154-A930-CD44EA9C85A7";
paths = (
{
closed = 1;
nodes = (
"419 -14 OFFCURVE",
"524 83 OFFCURVE",
"524 202 CURVE SMOOTH",
"524 273 OFFCURVE",
"486 336 OFFCURVE",
"427 375 CURVE",
"462 409 OFFCURVE",
"483 456 OFFCURVE",
"483 508 CURVE SMOOTH",
"483 612 OFFCURVE",
"396 697 OFFCURVE",
"287 697 CURVE SMOOTH",
"178 697 OFFCURVE",
"91 612 OFFCURVE",
"91 508 CURVE SMOOTH",
"91 456 OFFCURVE",
"112 409 OFFCURVE",
"147 375 CURVE",
"88 336 OFFCURVE",
"50 273 OFFCURVE",
"50 202 CURVE SMOOTH",
"50 83 OFFCURVE",
"155 -14 OFFCURVE",
"287 -14 CURVE SMOOTH"
);
},
{
closed = 1;
nodes = (
"214 81 OFFCURVE",
"160 134 OFFCURVE",
"160 201 CURVE SMOOTH",
"160 267 OFFCURVE",
"214 319 OFFCURVE",
"287 319 CURVE SMOOTH",
"360 319 OFFCURVE",
"414 267 OFFCURVE",
"414 201 CURVE SMOOTH",
"414 134 OFFCURVE",
"360 81 OFFCURVE",
"287 81 CURVE SMOOTH"
);
},
{
closed = 1;
nodes = (
"234 417 OFFCURVE",
"194 457 OFFCURVE",
"194 508 CURVE SMOOTH",
"194 560 OFFCURVE",
"234 600 OFFCURVE",
"287 600 CURVE SMOOTH",
"340 600 OFFCURVE",
"380 560 OFFCURVE",
"380 508 CURVE SMOOTH",
"380 457 OFFCURVE",
"340 417 OFFCURVE",
"287 417 CURVE SMOOTH"
);
}
);
width = 574;
}
);
note = eight;
},
{
glyphname = nine.lf;
lastChange = "2018-02-09 15:44:29 +0000";
layers = (
{
layerId = "36D41E8E-F531-4154-A930-CD44EA9C85A7";
paths = (
{
closed = 1;
nodes = (
"202 0 LINE",
"479 348 LINE",
"478 348 LINE",
"502 383 OFFCURVE",
"516 426 OFFCURVE",
"516 471 CURVE SMOOTH",
"516 595 OFFCURVE",
"412 695 OFFCURVE",
"283 695 CURVE SMOOTH",
"154 695 OFFCURVE",
"50 595 OFFCURVE",
"50 471 CURVE SMOOTH",
"50 352 OFFCURVE",
"146 254 OFFCURVE",
"268 246 CURVE",
"75 0 LINE"
);
},
{
closed = 1;
nodes = (
"214 351 OFFCURVE",
"163 404 OFFCURVE",
"163 471 CURVE SMOOTH",
"163 537 OFFCURVE",
"214 590 OFFCURVE",
"283 590 CURVE SMOOTH",
"352 590 OFFCURVE",
"403 537 OFFCURVE",
"403 471 CURVE SMOOTH",
"403 404 OFFCURVE",
"352 351 OFFCURVE",
"283 351 CURVE SMOOTH"
);
}
);
width = 566;
}
);
note = nine;
},
{
glyphname = zero.osf;
lastChange = "2018-03-05 13:14:12 +0000";
layers = (
{
layerId = "36D41E8E-F531-4154-A930-CD44EA9C85A7";
paths = (
{
closed = 1;
nodes = (
"464 -18 OFFCURVE",
"563 92 OFFCURVE",
"563 260 CURVE SMOOTH",
"563 422 OFFCURVE",
"464 532 OFFCURVE",
"314 535 CURVE",
"164 532 OFFCURVE",
"63 422 OFFCURVE",
"63 260 CURVE SMOOTH",
"63 93 OFFCURVE",
"164 -17 OFFCURVE",
"314 -15 CURVE SMOOTH"
);
},
{
closed = 1;
nodes = (
"231 88 OFFCURVE",
"175 157 OFFCURVE",
"175 260 CURVE SMOOTH",
"175 364 OFFCURVE",
"231 433 OFFCURVE",
"314 433 CURVE SMOOTH",
"397 433 OFFCURVE",
"451 364 OFFCURVE",
"451 260 CURVE SMOOTH",
"451 157 OFFCURVE",
"397 88 OFFCURVE",
"314 88 CURVE SMOOTH"
);
}
);
width = 626;
}
);
note = zero;
},
{
glyphname = one.osf;
lastChange = "2018-03-05 13:14:24 +0000";
layers = (
{
anchors = (
{
name = ogonek;
position = "{384, 10}";
},
{
name = top;
position = "{269, 679}";
}
);
layerId = "36D41E8E-F531-4154-A930-CD44EA9C85A7";
paths = (
{
closed = 1;
nodes = (
"465 0 LINE",
"465 96 LINE",
"323 96 LINE",
"323 517 LINE",
"54 517 LINE",
"54 422 LINE",
"214 422 LINE",
"214 96 LINE",
"54 96 LINE",
"54 0 LINE"
);
}
);
width = 528;
}
);
note = one;
},
{
glyphname = two.osf;
lastChange = "2018-03-05 13:14:23 +0000";
layers = (
{
layerId = "36D41E8E-F531-4154-A930-CD44EA9C85A7";
paths = (
{
closed = 1;
nodes = (
"489 0 LINE",
"489 96 LINE",
"255 96 LINE",
"398 255 LINE SMOOTH",
"425 286 OFFCURVE",
"442 326 OFFCURVE",
"442 370 CURVE SMOOTH",
"442 465 OFFCURVE",
"361 544 OFFCURVE",
"261 544 CURVE SMOOTH",
"161 544 OFFCURVE",
"80 465 OFFCURVE",
"80 370 CURVE SMOOTH",
"80 282 OFFCURVE",
"146 210 OFFCURVE",
"232 197 CURVE",
"63 1 LINE",
"123 1 LINE",
"122 0 LINE"
);
},
{
closed = 1;
nodes = (
"215 289 OFFCURVE",
"181 325 OFFCURVE",
"181 370 CURVE SMOOTH",
"181 413 OFFCURVE",
"215 450 OFFCURVE",
"261 450 CURVE SMOOTH",
"307 450 OFFCURVE",
"341 413 OFFCURVE",
"341 370 CURVE SMOOTH",
"341 325 OFFCURVE",
"307 289 OFFCURVE",
"261 289 CURVE SMOOTH"
);
}
);
width = 552;
}
);
note = two;
},
{
glyphname = three.osf;
lastChange = "2018-03-05 13:14:26 +0000";
layers = (
{
layerId = "36D41E8E-F531-4154-A930-CD44EA9C85A7";
paths = (
{
closed = 1;
nodes = (
"391 -111 OFFCURVE",
"485 -20 OFFCURVE",
"485 92 CURVE SMOOTH",
"485 177 OFFCURVE",
"433 249 OFFCURVE",
"357 280 CURVE",
"356 280 LINE",
"437 518 LINE",
"88 518 LINE",
"88 432 LINE",
"308 432 LINE",
"231 193 LINE",
"244 198 OFFCURVE",
"259 201 OFFCURVE",
"274 201 CURVE SMOOTH",
"337 201 OFFCURVE",
"383 153 OFFCURVE",
"383 92 CURVE SMOOTH",
"383 33 OFFCURVE",
"337 -15 OFFCURVE",
"274 -15 CURVE SMOOTH",
"212 -15 OFFCURVE",
"166 33 OFFCURVE",
"166 92 CURVE",
"63 92 LINE",
"63 -20 OFFCURVE",
"157 -111 OFFCURVE",
"274 -111 CURVE SMOOTH"
);
}
);
width = 548;
}
);
note = three;
},
{
glyphname = four.osf;
lastChange = "2018-03-05 13:14:42 +0000";
layers = (
{
layerId = "36D41E8E-F531-4154-A930-CD44EA9C85A7";
paths = (
{
closed = 1;
nodes = (
"447 1 LINE",
"447 292 LINE",
"202 292 LINE",
"427 699 LINE",
"321 699 LINE",
"45 206 LINE",
"341 206 LINE",
"341 1 LINE"
);
}
);
width = 528;
}
);
note = four;
},
{
glyphname = five.osf;
lastChange = "2018-03-05 13:14:44 +0000";
layers = (
{
layerId = "36D41E8E-F531-4154-A930-CD44EA9C85A7";
paths = (
{
closed = 1;
nodes = (
"409 -112 OFFCURVE",
"503 -21 OFFCURVE",
"503 91 CURVE SMOOTH",
"503 176 OFFCURVE",
"451 249 OFFCURVE",
"374 279 CURVE SMOOTH",
"349 289 OFFCURVE",
"321 295 OFFCURVE",
"292 295 CURVE",
"292 431 LINE",
"497 431 LINE",
"497 517 LINE",
"193 517 LINE",
"193 206 LINE",
"240 187 LINE",
"255 195 OFFCURVE",
"272 200 OFFCURVE",
"292 200 CURVE SMOOTH",
"354 200 OFFCURVE",
"401 152 OFFCURVE",
"401 91 CURVE SMOOTH",
"401 32 OFFCURVE",
"354 -16 OFFCURVE",
"292 -16 CURVE SMOOTH",
"230 -16 OFFCURVE",
"183 32 OFFCURVE",
"183 91 CURVE",
"81 91 LINE",
"81 -21 OFFCURVE",
"175 -112 OFFCURVE",
"292 -112 CURVE SMOOTH"
);
}
);
width = 584;
}
);
note = five;
},
{
glyphname = six.osf;
lastChange = "2018-03-05 13:14:44 +0000";
layers = (
{
layerId = "36D41E8E-F531-4154-A930-CD44EA9C85A7";
paths = (
{
closed = 1;
nodes = (
"391 -14 OFFCURVE",
"485 77 OFFCURVE",
"485 189 CURVE SMOOTH",
"485 296 OFFCURVE",
"399 385 OFFCURVE",
"289 392 CURVE",
"480 629 LINE",
"365 629 LINE",
"121 329 LINE",
"112 320 OFFCURVE",
"104 310 OFFCURVE",
"97 300 CURVE SMOOTH",
"75 268 OFFCURVE",
"63 230 OFFCURVE",
"63 189 CURVE SMOOTH",
"63 77 OFFCURVE",
"157 -14 OFFCURVE",
"274 -14 CURVE SMOOTH"
);
},
{
closed = 1;
nodes = (
"212 81 OFFCURVE",
"166 129 OFFCURVE",
"166 189 CURVE SMOOTH",
"166 250 OFFCURVE",
"212 298 OFFCURVE",
"274 298 CURVE SMOOTH",
"337 298 OFFCURVE",
"383 250 OFFCURVE",
"383 189 CURVE SMOOTH",
"383 129 OFFCURVE",
"337 81 OFFCURVE",
"274 81 CURVE SMOOTH"
);
}
);
width = 548;
}
);
note = six;
},
{
glyphname = seven.osf;
lastChange = "2018-02-09 15:44:29 +0000";
layers = (
{
layerId = "36D41E8E-F531-4154-A930-CD44EA9C85A7";
paths = (
{
closed = 1;
nodes = (
"195 -162 LINE",
"445 517 LINE",
"45 517 LINE",
"45 422 LINE",
"295 422 LINE",
"76 -162 LINE"
);
}
);
width = 454;
}
);
note = seven;
},
{
glyphname = eight.osf;
lastChange = "2018-03-05 13:14:46 +0000";
layers = (
{
layerId = "36D41E8E-F531-4154-A930-CD44EA9C85A7";
paths = (
{
closed = 1;
nodes = (
"404 -14 OFFCURVE",
"501 76 OFFCURVE",
"501 186 CURVE SMOOTH",
"501 252 OFFCURVE",
"466 310 OFFCURVE",
"411 346 CURVE",
"443 377 OFFCURVE",
"463 420 OFFCURVE",
"463 468 CURVE SMOOTH",
"463 564 OFFCURVE",
"382 643 OFFCURVE",
"282 643 CURVE SMOOTH",
"181 643 OFFCURVE",
"101 564 OFFCURVE",
"101 468 CURVE SMOOTH",
"101 420 OFFCURVE",
"121 377 OFFCURVE",
"153 346 CURVE",
"98 310 OFFCURVE",
"63 252 OFFCURVE",
"63 186 CURVE SMOOTH",
"63 76 OFFCURVE",
"160 -14 OFFCURVE",
"282 -14 CURVE SMOOTH"
);
},
{
closed = 1;
nodes = (
"214 74 OFFCURVE",
"164 123 OFFCURVE",
"164 185 CURVE SMOOTH",
"164 246 OFFCURVE",
"214 294 OFFCURVE",
"282 294 CURVE SMOOTH",
"349 294 OFFCURVE",
"399 246 OFFCURVE",
"399 185 CURVE SMOOTH",
"399 123 OFFCURVE",
"349 74 OFFCURVE",
"282 74 CURVE SMOOTH"
);
},
{
closed = 1;
nodes = (
"233 384 OFFCURVE",
"196 421 OFFCURVE",
"196 468 CURVE SMOOTH",
"196 516 OFFCURVE",
"233 553 OFFCURVE",
"282 553 CURVE SMOOTH",
"331 553 OFFCURVE",
"368 516 OFFCURVE",
"368 468 CURVE SMOOTH",
"368 421 OFFCURVE",
"331 384 OFFCURVE",
"282 384 CURVE SMOOTH"
);
}
);
width = 564;
}
);
note = eight;
},
{
glyphname = nine.osf;
lastChange = "2018-03-05 13:14:48 +0000";
layers = (
{
layerId = "36D41E8E-F531-4154-A930-CD44EA9C85A7";
paths = (
{
closed = 1;
nodes = (
"200 -99 LINE",
"430 190 LINE",
"438 198 OFFCURVE",
"445 207 OFFCURVE",
"451 216 CURVE SMOOTH",
"473 248 OFFCURVE",
"485 286 OFFCURVE",
"485 327 CURVE SMOOTH",
"485 439 OFFCURVE",
"391 530 OFFCURVE",
"274 530 CURVE SMOOTH",
"157 530 OFFCURVE",
"63 439 OFFCURVE",
"63 327 CURVE SMOOTH",
"63 219 OFFCURVE",
"150 130 OFFCURVE",
"260 123 CURVE",
"85 -99 LINE"
);
},
{
closed = 1;
nodes = (
"211 218 OFFCURVE",
"165 266 OFFCURVE",
"165 327 CURVE SMOOTH",
"165 387 OFFCURVE",
"211 435 OFFCURVE",
"274 435 CURVE SMOOTH",
"336 435 OFFCURVE",
"382 387 OFFCURVE",
"382 327 CURVE SMOOTH",
"382 266 OFFCURVE",
"336 218 OFFCURVE",
"274 218 CURVE SMOOTH"
);
}
);
width = 548;
}
);
note = nine;
},
{
glyphname = zero.slash.ss02;
lastChange = "2018-03-11 16:27:12 +0000";
layers = (
{
layerId = "36D41E8E-F531-4154-A930-CD44EA9C85A7";
paths = (
{
closed = 1;
nodes = (
"192 0 LINE",
"526 0 LINE",
"526 619 LINE",
"610 705 LINE",
"610 705 OFFCURVE",
"539 781 OFFCURVE",
"539 776 CURVE SMOOTH",
"539 773 OFFCURVE",
"500 734 OFFCURVE",
"464 699 CURVE",
"123 699 LINE",
"123 74 LINE",
"122 74 OFFCURVE",
"31 -14 OFFCURVE",
"31 -14 CURVE",
"101 -85 LINE"
);
},
{
closed = 1;
nodes = (
"241 597 LINE",
"408 597 LINE",
"408 102 LINE",
"241 102 LINE"
);
}
);
width = 649;
}
);
note = zero.slash;
},
{
glyphname = zero.slash.ss03;
lastChange = "2018-03-11 16:27:12 +0000";
layers = (
{
layerId = "36D41E8E-F531-4154-A930-CD44EA9C85A7";
paths = (
{
closed = 1;
nodes = (
"192 0 LINE",
"526 0 LINE",
"526 619 LINE",
"610 705 LINE",
"610 705 OFFCURVE",
"539 781 OFFCURVE",
"539 776 CURVE SMOOTH",
"539 773 OFFCURVE",
"500 734 OFFCURVE",
"464 699 CURVE",
"123 699 LINE",
"123 74 LINE",
"122 74 OFFCURVE",
"31 -14 OFFCURVE",
"31 -14 CURVE",
"101 -85 LINE"
);
},
{
closed = 1;
nodes = (
"241 597 LINE",
"408 597 LINE",
"408 102 LINE",
"241 102 LINE"
);
}
);
width = 649;
}
);
note = zero.slash;
},
{
glyphname = zero.slash.tosf;
lastChange = "2018-02-09 15:44:29 +0000";
layers = (
{
components = (
{
name = zero.tosf;
}
);
layerId = "36D41E8E-F531-4154-A930-CD44EA9C85A7";
paths = (
{
closed = 1;
nodes = (
"251 -57 LINE",
"531 570 LINE",
"414 570 LINE",
"134 -57 LINE"
);
}
);
width = 660;
}
);
},
{
glyphname = zero.ss02;
lastChange = "2018-03-11 16:27:12 +0000";
layers = (
{
layerId = "36D41E8E-F531-4154-A930-CD44EA9C85A7";
paths = (
{
closed = 1;
nodes = (
"531 0 LINE",
"531 1 LINE",
"531 597 LINE",
"531 699 LINE",
"128 699 LINE",
"128 1 LINE",
"167 1 LINE",
"167 0 LINE"
);
},
{
closed = 1;
nodes = (
"246 597 LINE",
"413 597 LINE",
"413 102 LINE",
"246 102 LINE"
);
}
);
width = 659;
}
);
note = zero;
},
{
glyphname = one.ss02;
lastChange = "2018-03-11 16:27:12 +0000";
layers = (
{
layerId = "36D41E8E-F531-4154-A930-CD44EA9C85A7";
paths = (
{
closed = 1;
nodes = (
"550 0 LINE",
"550 103 LINE",
"386 103 LINE",
"386 698 LINE",
"79 698 LINE",
"79 596 LINE",
"269 596 LINE",
"269 103 LINE",
"79 103 LINE",
"79 0 LINE"
);
}
);
width = 602;
}
);
note = one;
},
{
glyphname = two.ss02;
lastChange = "2018-03-11 16:27:12 +0000";
layers = (
{
layerId = "36D41E8E-F531-4154-A930-CD44EA9C85A7";
paths = (
{
closed = 1;
nodes = (
"211 1 LINE",
"554 508 LINE",
"554 622 OFFCURVE",
"438 714 OFFCURVE",
"324 714 CURVE SMOOTH",
"210 714 OFFCURVE",
"118 622 OFFCURVE",
"118 508 CURVE",
"226 508 LINE",
"226 560 OFFCURVE",
"270 602 OFFCURVE",
"324 602 CURVE SMOOTH",
"378 602 OFFCURVE",
"422 560 OFFCURVE",
"422 508 CURVE",
"421 508 LINE",
"75 1 LINE"
);
}
);
width = 600;
}
);
note = two;
},
{
glyphname = three.ss02;
lastChange = "2018-03-11 16:27:12 +0000";
layers = (
{
layerId = "36D41E8E-F531-4154-A930-CD44EA9C85A7";
paths = (
{
closed = 1;
nodes = (
"404 -15 OFFCURVE",
"505 86 OFFCURVE",
"505 210 CURVE SMOOTH",
"505 291 OFFCURVE",
"468 352 OFFCURVE",
"398 385 CURVE",
"398 699 LINE",
"103 699 LINE",
"103 597 LINE",
"281 597 LINE",
"281 317 LINE",
"349 317 OFFCURVE",
"391 267 OFFCURVE",
"391 206 CURVE SMOOTH",
"391 145 OFFCURVE",
"341 96 OFFCURVE",
"281 96 CURVE SMOOTH",
"220 96 OFFCURVE",
"170 147 OFFCURVE",
"170 208 CURVE",
"56 208 LINE",
"56 84 OFFCURVE",
"157 -15 OFFCURVE",
"281 -15 CURVE SMOOTH"
);
}
);
width = 586;
}
);
note = three;
},
{
glyphname = four.ss02;
lastChange = "2018-03-11 16:27:12 +0000";
layers = (
{
layerId = "36D41E8E-F531-4154-A930-CD44EA9C85A7";
paths = (
{
closed = 1;
nodes = (
"480 1 LINE",
"480 328 LINE",
"202 328 LINE",
"365 699 LINE",
"248 699 LINE",
"86 337 LINE",
"86 227 LINE",
"363 227 LINE",
"363 1 LINE"
);
}
);
width = 609;
}
);
note = four;
},
{
glyphname = five.ss02;
lastChange = "2018-03-11 16:27:12 +0000";
layers = (
{
layerId = "36D41E8E-F531-4154-A930-CD44EA9C85A7";
paths = (
{
closed = 1;
nodes = (
"412 -15 OFFCURVE",
"506 79 OFFCURVE",
"506 195 CURVE SMOOTH",
"506 310 OFFCURVE",
"412 404 OFFCURVE",
"297 404 CURVE SMOOTH",
"285 404 OFFCURVE",
"273 403 OFFCURVE",
"262 401 CURVE",
"262 597 LINE",
"454 597 LINE",
"454 699 LINE",
"145 699 LINE",
"145 340 LINE",
"109 302 OFFCURVE",
"87 249 OFFCURVE",
"87 193 CURVE",
"203 193 LINE",
"203 246 OFFCURVE",
"245 287 OFFCURVE",
"297 287 CURVE SMOOTH",
"349 287 OFFCURVE",
"391 244 OFFCURVE",
"391 192 CURVE SMOOTH",
"391 139 OFFCURVE",
"349 96 OFFCURVE",
"297 96 CURVE",
"297 -15 LINE"
);
}
);
width = 600;
}
);
note = five;
},
{
glyphname = six.ss02;
lastChange = "2018-03-11 16:27:12 +0000";
layers = (
{
layerId = "36D41E8E-F531-4154-A930-CD44EA9C85A7";
paths = (
{
closed = 1;
nodes = (
"412 -15 OFFCURVE",
"504 77 OFFCURVE",
"504 190 CURVE SMOOTH",
"504 310 OFFCURVE",
"422 383 OFFCURVE",
"303 394 CURVE SMOOTH",
"256 399 OFFCURVE",
"230 451 OFFCURVE",
"230 504 CURVE SMOOTH",
"230 567 OFFCURVE",
"279 614 OFFCURVE",
"339 614 CURVE",
"339 714 LINE",
"223 714 OFFCURVE",
"126 620 OFFCURVE",
"126 504 CURVE SMOOTH",
"126 449 OFFCURVE",
"146 393 OFFCURVE",
"186 361 CURVE",
"131 324 OFFCURVE",
"94 261 OFFCURVE",
"94 190 CURVE SMOOTH",
"94 77 OFFCURVE",
"186 -15 OFFCURVE",
"299 -15 CURVE SMOOTH"
);
},
{
closed = 1;
nodes = (
"248 94 OFFCURVE",
"206 137 OFFCURVE",
"206 190 CURVE SMOOTH",
"206 243 OFFCURVE",
"248 286 OFFCURVE",
"299 286 CURVE SMOOTH",
"351 286 OFFCURVE",
"393 243 OFFCURVE",
"393 190 CURVE SMOOTH",
"393 137 OFFCURVE",
"351 94 OFFCURVE",
"299 94 CURVE SMOOTH"
);
}
);
width = 595;
}
);
note = six;
},
{
glyphname = seven.ss02;
lastChange = "2018-03-11 16:27:12 +0000";
layers = (
{
layerId = "36D41E8E-F531-4154-A930-CD44EA9C85A7";
paths = (
{
closed = 1;
nodes = (
"278 0 LINE",
"478 610 LINE",
"478 610 LINE",
"478 698 LINE",
"94 698 LINE",
"94 610 LINE",
"251 275 LINE",
"161 0 LINE"
);
},
{
closed = 1;
nodes = (
"203 596 LINE",
"361 596 LINE",
"293 393 LINE"
);
}
);
width = 568;
}
);
note = seven;
},
{
glyphname = eight.ss02;
lastChange = "2018-03-11 16:27:12 +0000";
layers = (
{
layerId = "36D41E8E-F531-4154-A930-CD44EA9C85A7";
paths = (
{
closed = 1;
nodes = (
"388 -15 OFFCURVE",
"480 77 OFFCURVE",
"480 190 CURVE SMOOTH",
"480 268 OFFCURVE",
"435 337 OFFCURVE",
"370 371 CURVE",
"467 596 LINE",
"467 698 LINE",
"83 698 LINE",
"83 596 LINE",
"180 371 LINE",
"115 337 OFFCURVE",
"71 268 OFFCURVE",
"71 190 CURVE SMOOTH",
"71 77 OFFCURVE",
"162 -15 OFFCURVE",
"275 -15 CURVE SMOOTH"
);
},
{
closed = 1;
nodes = (
"224 93 OFFCURVE",
"182 136 OFFCURVE",
"182 190 CURVE SMOOTH",
"182 243 OFFCURVE",
"224 286 OFFCURVE",
"275 286 CURVE SMOOTH",
"327 286 OFFCURVE",
"368 243 OFFCURVE",
"368 190 CURVE SMOOTH",
"368 136 OFFCURVE",
"327 93 OFFCURVE",
"275 93 CURVE SMOOTH"
);
},
{
closed = 1;
nodes = (
"189 596 LINE",
"362 596 LINE",
"275 378 LINE"
);
}
);
width = 550;
}
);
note = eight;
},
{
glyphname = nine.ss02;
lastChange = "2018-03-11 16:27:12 +0000";
layers = (
{
layerId = "36D41E8E-F531-4154-A930-CD44EA9C85A7";
paths = (
{
closed = 1;
nodes = (
"466 0 LINE",
"466 359 LINE",
"502 397 OFFCURVE",
"524 450 OFFCURVE",
"524 506 CURVE",
"408 506 LINE",
"408 453 OFFCURVE",
"366 412 OFFCURVE",
"314 412 CURVE SMOOTH",
"262 412 OFFCURVE",
"220 455 OFFCURVE",
"220 507 CURVE SMOOTH",
"220 560 OFFCURVE",
"262 603 OFFCURVE",
"314 603 CURVE",
"314 714 LINE",
"198 714 OFFCURVE",
"105 620 OFFCURVE",
"105 504 CURVE SMOOTH",
"105 388 OFFCURVE",
"198 295 OFFCURVE",
"314 295 CURVE SMOOTH",
"326 295 OFFCURVE",
"337 296 OFFCURVE",
"349 297 CURVE",
"349 102 LINE",
"157 102 LINE",
"157 0 LINE"
);
}
);
width = 626;
}
);
note = nine;
},
{
glyphname = zero.ss03;
lastChange = "2018-03-11 16:27:12 +0000";
layers = (
{
layerId = "36D41E8E-F531-4154-A930-CD44EA9C85A7";
paths = (
{
closed = 1;
nodes = (
"531 0 LINE",
"531 1 LINE",
"531 597 LINE",
"531 699 LINE",
"128 699 LINE",
"128 1 LINE",
"167 1 LINE",
"167 0 LINE"
);
},
{
closed = 1;
nodes = (
"246 597 LINE",
"413 597 LINE",
"413 102 LINE",
"246 102 LINE"
);
}
);
width = 659;
}
);
note = zero;
},
{
glyphname = one.ss03;
lastChange = "2018-03-11 16:27:12 +0000";
layers = (
{
layerId = "36D41E8E-F531-4154-A930-CD44EA9C85A7";
paths = (
{
closed = 1;
nodes = (
"550 0 LINE",
"550 103 LINE",
"386 103 LINE",
"386 698 LINE",
"79 698 LINE",
"79 596 LINE",
"269 596 LINE",
"269 103 LINE",
"79 103 LINE",
"79 0 LINE"
);
}
);
width = 602;
}
);
note = one;
},
{
glyphname = two.ss03;
lastChange = "2018-03-11 16:27:12 +0000";
layers = (
{
layerId = "36D41E8E-F531-4154-A930-CD44EA9C85A7";
paths = (
{
closed = 1;
nodes = (
"211 1 LINE",
"554 508 LINE",
"554 622 OFFCURVE",
"438 714 OFFCURVE",
"324 714 CURVE SMOOTH",
"210 714 OFFCURVE",
"118 622 OFFCURVE",
"118 508 CURVE",
"226 508 LINE",
"226 560 OFFCURVE",
"270 602 OFFCURVE",
"324 602 CURVE SMOOTH",
"378 602 OFFCURVE",
"422 560 OFFCURVE",
"422 508 CURVE",
"421 508 LINE",
"75 1 LINE"
);
}
);
width = 600;
}
);
note = two;
},
{
glyphname = three.ss03;
lastChange = "2018-03-11 16:27:12 +0000";
layers = (
{
layerId = "36D41E8E-F531-4154-A930-CD44EA9C85A7";
paths = (
{
closed = 1;
nodes = (
"404 -15 OFFCURVE",
"505 86 OFFCURVE",
"505 210 CURVE SMOOTH",
"505 291 OFFCURVE",
"468 352 OFFCURVE",
"398 385 CURVE",
"398 699 LINE",
"103 699 LINE",
"103 597 LINE",
"281 597 LINE",
"281 317 LINE",
"349 317 OFFCURVE",
"391 267 OFFCURVE",
"391 206 CURVE SMOOTH",
"391 145 OFFCURVE",
"341 96 OFFCURVE",
"281 96 CURVE SMOOTH",
"220 96 OFFCURVE",
"170 147 OFFCURVE",
"170 208 CURVE",
"56 208 LINE",
"56 84 OFFCURVE",
"157 -15 OFFCURVE",
"281 -15 CURVE SMOOTH"
);
}
);
width = 586;
}
);
note = three;
},
{
glyphname = four.ss03;
lastChange = "2018-03-11 16:27:12 +0000";
layers = (
{
layerId = "36D41E8E-F531-4154-A930-CD44EA9C85A7";
paths = (
{
closed = 1;
nodes = (
"480 1 LINE",
"480 328 LINE",
"202 328 LINE",
"365 699 LINE",
"248 699 LINE",
"86 337 LINE",
"86 227 LINE",
"363 227 LINE",
"363 1 LINE"
);
}
);
width = 609;
}
);
note = four;
},
{
glyphname = five.ss03;
lastChange = "2018-03-11 16:27:12 +0000";
layers = (
{
layerId = "36D41E8E-F531-4154-A930-CD44EA9C85A7";
paths = (
{
closed = 1;
nodes = (
"412 -15 OFFCURVE",
"506 79 OFFCURVE",
"506 195 CURVE SMOOTH",
"506 310 OFFCURVE",
"412 404 OFFCURVE",
"297 404 CURVE SMOOTH",
"285 404 OFFCURVE",
"273 403 OFFCURVE",
"262 401 CURVE",
"262 597 LINE",
"454 597 LINE",
"454 699 LINE",
"145 699 LINE",
"145 340 LINE",
"109 302 OFFCURVE",
"87 249 OFFCURVE",
"87 193 CURVE",
"203 193 LINE",
"203 246 OFFCURVE",
"245 287 OFFCURVE",
"297 287 CURVE SMOOTH",
"349 287 OFFCURVE",
"391 244 OFFCURVE",
"391 192 CURVE SMOOTH",
"391 139 OFFCURVE",
"349 96 OFFCURVE",
"297 96 CURVE",
"297 -15 LINE"
);
}
);
width = 600;
}
);
note = five;
},
{
glyphname = six.ss03;
lastChange = "2018-03-11 16:27:12 +0000";
layers = (
{
layerId = "36D41E8E-F531-4154-A930-CD44EA9C85A7";
paths = (
{
closed = 1;
nodes = (
"412 -15 OFFCURVE",
"504 77 OFFCURVE",
"504 190 CURVE SMOOTH",
"504 310 OFFCURVE",
"422 383 OFFCURVE",
"303 394 CURVE SMOOTH",
"256 399 OFFCURVE",
"230 451 OFFCURVE",
"230 504 CURVE SMOOTH",
"230 567 OFFCURVE",
"279 614 OFFCURVE",
"339 614 CURVE",
"339 714 LINE",
"223 714 OFFCURVE",
"126 620 OFFCURVE",
"126 504 CURVE SMOOTH",
"126 449 OFFCURVE",
"146 393 OFFCURVE",
"186 361 CURVE",
"131 324 OFFCURVE",
"94 261 OFFCURVE",
"94 190 CURVE SMOOTH",
"94 77 OFFCURVE",
"186 -15 OFFCURVE",
"299 -15 CURVE SMOOTH"
);
},
{
closed = 1;
nodes = (
"248 94 OFFCURVE",
"206 137 OFFCURVE",
"206 190 CURVE SMOOTH",
"206 243 OFFCURVE",
"248 286 OFFCURVE",
"299 286 CURVE SMOOTH",
"351 286 OFFCURVE",
"393 243 OFFCURVE",
"393 190 CURVE SMOOTH",
"393 137 OFFCURVE",
"351 94 OFFCURVE",
"299 94 CURVE SMOOTH"
);
}
);
width = 595;
}
);
note = six;
},
{
glyphname = seven.ss03;
lastChange = "2018-03-11 16:27:12 +0000";
layers = (
{
layerId = "36D41E8E-F531-4154-A930-CD44EA9C85A7";
paths = (
{
closed = 1;
nodes = (
"278 0 LINE",
"478 610 LINE",
"478 610 LINE",
"478 698 LINE",
"94 698 LINE",
"94 610 LINE",
"251 275 LINE",
"161 0 LINE"
);
},
{
closed = 1;
nodes = (
"203 596 LINE",
"361 596 LINE",
"293 393 LINE"
);
}
);
width = 568;
}
);
note = seven;
},
{
glyphname = eight.ss03;
lastChange = "2018-03-11 16:27:12 +0000";
layers = (
{
layerId = "36D41E8E-F531-4154-A930-CD44EA9C85A7";
paths = (
{
closed = 1;
nodes = (
"388 -15 OFFCURVE",
"480 77 OFFCURVE",
"480 190 CURVE SMOOTH",
"480 268 OFFCURVE",
"435 337 OFFCURVE",
"370 371 CURVE",
"467 596 LINE",
"467 698 LINE",
"83 698 LINE",
"83 596 LINE",
"180 371 LINE",
"115 337 OFFCURVE",
"71 268 OFFCURVE",
"71 190 CURVE SMOOTH",
"71 77 OFFCURVE",
"162 -15 OFFCURVE",
"275 -15 CURVE SMOOTH"
);
},
{
closed = 1;
nodes = (
"224 93 OFFCURVE",
"182 136 OFFCURVE",
"182 190 CURVE SMOOTH",
"182 243 OFFCURVE",
"224 286 OFFCURVE",
"275 286 CURVE SMOOTH",
"327 286 OFFCURVE",
"368 243 OFFCURVE",
"368 190 CURVE SMOOTH",
"368 136 OFFCURVE",
"327 93 OFFCURVE",
"275 93 CURVE SMOOTH"
);
},
{
closed = 1;
nodes = (
"189 596 LINE",
"362 596 LINE",
"275 378 LINE"
);
}
);
width = 550;
}
);
note = eight;
},
{
glyphname = nine.ss03;
lastChange = "2018-03-11 16:27:12 +0000";
layers = (
{
layerId = "36D41E8E-F531-4154-A930-CD44EA9C85A7";
paths = (
{
closed = 1;
nodes = (
"466 0 LINE",
"466 359 LINE",
"502 397 OFFCURVE",
"524 450 OFFCURVE",
"524 506 CURVE",
"408 506 LINE",
"408 453 OFFCURVE",
"366 412 OFFCURVE",
"314 412 CURVE SMOOTH",
"262 412 OFFCURVE",
"220 455 OFFCURVE",
"220 507 CURVE SMOOTH",
"220 560 OFFCURVE",
"262 603 OFFCURVE",
"314 603 CURVE",
"314 714 LINE",
"198 714 OFFCURVE",
"105 620 OFFCURVE",
"105 504 CURVE SMOOTH",
"105 388 OFFCURVE",
"198 295 OFFCURVE",
"314 295 CURVE SMOOTH",
"326 295 OFFCURVE",
"337 296 OFFCURVE",
"349 297 CURVE",
"349 102 LINE",
"157 102 LINE",
"157 0 LINE"
);
}
);
width = 626;
}
);
note = nine;
},
{
glyphname = zero.tf;
lastChange = "2018-02-09 15:44:29 +0000";
layers = (
{
layerId = "36D41E8E-F531-4154-A930-CD44EA9C85A7";
paths = (
{
closed = 1;
nodes = (
"473 -18 OFFCURVE",
"553 146 OFFCURVE",
"550 340 CURVE",
"553 534 OFFCURVE",
"473 692 OFFCURVE",
"301 695 CURVE SMOOTH",
"129 692 OFFCURVE",
"47 534 OFFCURVE",
"50 340 CURVE SMOOTH",
"47 146 OFFCURVE",
"129 -18 OFFCURVE",
"301 -15 CURVE SMOOTH"
);
},
{
closed = 1;
nodes = (
"183 88 OFFCURVE",
"162 232 OFFCURVE",
"162 340 CURVE SMOOTH",
"162 447 OFFCURVE",
"183 593 OFFCURVE",
"301 593 CURVE SMOOTH",
"419 593 OFFCURVE",
"438 447 OFFCURVE",
"438 340 CURVE SMOOTH",
"438 232 OFFCURVE",
"419 88 OFFCURVE",
"301 88 CURVE SMOOTH"
);
}
);
width = 600;
}
);
note = zero;
},
{
glyphname = one.tf;
lastChange = "2018-02-09 15:44:29 +0000";
layers = (
{
anchors = (
{
name = ogonek;
position = "{425, 10}";
},
{
name = top;
position = "{310, 679}";
}
);
layerId = "36D41E8E-F531-4154-A930-CD44EA9C85A7";
paths = (
{
closed = 1;
nodes = (
"506 0 LINE",
"506 96 LINE",
"364 96 LINE",
"364 679 LINE",
"95 679 LINE",
"95 584 LINE",
"255 584 LINE",
"255 96 LINE",
"95 96 LINE",
"95 0 LINE"
);
}
);
width = 600;
}
);
note = one;
},
{
glyphname = two.tf;
lastChange = "2018-02-09 15:44:29 +0000";
layers = (
{
layerId = "36D41E8E-F531-4154-A930-CD44EA9C85A7";
paths = (
{
closed = 1;
nodes = (
"532 0 LINE",
"532 96 LINE",
"271 96 LINE",
"479 344 LINE",
"514 381 OFFCURVE",
"535 431 OFFCURVE",
"535 486 CURVE SMOOTH",
"535 603 OFFCURVE",
"436 699 OFFCURVE",
"314 699 CURVE SMOOTH",
"192 699 OFFCURVE",
"93 603 OFFCURVE",
"93 486 CURVE SMOOTH",
"93 375 OFFCURVE",
"180 285 OFFCURVE",
"292 274 CURVE",
"66 1 LINE",
"126 1 LINE",
"125 0 LINE"
);
},
{
closed = 1;
nodes = (
"251 376 OFFCURVE",
"204 425 OFFCURVE",
"204 486 CURVE SMOOTH",
"204 547 OFFCURVE",
"251 596 OFFCURVE",
"314 596 CURVE SMOOTH",
"377 596 OFFCURVE",
"424 547 OFFCURVE",
"424 486 CURVE SMOOTH",
"424 425 OFFCURVE",
"377 376 OFFCURVE",
"314 376 CURVE SMOOTH"
);
}
);
width = 600;
}
);
note = two;
},
{
glyphname = three.tf;
lastChange = "2018-02-09 15:44:29 +0000";
layers = (
{
layerId = "36D41E8E-F531-4154-A930-CD44EA9C85A7";
paths = (
{
closed = 1;
nodes = (
"429 -15 OFFCURVE",
"533 85 OFFCURVE",
"533 209 CURVE SMOOTH",
"533 302 OFFCURVE",
"475 382 OFFCURVE",
"391 416 CURVE",
"390 416 LINE",
"480 679 LINE",
"94 679 LINE",
"94 584 LINE",
"339 584 LINE",
"252 320 LINE",
"267 326 OFFCURVE",
"283 329 OFFCURVE",
"300 329 CURVE SMOOTH",
"369 329 OFFCURVE",
"420 276 OFFCURVE",
"420 209 CURVE SMOOTH",
"420 143 OFFCURVE",
"369 90 OFFCURVE",
"300 90 CURVE SMOOTH",
"231 90 OFFCURVE",
"180 143 OFFCURVE",
"180 209 CURVE",
"67 209 LINE",
"67 85 OFFCURVE",
"171 -15 OFFCURVE",
"300 -15 CURVE SMOOTH"
);
}
);
width = 600;
}
);
note = three;
},
{
glyphname = four.tf;
lastChange = "2018-02-09 15:44:29 +0000";
layers = (
{
layerId = "36D41E8E-F531-4154-A930-CD44EA9C85A7";
paths = (
{
closed = 1;
nodes = (
"522 1 LINE",
"522 321 LINE",
"251 321 LINE",
"448 679 LINE",
"331 679 LINE",
"78 227 LINE",
"405 227 LINE",
"405 1 LINE"
);
}
);
width = 600;
}
);
note = four;
},
{
glyphname = five.tf;
lastChange = "2018-02-09 15:44:29 +0000";
layers = (
{
layerId = "36D41E8E-F531-4154-A930-CD44EA9C85A7";
paths = (
{
closed = 1;
nodes = (
"429 -15 OFFCURVE",
"533 85 OFFCURVE",
"533 209 CURVE SMOOTH",
"533 302 OFFCURVE",
"475 382 OFFCURVE",
"391 416 CURVE SMOOTH",
"363 428 OFFCURVE",
"332 434 OFFCURVE",
"300 434 CURVE",
"300 584 LINE",
"526 584 LINE",
"526 679 LINE",
"191 679 LINE",
"191 336 LINE",
"243 315 LINE",
"259 324 OFFCURVE",
"278 329 OFFCURVE",
"300 329 CURVE SMOOTH",
"369 329 OFFCURVE",
"420 276 OFFCURVE",
"420 209 CURVE SMOOTH",
"420 143 OFFCURVE",
"369 90 OFFCURVE",
"300 90 CURVE SMOOTH",
"231 90 OFFCURVE",
"180 143 OFFCURVE",
"180 209 CURVE",
"67 209 LINE",
"67 85 OFFCURVE",
"171 -15 OFFCURVE",
"300 -15 CURVE SMOOTH"
);
}
);
width = 600;
}
);
note = five;
},
{
glyphname = six.tf;
lastChange = "2018-02-09 15:44:29 +0000";
layers = (
{
layerId = "36D41E8E-F531-4154-A930-CD44EA9C85A7";
paths = (
{
closed = 1;
nodes = (
"429 -14 OFFCURVE",
"533 86 OFFCURVE",
"533 210 CURVE SMOOTH",
"533 327 OFFCURVE",
"441 423 OFFCURVE",
"323 434 CURVE",
"515 679 LINE",
"381 679 LINE",
"131 365 LINE",
"91 324 OFFCURVE",
"67 270 OFFCURVE",
"67 210 CURVE SMOOTH",
"67 86 OFFCURVE",
"171 -14 OFFCURVE",
"300 -14 CURVE SMOOTH"
);
},
{
closed = 1;
nodes = (
"231 91 OFFCURVE",
"180 144 OFFCURVE",
"180 210 CURVE SMOOTH",
"180 277 OFFCURVE",
"231 330 OFFCURVE",
"300 330 CURVE SMOOTH",
"369 330 OFFCURVE",
"420 277 OFFCURVE",
"420 210 CURVE SMOOTH",
"420 144 OFFCURVE",
"369 91 OFFCURVE",
"300 91 CURVE SMOOTH"
);
}
);
width = 600;
}
);
note = six;
},
{
glyphname = seven.tf;
lastChange = "2018-03-11 15:43:49 +0000";
layers = (
{
layerId = "36D41E8E-F531-4154-A930-CD44EA9C85A7";
paths = (
{
closed = 1;
nodes = (
"250 0 LINE",
"500 679 LINE",
"100 679 LINE",
"100 584 LINE",
"350 584 LINE",
"131 0 LINE"
);
}
);
width = 600;
}
);
note = seven;
},
{
glyphname = eight.tf;
lastChange = "2018-03-11 15:43:50 +0000";
layers = (
{
layerId = "36D41E8E-F531-4154-A930-CD44EA9C85A7";
paths = (
{
closed = 1;
nodes = (
"432 -14 OFFCURVE",
"537 83 OFFCURVE",
"537 202 CURVE SMOOTH",
"537 273 OFFCURVE",
"499 336 OFFCURVE",
"440 375 CURVE",
"475 409 OFFCURVE",
"496 456 OFFCURVE",
"496 508 CURVE SMOOTH",
"496 612 OFFCURVE",
"409 697 OFFCURVE",
"300 697 CURVE SMOOTH",
"191 697 OFFCURVE",
"104 612 OFFCURVE",
"104 508 CURVE SMOOTH",
"104 456 OFFCURVE",
"125 409 OFFCURVE",
"160 375 CURVE",
"101 336 OFFCURVE",
"63 273 OFFCURVE",
"63 202 CURVE SMOOTH",
"63 83 OFFCURVE",
"168 -14 OFFCURVE",
"300 -14 CURVE SMOOTH"
);
},
{
closed = 1;
nodes = (
"227 81 OFFCURVE",
"173 134 OFFCURVE",
"173 201 CURVE SMOOTH",
"173 267 OFFCURVE",
"227 319 OFFCURVE",
"300 319 CURVE SMOOTH",
"373 319 OFFCURVE",
"427 267 OFFCURVE",
"427 201 CURVE SMOOTH",
"427 134 OFFCURVE",
"373 81 OFFCURVE",
"300 81 CURVE SMOOTH"
);
},
{
closed = 1;
nodes = (
"247 417 OFFCURVE",
"207 457 OFFCURVE",
"207 508 CURVE SMOOTH",
"207 560 OFFCURVE",
"247 600 OFFCURVE",
"300 600 CURVE SMOOTH",
"353 600 OFFCURVE",
"393 560 OFFCURVE",
"393 508 CURVE SMOOTH",
"393 457 OFFCURVE",
"353 417 OFFCURVE",
"300 417 CURVE SMOOTH"
);
}
);
width = 600;
}
);
note = eight;
},
{
glyphname = nine.tf;
lastChange = "2018-02-09 15:44:29 +0000";
layers = (
{
layerId = "36D41E8E-F531-4154-A930-CD44EA9C85A7";
paths = (
{
closed = 1;
nodes = (
"219 0 LINE",
"496 348 LINE",
"495 348 LINE",
"519 383 OFFCURVE",
"533 426 OFFCURVE",
"533 471 CURVE SMOOTH",
"533 595 OFFCURVE",
"429 695 OFFCURVE",
"300 695 CURVE SMOOTH",
"171 695 OFFCURVE",
"67 595 OFFCURVE",
"67 471 CURVE SMOOTH",
"67 352 OFFCURVE",
"163 254 OFFCURVE",
"285 246 CURVE",
"92 0 LINE"
);
},
{
closed = 1;
nodes = (
"231 351 OFFCURVE",
"180 404 OFFCURVE",
"180 471 CURVE SMOOTH",
"180 537 OFFCURVE",
"231 590 OFFCURVE",
"300 590 CURVE SMOOTH",
"369 590 OFFCURVE",
"420 537 OFFCURVE",
"420 471 CURVE SMOOTH",
"420 404 OFFCURVE",
"369 351 OFFCURVE",
"300 351 CURVE SMOOTH"
);
}
);
width = 600;
}
);
note = nine;
},
{
glyphname = zero.tosf;
lastChange = "2018-02-09 15:44:29 +0000";
layers = (
{
layerId = "36D41E8E-F531-4154-A930-CD44EA9C85A7";
paths = (
{
closed = 1;
nodes = (
"481 -18 OFFCURVE",
"580 92 OFFCURVE",
"580 260 CURVE SMOOTH",
"580 422 OFFCURVE",
"481 532 OFFCURVE",
"331 535 CURVE",
"181 532 OFFCURVE",
"80 422 OFFCURVE",
"80 260 CURVE SMOOTH",
"80 93 OFFCURVE",
"181 -17 OFFCURVE",
"331 -15 CURVE SMOOTH"
);
},
{
closed = 1;
nodes = (
"248 88 OFFCURVE",
"192 157 OFFCURVE",
"192 260 CURVE SMOOTH",
"192 364 OFFCURVE",
"248 433 OFFCURVE",
"331 433 CURVE SMOOTH",
"414 433 OFFCURVE",
"468 364 OFFCURVE",
"468 260 CURVE SMOOTH",
"468 157 OFFCURVE",
"414 88 OFFCURVE",
"331 88 CURVE SMOOTH"
);
}
);
width = 660;
}
);
note = zero;
},
{
glyphname = one.tosf;
lastChange = "2018-03-11 15:41:48 +0000";
layers = (
{
anchors = (
{
name = ogonek;
position = "{410, 10}";
},
{
name = top;
position = "{295, 679}";
}
);
layerId = "36D41E8E-F531-4154-A930-CD44EA9C85A7";
paths = (
{
closed = 1;
nodes = (
"491 0 LINE",
"491 96 LINE",
"349 96 LINE",
"349 517 LINE",
"80 517 LINE",
"80 422 LINE",
"240 422 LINE",
"240 96 LINE",
"80 96 LINE",
"80 0 LINE"
);
}
);
width = 571;
}
);
note = one;
},
{
glyphname = two.tosf;
lastChange = "2018-03-11 15:41:25 +0000";
layers = (
{
layerId = "36D41E8E-F531-4154-A930-CD44EA9C85A7";
paths = (
{
closed = 1;
nodes = (
"506 0 LINE",
"506 96 LINE",
"272 96 LINE",
"415 255 LINE SMOOTH",
"442 286 OFFCURVE",
"459 326 OFFCURVE",
"459 370 CURVE SMOOTH",
"459 465 OFFCURVE",
"378 544 OFFCURVE",
"278 544 CURVE SMOOTH",
"178 544 OFFCURVE",
"97 465 OFFCURVE",
"97 370 CURVE SMOOTH",
"97 282 OFFCURVE",
"163 210 OFFCURVE",
"249 197 CURVE",
"80 1 LINE",
"140 1 LINE",
"139 0 LINE"
);
},
{
closed = 1;
nodes = (
"232 289 OFFCURVE",
"198 325 OFFCURVE",
"198 370 CURVE SMOOTH",
"198 413 OFFCURVE",
"232 450 OFFCURVE",
"278 450 CURVE SMOOTH",
"324 450 OFFCURVE",
"358 413 OFFCURVE",
"358 370 CURVE SMOOTH",
"358 325 OFFCURVE",
"324 289 OFFCURVE",
"278 289 CURVE SMOOTH"
);
}
);
width = 580;
}
);
note = two;
},
{
glyphname = three.tosf;
lastChange = "2018-03-11 15:41:59 +0000";
layers = (
{
layerId = "36D41E8E-F531-4154-A930-CD44EA9C85A7";
paths = (
{
closed = 1;
nodes = (
"408 -111 OFFCURVE",
"502 -20 OFFCURVE",
"502 92 CURVE SMOOTH",
"502 177 OFFCURVE",
"450 249 OFFCURVE",
"374 280 CURVE",
"373 280 LINE",
"454 518 LINE",
"105 518 LINE",
"105 432 LINE",
"325 432 LINE",
"248 193 LINE",
"261 198 OFFCURVE",
"276 201 OFFCURVE",
"291 201 CURVE SMOOTH",
"354 201 OFFCURVE",
"400 153 OFFCURVE",
"400 92 CURVE SMOOTH",
"400 33 OFFCURVE",
"354 -15 OFFCURVE",
"291 -15 CURVE SMOOTH",
"229 -15 OFFCURVE",
"183 33 OFFCURVE",
"183 92 CURVE",
"80 92 LINE",
"80 -20 OFFCURVE",
"174 -111 OFFCURVE",
"291 -111 CURVE SMOOTH"
);
}
);
width = 582;
}
);
note = three;
},
{
glyphname = four.tosf;
lastChange = "2018-03-11 15:42:02 +0000";
layers = (
{
layerId = "36D41E8E-F531-4154-A930-CD44EA9C85A7";
paths = (
{
closed = 1;
nodes = (
"482 1 LINE",
"482 292 LINE",
"237 292 LINE",
"462 699 LINE",
"356 699 LINE",
"80 206 LINE",
"376 206 LINE",
"376 1 LINE"
);
}
);
width = 562;
}
);
note = four;
},
{
glyphname = five.tosf;
lastChange = "2018-03-11 15:42:06 +0000";
layers = (
{
layerId = "36D41E8E-F531-4154-A930-CD44EA9C85A7";
paths = (
{
closed = 1;
nodes = (
"408 -112 OFFCURVE",
"502 -21 OFFCURVE",
"502 91 CURVE SMOOTH",
"502 176 OFFCURVE",
"450 249 OFFCURVE",
"373 279 CURVE SMOOTH",
"348 289 OFFCURVE",
"320 295 OFFCURVE",
"291 295 CURVE",
"291 431 LINE",
"496 431 LINE",
"496 517 LINE",
"192 517 LINE",
"192 206 LINE",
"239 187 LINE",
"254 195 OFFCURVE",
"271 200 OFFCURVE",
"291 200 CURVE SMOOTH",
"353 200 OFFCURVE",
"400 152 OFFCURVE",
"400 91 CURVE SMOOTH",
"400 32 OFFCURVE",
"353 -16 OFFCURVE",
"291 -16 CURVE SMOOTH",
"229 -16 OFFCURVE",
"182 32 OFFCURVE",
"182 91 CURVE",
"80 91 LINE",
"80 -21 OFFCURVE",
"174 -112 OFFCURVE",
"291 -112 CURVE SMOOTH"
);
}
);
width = 582;
}
);
note = five;
},
{
glyphname = six.tosf;
lastChange = "2018-03-11 15:42:09 +0000";
layers = (
{
layerId = "36D41E8E-F531-4154-A930-CD44EA9C85A7";
paths = (
{
closed = 1;
nodes = (
"408 -14 OFFCURVE",
"502 77 OFFCURVE",
"502 189 CURVE SMOOTH",
"502 296 OFFCURVE",
"416 385 OFFCURVE",
"306 392 CURVE",
"497 629 LINE",
"382 629 LINE",
"138 329 LINE",
"129 320 OFFCURVE",
"121 310 OFFCURVE",
"114 300 CURVE SMOOTH",
"92 268 OFFCURVE",
"80 230 OFFCURVE",
"80 189 CURVE SMOOTH",
"80 77 OFFCURVE",
"174 -14 OFFCURVE",
"291 -14 CURVE SMOOTH"
);
},
{
closed = 1;
nodes = (
"229 81 OFFCURVE",
"183 129 OFFCURVE",
"183 189 CURVE SMOOTH",
"183 250 OFFCURVE",
"229 298 OFFCURVE",
"291 298 CURVE SMOOTH",
"354 298 OFFCURVE",
"400 250 OFFCURVE",
"400 189 CURVE SMOOTH",
"400 129 OFFCURVE",
"354 81 OFFCURVE",
"291 81 CURVE SMOOTH"
);
}
);
width = 582;
}
);
note = six;
},
{
glyphname = seven.tosf;
lastChange = "2018-03-11 15:42:12 +0000";
layers = (
{
layerId = "36D41E8E-F531-4154-A930-CD44EA9C85A7";
paths = (
{
closed = 1;
nodes = (
"230 -162 LINE",
"480 517 LINE",
"80 517 LINE",
"80 422 LINE",
"330 422 LINE",
"111 -162 LINE"
);
}
);
width = 560;
}
);
note = seven;
},
{
glyphname = eight.tosf;
lastChange = "2018-03-11 15:41:44 +0000";
layers = (
{
layerId = "36D41E8E-F531-4154-A930-CD44EA9C85A7";
paths = (
{
closed = 1;
nodes = (
"421 -14 OFFCURVE",
"518 76 OFFCURVE",
"518 186 CURVE SMOOTH",
"518 252 OFFCURVE",
"483 310 OFFCURVE",
"428 346 CURVE",
"460 377 OFFCURVE",
"480 420 OFFCURVE",
"480 468 CURVE SMOOTH",
"480 564 OFFCURVE",
"399 643 OFFCURVE",
"299 643 CURVE SMOOTH",
"198 643 OFFCURVE",
"118 564 OFFCURVE",
"118 468 CURVE SMOOTH",
"118 420 OFFCURVE",
"138 377 OFFCURVE",
"170 346 CURVE",
"115 310 OFFCURVE",
"80 252 OFFCURVE",
"80 186 CURVE SMOOTH",
"80 76 OFFCURVE",
"177 -14 OFFCURVE",
"299 -14 CURVE SMOOTH"
);
},
{
closed = 1;
nodes = (
"231 74 OFFCURVE",
"181 123 OFFCURVE",
"181 185 CURVE SMOOTH",
"181 246 OFFCURVE",
"231 294 OFFCURVE",
"299 294 CURVE SMOOTH",
"366 294 OFFCURVE",
"416 246 OFFCURVE",
"416 185 CURVE SMOOTH",
"416 123 OFFCURVE",
"366 74 OFFCURVE",
"299 74 CURVE SMOOTH"
);
},
{
closed = 1;
nodes = (
"250 384 OFFCURVE",
"213 421 OFFCURVE",
"213 468 CURVE SMOOTH",
"213 516 OFFCURVE",
"250 553 OFFCURVE",
"299 553 CURVE SMOOTH",
"348 553 OFFCURVE",
"385 516 OFFCURVE",
"385 468 CURVE SMOOTH",
"385 421 OFFCURVE",
"348 384 OFFCURVE",
"299 384 CURVE SMOOTH"
);
}
);
width = 598;
}
);
note = eight;
},
{
glyphname = nine.tosf;
lastChange = "2018-03-11 15:42:17 +0000";
layers = (
{
layerId = "36D41E8E-F531-4154-A930-CD44EA9C85A7";
paths = (
{
closed = 1;
nodes = (
"217 -99 LINE",
"447 190 LINE",
"455 198 OFFCURVE",
"462 207 OFFCURVE",
"468 216 CURVE SMOOTH",
"490 248 OFFCURVE",
"502 286 OFFCURVE",
"502 327 CURVE SMOOTH",
"502 439 OFFCURVE",
"408 530 OFFCURVE",
"291 530 CURVE SMOOTH",
"174 530 OFFCURVE",
"80 439 OFFCURVE",
"80 327 CURVE SMOOTH",
"80 219 OFFCURVE",
"167 130 OFFCURVE",
"277 123 CURVE",
"102 -99 LINE"
);
},
{
closed = 1;
nodes = (
"228 218 OFFCURVE",
"182 266 OFFCURVE",
"182 327 CURVE SMOOTH",
"182 387 OFFCURVE",
"228 435 OFFCURVE",
"291 435 CURVE SMOOTH",
"353 435 OFFCURVE",
"399 387 OFFCURVE",
"399 327 CURVE SMOOTH",
"399 266 OFFCURVE",
"353 218 OFFCURVE",
"291 218 CURVE SMOOTH"
);
}
);
width = 582;
}
);
note = nine;
},
{
glyphname = fraction;
lastChange = "2018-02-09 15:44:29 +0000";
layers = (
{
layerId = "36D41E8E-F531-4154-A930-CD44EA9C85A7";
paths = (
{
closed = 1;
nodes = (
"127 -57 LINE",
"564 700 LINE",
"477 700 LINE",
"40 -57 LINE"
);
}
);
width = 600;
}
);
unicode = 2044;
},
{
glyphname = onequarter;
lastChange = "2018-02-09 15:44:29 +0000";
layers = (
{
components = (
{
name = onesuperior;
},
{
name = fraction;
transform = "{1, 0, 0, 1, 33, 0}";
}
);
layerId = "36D41E8E-F531-4154-A930-CD44EA9C85A7";
paths = (
{
closed = 1;
nodes = (
"578 0 LINE",
"578 174 LINE",
"458 174 LINE",
"539 326 LINE",
"458 326 LINE",
"336 109 LINE",
"493 109 LINE",
"493 0 LINE"
);
}
);
width = 637;
}
);
unicode = 00BC;
},
{
glyphname = threequarters;
lastChange = "2018-02-09 15:44:29 +0000";
layers = (
{
components = (
{
name = fraction;
transform = "{1, 0, 0, 1, 49, 0}";
}
);
layerId = "36D41E8E-F531-4154-A930-CD44EA9C85A7";
paths = (
{
closed = 1;
nodes = (
"254 339 OFFCURVE",
"308 383 OFFCURVE",
"308 448 CURVE SMOOTH",
"308 497 OFFCURVE",
"267 536 OFFCURVE",
"224 546 CURVE",
"288 679 LINE",
"63 679 LINE",
"63 612 LINE",
"193 612 LINE",
"140 503 LINE",
"199 512 OFFCURVE",
"222 489 OFFCURVE",
"222 448 CURVE SMOOTH",
"222 422 OFFCURVE",
"203 405 OFFCURVE",
"174 405 CURVE SMOOTH",
"145 405 OFFCURVE",
"125 422 OFFCURVE",
"125 448 CURVE",
"40 448 LINE",
"40 383 OFFCURVE",
"94 339 OFFCURVE",
"174 339 CURVE SMOOTH"
);
},
{
closed = 1;
nodes = (
"591 1 LINE",
"591 175 LINE",
"471 175 LINE",
"552 327 LINE",
"471 327 LINE",
"349 110 LINE",
"506 110 LINE",
"506 1 LINE"
);
}
);
width = 653;
}
);
unicode = 00BE;
},
{
glyphname = period;
lastChange = "2018-03-11 15:18:40 +0000";
layers = (
{
layerId = "36D41E8E-F531-4154-A930-CD44EA9C85A7";
paths = (
{
closed = 1;
nodes = (
"204 -7 OFFCURVE",
"240 27 OFFCURVE",
"240 73 CURVE SMOOTH",
"240 117 OFFCURVE",
"204 153 OFFCURVE",
"160 153 CURVE SMOOTH",
"114 153 OFFCURVE",
"80 117 OFFCURVE",
"80 73 CURVE SMOOTH",
"80 27 OFFCURVE",
"114 -7 OFFCURVE",
"160 -7 CURVE SMOOTH"
);
}
);
width = 320;
}
);
leftKerningGroup = period;
note = period;
rightKerningGroup = period;
unicode = 002E;
},
{
glyphname = comma;
lastChange = "2018-02-09 15:44:29 +0000";
layers = (
{
layerId = "36D41E8E-F531-4154-A930-CD44EA9C85A7";
paths = (
{
closed = 1;
nodes = (
"122 -151 LINE",
"243 105 LINE",
"110 105 LINE",
"20 -151 LINE"
);
}
);
width = 333;
}
);
leftKerningGroup = coma;
note = comma;
rightKerningGroup = coma;
unicode = 002C;
},
{
glyphname = colon;
lastChange = "2018-02-09 15:44:29 +0000";
layers = (
{
layerId = "36D41E8E-F531-4154-A930-CD44EA9C85A7";
paths = (
{
closed = 1;
nodes = (
"267 319 OFFCURVE",
"303 353 OFFCURVE",
"303 399 CURVE SMOOTH",
"303 443 OFFCURVE",
"267 479 OFFCURVE",
"223 479 CURVE SMOOTH",
"177 479 OFFCURVE",
"143 443 OFFCURVE",
"143 399 CURVE SMOOTH",
"143 353 OFFCURVE",
"177 319 OFFCURVE",
"223 319 CURVE SMOOTH"
);
},
{
closed = 1;
nodes = (
"267 -7 OFFCURVE",
"303 27 OFFCURVE",
"303 73 CURVE SMOOTH",
"303 117 OFFCURVE",
"267 153 OFFCURVE",
"223 153 CURVE SMOOTH",
"177 153 OFFCURVE",
"143 117 OFFCURVE",
"143 73 CURVE SMOOTH",
"143 27 OFFCURVE",
"177 -7 OFFCURVE",
"223 -7 CURVE SMOOTH"
);
}
);
width = 446;
}
);
note = colon;
unicode = 003A;
},
{
glyphname = semicolon;
lastChange = "2018-02-09 15:44:29 +0000";
layers = (
{
layerId = "36D41E8E-F531-4154-A930-CD44EA9C85A7";
paths = (
{
closed = 1;
nodes = (
"156 -151 LINE",
"277 105 LINE",
"144 105 LINE",
"54 -151 LINE"
);
},
{
closed = 1;
nodes = (
"267 319 OFFCURVE",
"303 353 OFFCURVE",
"303 399 CURVE SMOOTH",
"303 443 OFFCURVE",
"267 479 OFFCURVE",
"223 479 CURVE SMOOTH",
"177 479 OFFCURVE",
"143 443 OFFCURVE",
"143 399 CURVE SMOOTH",
"143 353 OFFCURVE",
"177 319 OFFCURVE",
"223 319 CURVE SMOOTH"
);
}
);
width = 418;
}
);
note = semicolon;
unicode = 003B;
},
{
glyphname = ellipsis;
lastChange = "2018-02-09 15:44:29 +0000";
layers = (
{
layerId = "36D41E8E-F531-4154-A930-CD44EA9C85A7";
paths = (
{
closed = 1;
nodes = (
"724 -7 OFFCURVE",
"760 27 OFFCURVE",
"760 73 CURVE SMOOTH",
"760 117 OFFCURVE",
"724 153 OFFCURVE",
"680 153 CURVE SMOOTH",
"634 153 OFFCURVE",
"600 117 OFFCURVE",
"600 73 CURVE SMOOTH",
"600 27 OFFCURVE",
"634 -7 OFFCURVE",
"680 -7 CURVE SMOOTH"
);
},
{
closed = 1;
nodes = (
"216 -7 OFFCURVE",
"252 27 OFFCURVE",
"252 73 CURVE SMOOTH",
"252 117 OFFCURVE",
"216 153 OFFCURVE",
"172 153 CURVE SMOOTH",
"126 153 OFFCURVE",
"92 117 OFFCURVE",
"92 73 CURVE SMOOTH",
"92 27 OFFCURVE",
"126 -7 OFFCURVE",
"172 -7 CURVE SMOOTH"
);
},
{
closed = 1;
nodes = (
"469 -7 OFFCURVE",
"505 27 OFFCURVE",
"505 73 CURVE SMOOTH",
"505 117 OFFCURVE",
"469 153 OFFCURVE",
"425 153 CURVE SMOOTH",
"379 153 OFFCURVE",
"345 117 OFFCURVE",
"345 73 CURVE SMOOTH",
"345 27 OFFCURVE",
"379 -7 OFFCURVE",
"425 -7 CURVE SMOOTH"
);
}
);
width = 856;
}
);
leftKerningGroup = period;
note = ellipsis;
rightKerningGroup = period;
unicode = 2026;
},
{
glyphname = exclam;
lastChange = "2018-02-09 15:44:29 +0000";
layers = (
{
layerId = "36D41E8E-F531-4154-A930-CD44EA9C85A7";
paths = (
{
closed = 1;
nodes = (
"229 261 LINE",
"229 699 LINE",
"112 699 LINE",
"112 261 LINE"
);
},
{
closed = 1;
nodes = (
"214 -7 OFFCURVE",
"250 27 OFFCURVE",
"250 73 CURVE SMOOTH",
"250 117 OFFCURVE",
"214 153 OFFCURVE",
"170 153 CURVE SMOOTH",
"124 153 OFFCURVE",
"90 117 OFFCURVE",
"90 73 CURVE SMOOTH",
"90 27 OFFCURVE",
"124 -7 OFFCURVE",
"170 -7 CURVE SMOOTH"
);
}
);
width = 340;
}
);
note = exclam;
unicode = 0021;
},
{
glyphname = exclamdown;
lastChange = "2018-02-09 15:44:29 +0000";
layers = (
{
layerId = "36D41E8E-F531-4154-A930-CD44EA9C85A7";
paths = (
{
closed = 1;
nodes = (
"231 -175 LINE",
"231 263 LINE",
"114 263 LINE",
"114 -175 LINE"
);
},
{
closed = 1;
nodes = (
"216 371 OFFCURVE",
"252 407 OFFCURVE",
"252 451 CURVE SMOOTH",
"252 497 OFFCURVE",
"216 531 OFFCURVE",
"172 531 CURVE SMOOTH",
"126 531 OFFCURVE",
"92 497 OFFCURVE",
"92 451 CURVE SMOOTH",
"92 407 OFFCURVE",
"126 371 OFFCURVE",
"172 371 CURVE SMOOTH"
);
}
);
width = 344;
}
);
unicode = 00A1;
},
{
glyphname = question;
lastChange = "2018-02-09 15:44:29 +0000";
layers = (
{
layerId = "36D41E8E-F531-4154-A930-CD44EA9C85A7";
paths = (
{
closed = 1;
nodes = (
"197 221 LINE",
"197 300 LINE",
"264 336 OFFCURVE",
"310 406 OFFCURVE",
"310 486 CURVE SMOOTH",
"310 603 OFFCURVE",
"211 699 OFFCURVE",
"89 699 CURVE",
"89 596 LINE",
"152 596 OFFCURVE",
"199 547 OFFCURVE",
"199 486 CURVE SMOOTH",
"199 425 OFFCURVE",
"152 376 OFFCURVE",
"89 376 CURVE",
"89 221 LINE"
);
},
{
closed = 1;
nodes = (
"184 -7 OFFCURVE",
"220 27 OFFCURVE",
"220 73 CURVE SMOOTH",
"220 117 OFFCURVE",
"184 153 OFFCURVE",
"140 153 CURVE SMOOTH",
"94 153 OFFCURVE",
"60 117 OFFCURVE",
"60 73 CURVE SMOOTH",
"60 27 OFFCURVE",
"94 -7 OFFCURVE",
"140 -7 CURVE SMOOTH"
);
}
);
width = 355;
}
);
note = question;
unicode = 003F;
},
{
glyphname = questiondown;
lastChange = "2018-02-09 15:44:29 +0000";
layers = (
{
layerId = "36D41E8E-F531-4154-A930-CD44EA9C85A7";
paths = (
{
closed = 1;
nodes = (
"345 -72 LINE",
"282 -72 OFFCURVE",
"235 -23 OFFCURVE",
"235 38 CURVE SMOOTH",
"235 99 OFFCURVE",
"282 148 OFFCURVE",
"345 148 CURVE",
"345 303 LINE",
"237 303 LINE",
"237 224 LINE",
"170 188 OFFCURVE",
"124 118 OFFCURVE",
"124 38 CURVE SMOOTH",
"124 -79 OFFCURVE",
"223 -175 OFFCURVE",
"345 -175 CURVE"
);
},
{
closed = 1;
nodes = (
"340 371 OFFCURVE",
"374 407 OFFCURVE",
"374 451 CURVE SMOOTH",
"374 497 OFFCURVE",
"340 531 OFFCURVE",
"294 531 CURVE SMOOTH",
"250 531 OFFCURVE",
"214 497 OFFCURVE",
"214 451 CURVE SMOOTH",
"214 407 OFFCURVE",
"250 371 OFFCURVE",
"294 371 CURVE SMOOTH"
);
}
);
width = 529;
}
);
note = questiondown;
unicode = 00BF;
},
{
glyphname = bullet;
lastChange = "2018-02-09 15:44:29 +0000";
layers = (
{
layerId = "36D41E8E-F531-4154-A930-CD44EA9C85A7";
paths = (
{
closed = 1;
nodes = (
"251 170 OFFCURVE",
"305 223 OFFCURVE",
"305 289 CURVE SMOOTH",
"305 355 OFFCURVE",
"251 409 OFFCURVE",
"185 409 CURVE SMOOTH",
"119 409 OFFCURVE",
"66 355 OFFCURVE",
"66 289 CURVE SMOOTH",
"66 223 OFFCURVE",
"119 170 OFFCURVE",
"185 170 CURVE SMOOTH"
);
}
);
width = 371;
}
);
note = bullet;
unicode = 2022;
},
{
glyphname = asterisk;
lastChange = "2018-02-09 15:44:29 +0000";
layers = (
{
layerId = "36D41E8E-F531-4154-A930-CD44EA9C85A7";
paths = (
{
closed = 1;
nodes = (
"252 342 LINE",
"245 466 LINE",
"348 398 LINE",
"387 465 LINE",
"276 520 LINE",
"387 575 LINE",
"348 643 LINE",
"245 574 LINE",
"252 698 LINE",
"175 698 LINE",
"182 575 LINE",
"79 643 LINE",
"40 575 LINE",
"151 520 LINE",
"40 465 LINE",
"79 397 LINE",
"182 465 LINE",
"175 342 LINE"
);
}
);
width = 427;
}
);
unicode = 002A;
},
{
glyphname = numbersign;
lastChange = "2018-02-09 15:44:29 +0000";
layers = (
{
layerId = "36D41E8E-F531-4154-A930-CD44EA9C85A7";
paths = (
{
closed = 1;
nodes = (
"173 -2 LINE",
"246 188 LINE",
"347 188 LINE",
"274 -2 LINE",
"391 -2 LINE",
"464 188 LINE",
"641 188 LINE",
"641 290 LINE",
"504 290 LINE",
"537 373 LINE",
"684 373 LINE",
"684 475 LINE",
"576 475 LINE",
"643 649 LINE",
"526 649 LINE",
"459 475 LINE",
"358 475 LINE",
"425 649 LINE",
"308 649 LINE",
"241 475 LINE",
"67 475 LINE",
"67 373 LINE",
"202 373 LINE",
"169 290 LINE",
"24 290 LINE",
"24 188 LINE",
"132 188 LINE",
"56 -2 LINE"
);
},
{
closed = 1;
nodes = (
"319 373 LINE",
"420 373 LINE",
"387 290 LINE",
"286 290 LINE"
);
}
);
width = 704;
}
);
note = numbersign;
unicode = 0023;
},
{
glyphname = slash;
lastChange = "2018-02-09 15:44:29 +0000";
layers = (
{
layerId = "36D41E8E-F531-4154-A930-CD44EA9C85A7";
paths = (
{
closed = 1;
nodes = (
"117 -57 LINE",
"455 700 LINE",
"338 700 LINE",
"0 -57 LINE"
);
}
);
width = 455;
}
);
note = slash;
unicode = 002F;
},
{
glyphname = backslash;
lastChange = "2018-02-09 15:44:29 +0000";
layers = (
{
layerId = "36D41E8E-F531-4154-A930-CD44EA9C85A7";
paths = (
{
closed = 1;
nodes = (
"455 -57 LINE",
"117 700 LINE",
"0 700 LINE",
"338 -57 LINE"
);
}
);
width = 455;
}
);
note = backslash;
unicode = 005C;
},
{
glyphname = question.ss01;
lastChange = "2018-02-09 15:44:29 +0000";
layers = (
{
layerId = "36D41E8E-F531-4154-A930-CD44EA9C85A7";
paths = (
{
closed = 1;
nodes = (
"344 261 LINE",
"514 493 LINE",
"514 607 OFFCURVE",
"417 714 OFFCURVE",
"290 714 CURVE SMOOTH",
"176 714 OFFCURVE",
"79 622 OFFCURVE",
"79 508 CURVE",
"187 508 LINE",
"187 560 OFFCURVE",
"231 602 OFFCURVE",
"285 602 CURVE SMOOTH",
"339 602 OFFCURVE",
"383 560 OFFCURVE",
"383 508 CURVE",
"382 508 LINE",
"201 261 LINE"
);
},
{
closed = 1;
nodes = (
"313 -7 OFFCURVE",
"349 27 OFFCURVE",
"349 73 CURVE SMOOTH",
"349 117 OFFCURVE",
"313 153 OFFCURVE",
"269 153 CURVE SMOOTH",
"223 153 OFFCURVE",
"189 117 OFFCURVE",
"189 73 CURVE SMOOTH",
"189 27 OFFCURVE",
"223 -7 OFFCURVE",
"269 -7 CURVE SMOOTH"
);
}
);
width = 588;
}
);
note = question;
},
{
glyphname = questiondown.ss01;
lastChange = "2018-02-09 15:44:29 +0000";
layers = (
{
layerId = "36D41E8E-F531-4154-A930-CD44EA9C85A7";
paths = (
{
closed = 1;
nodes = (
"387 -204 OFFCURVE",
"484 -112 OFFCURVE",
"484 2 CURVE",
"376 2 LINE",
"376 -50 OFFCURVE",
"332 -92 OFFCURVE",
"278 -92 CURVE SMOOTH",
"224 -92 OFFCURVE",
"180 -50 OFFCURVE",
"180 2 CURVE",
"181 2 LINE",
"362 249 LINE",
"219 249 LINE",
"49 17 LINE",
"49 -97 OFFCURVE",
"146 -204 OFFCURVE",
"273 -204 CURVE SMOOTH"
);
},
{
closed = 1;
nodes = (
"340 357 OFFCURVE",
"374 393 OFFCURVE",
"374 437 CURVE SMOOTH",
"374 483 OFFCURVE",
"340 517 OFFCURVE",
"294 517 CURVE SMOOTH",
"250 517 OFFCURVE",
"214 483 OFFCURVE",
"214 437 CURVE SMOOTH",
"214 393 OFFCURVE",
"250 357 OFFCURVE",
"294 357 CURVE SMOOTH"
);
}
);
width = 529;
}
);
note = questiondown;
},
{
glyphname = parenleft;
lastChange = "2018-03-05 10:40:33 +0000";
layers = (
{
layerId = "36D41E8E-F531-4154-A930-CD44EA9C85A7";
paths = (
{
closed = 1;
nodes = (
"297 -124 LINE",
"297 -124 OFFCURVE",
"184 104 OFFCURVE",
"184 324 CURVE SMOOTH",
"184 545 OFFCURVE",
"295 750 OFFCURVE",
"295 750 CURVE SMOOTH",
"178 750 LINE SMOOTH",
"178 750 OFFCURVE",
"70 545 OFFCURVE",
"70 324 CURVE SMOOTH",
"70 104 OFFCURVE",
"178 -124 OFFCURVE",
"178 -124 CURVE"
);
}
);
width = 368;
}
);
note = parenleft;
unicode = 0028;
},
{
glyphname = parenright;
lastChange = "2018-02-09 15:44:29 +0000";
layers = (
{
layerId = "36D41E8E-F531-4154-A930-CD44EA9C85A7";
paths = (
{
closed = 1;
nodes = (
"180 -124 LINE",
"180 -124 OFFCURVE",
"288 104 OFFCURVE",
"288 324 CURVE SMOOTH",
"288 545 OFFCURVE",
"180 750 OFFCURVE",
"180 750 CURVE SMOOTH",
"73 750 LINE SMOOTH",
"73 750 OFFCURVE",
"184 545 OFFCURVE",
"184 324 CURVE SMOOTH",
"184 104 OFFCURVE",
"71 -124 OFFCURVE",
"71 -124 CURVE"
);
}
);
width = 358;
}
);
note = parenright;
unicode = 0029;
},
{
glyphname = braceleft;
lastChange = "2018-02-09 15:44:29 +0000";
layers = (
{
layerId = "36D41E8E-F531-4154-A930-CD44EA9C85A7";
paths = (
{
closed = 1;
nodes = (
"296 -33 LINE",
"234 -33 OFFCURVE",
"220 -6 OFFCURVE",
"220 67 CURVE SMOOTH",
"220 200 OFFCURVE",
"233 289 OFFCURVE",
"153 313 CURVE",
"233 336 OFFCURVE",
"220 424 OFFCURVE",
"220 558 CURVE SMOOTH",
"220 631 OFFCURVE",
"234 658 OFFCURVE",
"296 658 CURVE",
"296 750 LINE",
"168 748 OFFCURVE",
"122 697 OFFCURVE",
"122 598 CURVE SMOOTH",
"122 403 OFFCURVE",
"128 359 OFFCURVE",
"70 359 CURVE",
"70 266 LINE",
"128 266 OFFCURVE",
"122 232 OFFCURVE",
"122 27 CURVE SMOOTH",
"122 -72 OFFCURVE",
"168 -123 OFFCURVE",
"296 -125 CURVE"
);
}
);
width = 366;
}
);
unicode = 007B;
},
{
glyphname = braceright;
lastChange = "2018-02-09 15:44:29 +0000";
layers = (
{
layerId = "36D41E8E-F531-4154-A930-CD44EA9C85A7";
paths = (
{
closed = 1;
nodes = (
"198 -123 OFFCURVE",
"244 -72 OFFCURVE",
"244 27 CURVE SMOOTH",
"244 232 OFFCURVE",
"238 266 OFFCURVE",
"296 266 CURVE",
"296 359 LINE",
"238 359 OFFCURVE",
"244 403 OFFCURVE",
"244 598 CURVE SMOOTH",
"244 697 OFFCURVE",
"198 748 OFFCURVE",
"70 750 CURVE",
"70 658 LINE",
"132 658 OFFCURVE",
"146 631 OFFCURVE",
"146 558 CURVE SMOOTH",
"146 424 OFFCURVE",
"133 336 OFFCURVE",
"213 313 CURVE",
"133 289 OFFCURVE",
"146 200 OFFCURVE",
"146 67 CURVE SMOOTH",
"146 -6 OFFCURVE",
"132 -33 OFFCURVE",
"70 -33 CURVE",
"70 -125 LINE"
);
}
);
width = 366;
}
);
unicode = 007D;
},
{
glyphname = bracketleft;
lastChange = "2018-03-01 16:27:12 +0000";
layers = (
{
layerId = "36D41E8E-F531-4154-A930-CD44EA9C85A7";
paths = (
{
closed = 1;
nodes = (
"305 -125 LINE",
"305 -24 LINE",
"187 -24 LINE",
"187 647 LINE",
"305 647 LINE",
"305 749 LINE",
"70 749 LINE",
"70 -125 LINE"
);
}
);
width = 375;
}
);
note = bracketleft;
unicode = 005B;
},
{
glyphname = bracketright;
lastChange = "2018-02-09 15:44:29 +0000";
layers = (
{
layerId = "36D41E8E-F531-4154-A930-CD44EA9C85A7";
paths = (
{
closed = 1;
nodes = (
"305 -125 LINE",
"305 749 LINE",
"70 749 LINE",
"70 647 LINE",
"188 647 LINE",
"188 -24 LINE",
"70 -24 LINE",
"70 -125 LINE"
);
}
);
width = 375;
}
);
note = bracketright;
unicode = 005D;
},
{
glyphname = hyphen;
lastChange = "2018-02-09 15:44:29 +0000";
layers = (
{
layerId = "36D41E8E-F531-4154-A930-CD44EA9C85A7";
paths = (
{
closed = 1;
nodes = (
"443 244 LINE",
"443 346 LINE",
"71 346 LINE",
"71 244 LINE"
);
}
);
width = 514;
}
);
leftKerningGroup = tiret;
note = hyphen;
rightKerningGroup = tiret;
unicode = 002D;
},
{
glyphname = endash;
lastChange = "2018-02-09 15:44:29 +0000";
layers = (
{
layerId = "36D41E8E-F531-4154-A930-CD44EA9C85A7";
paths = (
{
closed = 1;
nodes = (
"514 244 LINE",
"514 346 LINE",
"71 346 LINE",
"71 244 LINE"
);
}
);
width = 585;
}
);
leftKerningGroup = tiret;
note = endash;
rightKerningGroup = tiret;
unicode = 2013;
},
{
glyphname = emdash;
lastChange = "2018-02-09 15:44:29 +0000";
layers = (
{
layerId = "36D41E8E-F531-4154-A930-CD44EA9C85A7";
paths = (
{
closed = 1;
nodes = (
"754 244 LINE",
"754 346 LINE",
"71 346 LINE",
"71 244 LINE"
);
}
);
width = 825;
}
);
leftKerningGroup = tiret;
note = emdash;
rightKerningGroup = tiret;
unicode = 2014;
},
{
glyphname = underscore;
lastChange = "2018-02-09 15:44:29 +0000";
layers = (
{
layerId = "36D41E8E-F531-4154-A930-CD44EA9C85A7";
paths = (
{
closed = 1;
nodes = (
"674 -62 LINE",
"674 0 LINE",
"71 0 LINE",
"71 -62 LINE"
);
}
);
width = 745;
}
);
note = underscore;
unicode = 005F;
},
{
glyphname = quotesinglbase;
lastChange = "2019-10-31 17:09:29 +0000";
layers = (
{
layerId = "36D41E8E-F531-4154-A930-CD44EA9C85A7";
paths = (
{
closed = 1;
nodes = (
"107 -191 LINE",
"183 105 LINE",
"54 105 LINE",
"20 -191 LINE"
);
}
);
width = 203;
}
);
leftKerningGroup = coma;
rightKerningGroup = coma;
unicode = 201A;
},
{
glyphname = quotedblbase;
lastChange = "2019-10-31 17:09:42 +0000";
layers = (
{
layerId = "36D41E8E-F531-4154-A930-CD44EA9C85A7";
paths = (
{
closed = 1;
nodes = (
"276 -191 LINE",
"372 105 LINE",
"243 105 LINE",
"189 -191 LINE"
);
},
{
closed = 1;
nodes = (
"107 -191 LINE",
"183 105 LINE",
"54 105 LINE",
"20 -191 LINE"
);
}
);
width = 392;
}
);
leftKerningGroup = coma;
rightKerningGroup = coma;
unicode = 201E;
},
{
glyphname = quotedblleft;
lastChange = "2019-10-31 17:06:18 +0000";
layers = (
{
layerId = "36D41E8E-F531-4154-A930-CD44EA9C85A7";
paths = (
{
closed = 1;
nodes = (
"204 402 LINE",
"258 698 LINE",
"171 698 LINE",
"75 402 LINE"
);
},
{
closed = 1;
nodes = (
"393 402 LINE",
"427 698 LINE",
"340 698 LINE",
"264 402 LINE"
);
}
);
width = 514;
}
);
leftKerningGroup = quoteleft;
note = quotedblleft;
rightKerningGroup = quoteleft;
unicode = 201C;
},
{
glyphname = quotedblright;
lastChange = "2019-10-31 17:06:20 +0000";
layers = (
{
layerId = "36D41E8E-F531-4154-A930-CD44EA9C85A7";
paths = (
{
closed = 1;
nodes = (
"331 402 LINE",
"427 698 LINE",
"298 698 LINE",
"244 402 LINE"
);
},
{
closed = 1;
nodes = (
"162 402 LINE",
"238 698 LINE",
"109 698 LINE",
"75 402 LINE"
);
}
);
width = 514;
}
);
leftKerningGroup = quoteleft;
note = quotedblright;
rightKerningGroup = quoteleft;
unicode = 201D;
},
{
glyphname = quoteleft;
lastChange = "2019-10-31 17:06:16 +0000";
layers = (
{
layerId = "36D41E8E-F531-4154-A930-CD44EA9C85A7";
paths = (
{
closed = 1;
nodes = (
"165 402 LINE",
"241 698 LINE",
"112 698 LINE",
"78 402 LINE"
);
}
);
width = 297;
}
);
leftKerningGroup = quoteleft;
note = quoteleft;
rightKerningGroup = quoteleft;
unicode = 2018;
},
{
glyphname = quoteright;
lastChange = "2019-10-31 17:06:12 +0000";
layers = (
{
layerId = "36D41E8E-F531-4154-A930-CD44EA9C85A7";
paths = (
{
closed = 1;
nodes = (
"192 402 LINE",
"226 698 LINE",
"139 698 LINE",
"63 402 LINE"
);
}
);
width = 297;
}
);
leftKerningGroup = quoteleft;
note = quoteright;
rightKerningGroup = quoteleft;
unicode = 2019;
},
{
glyphname = guilsinglleft;
lastChange = "2018-02-09 15:44:29 +0000";
layers = (
{
layerId = "36D41E8E-F531-4154-A930-CD44EA9C85A7";
paths = (
{
closed = 1;
nodes = (
"284 60 LINE",
"154 264 LINE",
"284 458 LINE",
"166 458 LINE",
"36 264 LINE",
"166 60 LINE"
);
}
);
width = 304;
}
);
unicode = 2039;
},
{
glyphname = guilsinglright;
lastChange = "2018-02-09 15:44:29 +0000";
layers = (
{
layerId = "36D41E8E-F531-4154-A930-CD44EA9C85A7";
paths = (
{
closed = 1;
nodes = (
"138 60 LINE",
"268 264 LINE",
"138 458 LINE",
"20 458 LINE",
"150 264 LINE",
"20 60 LINE"
);
}
);
width = 304;
}
);
unicode = 203A;
},
{
glyphname = quotedbl;
lastChange = "2018-02-09 15:44:29 +0000";
layers = (
{
layerId = "36D41E8E-F531-4154-A930-CD44EA9C85A7";
paths = (
{
closed = 1;
nodes = (
"309 452 LINE",
"325 698 LINE",
"216 698 LINE",
"232 452 LINE"
);
},
{
closed = 1;
nodes = (
"133 452 LINE",
"149 698 LINE",
"40 698 LINE",
"56 452 LINE"
);
}
);
width = 365;
}
);
note = quotedbl;
unicode = 0022;
},
{
glyphname = quotesingle;
lastChange = "2018-02-09 15:44:29 +0000";
layers = (
{
layerId = "36D41E8E-F531-4154-A930-CD44EA9C85A7";
paths = (
{
closed = 1;
nodes = (
"117 402 LINE",
"193 698 LINE",
"64 698 LINE",
"30 402 LINE"
);
}
);
width = 223;
}
);
note = quotesingle;
unicode = 0027;
},
{
glyphname = cent;
lastChange = "2018-03-11 16:27:12 +0000";
layers = (
{
layerId = "36D41E8E-F531-4154-A930-CD44EA9C85A7";
paths = (
{
closed = 1;
nodes = (
"411 87 LINE",
"309 87 OFFCURVE",
"191 133 OFFCURVE",
"191 262 CURVE SMOOTH",
"191 391 OFFCURVE",
"309 441 OFFCURVE",
"411 441 CURVE",
"411 542 LINE",
"387 542 OFFCURVE",
"363 540 OFFCURVE",
"339 536 CURVE",
"339 671 LINE",
"234 671 LINE",
"234 505 LINE",
"146 464 OFFCURVE",
"82 386 OFFCURVE",
"82 262 CURVE SMOOTH",
"82 61 OFFCURVE",
"249 -16 OFFCURVE",
"411 -16 CURVE"
);
},
{
closed = 1;
nodes = (
"340 -125 LINE",
"340 71 LINE",
"234 71 LINE",
"234 -125 LINE"
);
}
);
width = 500;
}
);
note = cent;
unicode = 00A2;
},
{
glyphname = currency;
lastChange = "2018-02-09 15:44:29 +0000";
layers = (
{
anchors = (
{
name = center;
position = "{299, 258}";
},
{
name = top;
position = "{299, 516}";
}
);
layerId = "36D41E8E-F531-4154-A930-CD44EA9C85A7";
paths = (
{
closed = 1;
nodes = (
"208 136 LINE",
"240 119 OFFCURVE",
"276 109 OFFCURVE",
"315 109 CURVE SMOOTH",
"354 109 OFFCURVE",
"390 119 OFFCURVE",
"422 136 CURVE",
"467 91 LINE",
"540 164 LINE",
"497 207 LINE",
"517 239 OFFCURVE",
"529 276 OFFCURVE",
"529 316 CURVE SMOOTH",
"529 356 OFFCURVE",
"517 394 OFFCURVE",
"497 425 CURVE",
"540 468 LINE",
"467 541 LINE",
"422 496 LINE",
"391 514 OFFCURVE",
"354 524 OFFCURVE",
"315 524 CURVE SMOOTH",
"276 524 OFFCURVE",
"239 514 OFFCURVE",
"208 496 CURVE",
"163 541 LINE",
"90 468 LINE",
"133 425 LINE",
"113 394 OFFCURVE",
"101 356 OFFCURVE",
"101 316 CURVE SMOOTH",
"101 276 OFFCURVE",
"113 239 OFFCURVE",
"133 207 CURVE",
"90 164 LINE",
"163 91 LINE"
);
},
{
closed = 1;
nodes = (
"252 207 OFFCURVE",
"203 256 OFFCURVE",
"203 316 CURVE SMOOTH",
"203 377 OFFCURVE",
"252 426 OFFCURVE",
"315 426 CURVE SMOOTH",
"378 426 OFFCURVE",
"427 377 OFFCURVE",
"427 316 CURVE SMOOTH",
"427 256 OFFCURVE",
"378 207 OFFCURVE",
"315 207 CURVE SMOOTH"
);
}
);
width = 630;
}
);
unicode = 00A4;
},
{
glyphname = dollar;
lastChange = "2018-02-09 15:44:29 +0000";
layers = (
{
components = (
{
name = S;
}
);
layerId = "36D41E8E-F531-4154-A930-CD44EA9C85A7";
paths = (
{
closed = 1;
nodes = (
"349 625 LINE",
"349 750 LINE",
"240 750 LINE",
"240 625 LINE"
);
},
{
closed = 1;
nodes = (
"349 -83 LINE",
"349 42 LINE",
"240 42 LINE",
"240 -83 LINE"
);
}
);
width = 582;
}
);
leftMetricsKey = S;
note = dollar;
rightMetricsKey = S;
unicode = 0024;
},
{
glyphname = florin;
lastChange = "2018-02-09 15:44:29 +0000";
layers = (
{
layerId = "36D41E8E-F531-4154-A930-CD44EA9C85A7";
paths = (
{
closed = 1;
nodes = (
"157 -212 OFFCURVE",
"248 -118 OFFCURVE",
"248 47 CURVE SMOOTH",
"248 241 LINE",
"421 241 LINE",
"421 343 LINE",
"248 343 LINE",
"248 458 LINE SMOOTH",
"248 579 OFFCURVE",
"295 621 OFFCURVE",
"375 621 CURVE SMOOTH",
"455 621 OFFCURVE",
"506 567 OFFCURVE",
"506 567 CURVE",
"506 663 LINE",
"506 663 OFFCURVE",
"470 717 OFFCURVE",
"360 717 CURVE SMOOTH",
"231 717 OFFCURVE",
"140 623 OFFCURVE",
"140 458 CURVE SMOOTH",
"140 343 LINE",
"13 343 LINE",
"13 241 LINE",
"140 241 LINE",
"140 47 LINE SMOOTH",
"140 -74 OFFCURVE",
"93 -116 OFFCURVE",
"13 -116 CURVE SMOOTH",
"-67 -116 OFFCURVE",
"-118 -62 OFFCURVE",
"-118 -62 CURVE",
"-118 -158 LINE",
"-118 -158 OFFCURVE",
"-82 -212 OFFCURVE",
"28 -212 CURVE SMOOTH"
);
}
);
width = 521;
}
);
unicode = 0192;
},
{
glyphname = sterling;
lastChange = "2018-02-09 15:44:29 +0000";
layers = (
{
layerId = "36D41E8E-F531-4154-A930-CD44EA9C85A7";
paths = (
{
closed = 1;
nodes = (
"584 0 LINE",
"585 103 LINE",
"270 103 LINE",
"270 310 LINE",
"459 310 LINE",
"459 413 LINE",
"271 413 LINE",
"271 508 LINE",
"270 508 LINE",
"270 560 OFFCURVE",
"314 602 OFFCURVE",
"368 602 CURVE SMOOTH",
"422 602 OFFCURVE",
"466 560 OFFCURVE",
"466 508 CURVE",
"574 508 LINE",
"574 622 OFFCURVE",
"477 714 OFFCURVE",
"363 714 CURVE SMOOTH",
"236 714 OFFCURVE",
"139 607 OFFCURVE",
"139 493 CURVE SMOOTH",
"139 413 LINE",
"34 413 LINE",
"34 310 LINE",
"139 310 LINE",
"139 0 LINE"
);
}
);
width = 642;
}
);
note = sterling;
unicode = 00A3;
},
{
glyphname = yen;
lastChange = "2018-02-09 15:44:29 +0000";
layers = (
{
components = (
{
name = Y;
}
);
layerId = "36D41E8E-F531-4154-A930-CD44EA9C85A7";
paths = (
{
closed = 1;
nodes = (
"531 241 LINE",
"531 343 LINE",
"123 343 LINE",
"123 241 LINE"
);
},
{
closed = 1;
nodes = (
"531 90 LINE",
"531 192 LINE",
"123 192 LINE",
"123 90 LINE"
);
}
);
width = 653;
}
);
unicode = 00A5;
},
{
glyphname = plus;
lastChange = "2018-02-09 15:44:29 +0000";
layers = (
{
layerId = "36D41E8E-F531-4154-A930-CD44EA9C85A7";
paths = (
{
closed = 1;
nodes = (
"397 100 LINE",
"397 303 LINE",
"605 303 LINE",
"605 406 LINE",
"397 406 LINE",
"397 609 LINE",
"280 609 LINE",
"280 406 LINE",
"72 406 LINE",
"72 303 LINE",
"280 303 LINE",
"280 100 LINE"
);
}
);
width = 677;
}
);
note = plus;
unicode = 002B;
},
{
glyphname = minus;
lastChange = "2018-02-09 15:44:29 +0000";
layers = (
{
layerId = "36D41E8E-F531-4154-A930-CD44EA9C85A7";
paths = (
{
closed = 1;
nodes = (
"492 244 LINE",
"492 346 LINE",
"50 346 LINE",
"50 244 LINE"
);
}
);
width = 542;
}
);
unicode = 2212;
},
{
glyphname = multiply;
lastChange = "2018-02-09 15:44:29 +0000";
layers = (
{
layerId = "36D41E8E-F531-4154-A930-CD44EA9C85A7";
paths = (
{
closed = 1;
nodes = (
"344 263 LINE",
"496 111 LINE",
"569 184 LINE",
"417 336 LINE",
"569 488 LINE",
"496 561 LINE",
"344 409 LINE",
"192 561 LINE",
"119 488 LINE",
"271 336 LINE",
"119 184 LINE",
"192 111 LINE"
);
}
);
width = 677;
}
);
note = multiply;
unicode = 00D7;
},
{
glyphname = divide;
lastChange = "2018-02-09 15:44:29 +0000";
layers = (
{
layerId = "36D41E8E-F531-4154-A930-CD44EA9C85A7";
paths = (
{
closed = 1;
nodes = (
"514 206 LINE",
"514 308 LINE",
"71 308 LINE",
"71 206 LINE"
);
},
{
closed = 1;
nodes = (
"337 -7 OFFCURVE",
"373 27 OFFCURVE",
"373 73 CURVE SMOOTH",
"373 117 OFFCURVE",
"337 153 OFFCURVE",
"293 153 CURVE SMOOTH",
"247 153 OFFCURVE",
"213 117 OFFCURVE",
"213 73 CURVE SMOOTH",
"213 27 OFFCURVE",
"247 -7 OFFCURVE",
"293 -7 CURVE SMOOTH"
);
},
{
closed = 1;
nodes = (
"337 359 OFFCURVE",
"373 393 OFFCURVE",
"373 439 CURVE SMOOTH",
"373 483 OFFCURVE",
"337 519 OFFCURVE",
"293 519 CURVE SMOOTH",
"247 519 OFFCURVE",
"213 483 OFFCURVE",
"213 439 CURVE SMOOTH",
"213 393 OFFCURVE",
"247 359 OFFCURVE",
"293 359 CURVE SMOOTH"
);
}
);
width = 585;
}
);
unicode = 00F7;
},
{
glyphname = equal;
lastChange = "2018-02-09 15:44:29 +0000";
layers = (
{
layerId = "36D41E8E-F531-4154-A930-CD44EA9C85A7";
paths = (
{
closed = 1;
nodes = (
"540 393 LINE",
"540 495 LINE",
"91 495 LINE",
"91 393 LINE"
);
},
{
closed = 1;
nodes = (
"540 188 LINE",
"540 290 LINE",
"91 290 LINE",
"91 188 LINE"
);
}
);
width = 630;
}
);
note = equal;
unicode = 003D;
},
{
glyphname = notequal;
lastChange = "2018-02-09 15:44:29 +0000";
layers = (
{
layerId = "36D41E8E-F531-4154-A930-CD44EA9C85A7";
paths = (
{
closed = 1;
nodes = (
"240 -2 LINE",
"313 188 LINE",
"540 188 LINE",
"540 290 LINE",
"353 290 LINE",
"393 393 LINE",
"540 393 LINE",
"540 495 LINE",
"432 495 LINE",
"492 649 LINE",
"375 649 LINE",
"315 495 LINE",
"91 495 LINE",
"91 393 LINE",
"276 393 LINE",
"236 290 LINE",
"91 290 LINE",
"91 188 LINE",
"196 188 LINE",
"123 -2 LINE"
);
}
);
width = 630;
}
);
note = notequal;
unicode = 2260;
},
{
glyphname = greater;
lastChange = "2018-02-09 15:44:29 +0000";
layers = (
{
layerId = "36D41E8E-F531-4154-A930-CD44EA9C85A7";
paths = (
{
closed = 1;
nodes = (
"489 250 LINE",
"489 315 LINE",
"50 517 LINE",
"50 417 LINE",
"369 284 LINE",
"50 100 LINE",
"50 0 LINE"
);
}
);
width = 539;
}
);
unicode = 003E;
},
{
glyphname = less;
lastChange = "2018-02-09 15:44:29 +0000";
layers = (
{
layerId = "36D41E8E-F531-4154-A930-CD44EA9C85A7";
paths = (
{
closed = 1;
nodes = (
"489 100 LINE",
"170 284 LINE",
"489 417 LINE",
"489 517 LINE",
"50 315 LINE",
"50 250 LINE",
"489 0 LINE"
);
}
);
width = 539;
}
);
unicode = 003C;
},
{
glyphname = greaterequal;
lastChange = "2018-02-09 15:44:29 +0000";
layers = (
{
layerId = "36D41E8E-F531-4154-A930-CD44EA9C85A7";
paths = (
{
closed = 1;
nodes = (
"493 299 LINE",
"493 384 LINE",
"54 517 LINE",
"54 417 LINE",
"330 343 LINE",
"54 249 LINE",
"54 149 LINE"
);
},
{
closed = 1;
nodes = (
"493 0 LINE",
"493 102 LINE",
"50 102 LINE",
"50 0 LINE"
);
}
);
width = 543;
}
);
unicode = 2265;
},
{
glyphname = lessequal;
lastChange = "2018-02-09 15:44:29 +0000";
layers = (
{
layerId = "36D41E8E-F531-4154-A930-CD44EA9C85A7";
paths = (
{
closed = 1;
nodes = (
"489 249 LINE",
"213 343 LINE",
"489 417 LINE",
"489 517 LINE",
"50 384 LINE",
"50 299 LINE",
"489 149 LINE"
);
},
{
closed = 1;
nodes = (
"493 0 LINE",
"493 102 LINE",
"50 102 LINE",
"50 0 LINE"
);
}
);
width = 543;
}
);
unicode = 2264;
},
{
glyphname = plusminus;
lastChange = "2018-02-09 15:44:29 +0000";
layers = (
{
layerId = "36D41E8E-F531-4154-A930-CD44EA9C85A7";
paths = (
{
closed = 1;
nodes = (
"329 199 LINE",
"329 303 LINE",
"492 303 LINE",
"492 406 LINE",
"329 406 LINE",
"329 517 LINE",
"212 517 LINE",
"212 406 LINE",
"50 406 LINE",
"50 303 LINE",
"212 303 LINE",
"212 199 LINE"
);
},
{
closed = 1;
nodes = (
"492 0 LINE",
"492 102 LINE",
"50 102 LINE",
"50 0 LINE"
);
}
);
width = 542;
}
);
unicode = 00B1;
},
{
glyphname = approxequal;
lastChange = "2018-02-09 15:44:29 +0000";
layers = (
{
layerId = "36D41E8E-F531-4154-A930-CD44EA9C85A7";
paths = (
{
closed = 1;
nodes = (
"446 304 OFFCURVE",
"483 353 OFFCURVE",
"497 411 CURVE",
"385 441 LINE",
"380 421 OFFCURVE",
"377 396 OFFCURVE",
"346 396 CURVE SMOOTH",
"326 396 OFFCURVE",
"299 410 OFFCURVE",
"275 421 CURVE SMOOTH",
"240 437 OFFCURVE",
"210 448 OFFCURVE",
"174 448 CURVE SMOOTH",
"101 448 OFFCURVE",
"63 399 OFFCURVE",
"50 341 CURVE",
"162 311 LINE",
"167 331 OFFCURVE",
"170 356 OFFCURVE",
"201 356 CURVE SMOOTH",
"221 356 OFFCURVE",
"248 343 OFFCURVE",
"272 331 CURVE SMOOTH",
"313 311 OFFCURVE",
"343 304 OFFCURVE",
"373 304 CURVE SMOOTH"
);
},
{
closed = 1;
nodes = (
"446 104 OFFCURVE",
"483 153 OFFCURVE",
"497 211 CURVE",
"385 241 LINE",
"380 221 OFFCURVE",
"377 196 OFFCURVE",
"346 196 CURVE SMOOTH",
"326 196 OFFCURVE",
"299 210 OFFCURVE",
"275 221 CURVE SMOOTH",
"240 237 OFFCURVE",
"210 248 OFFCURVE",
"174 248 CURVE SMOOTH",
"101 248 OFFCURVE",
"63 199 OFFCURVE",
"50 141 CURVE",
"162 111 LINE",
"167 131 OFFCURVE",
"170 156 OFFCURVE",
"201 156 CURVE SMOOTH",
"221 156 OFFCURVE",
"248 143 OFFCURVE",
"272 131 CURVE SMOOTH",
"313 111 OFFCURVE",
"343 104 OFFCURVE",
"373 104 CURVE SMOOTH"
);
}
);
width = 547;
}
);
unicode = 2248;
},
{
glyphname = asciitilde;
lastChange = "2018-02-09 15:44:29 +0000";
layers = (
{
anchors = (
{
name = _top;
position = "{217, 517}";
}
);
layerId = "36D41E8E-F531-4154-A930-CD44EA9C85A7";
paths = (
{
closed = 1;
nodes = (
"446 204 OFFCURVE",
"483 253 OFFCURVE",
"497 311 CURVE",
"385 341 LINE",
"380 321 OFFCURVE",
"377 296 OFFCURVE",
"346 296 CURVE SMOOTH",
"326 296 OFFCURVE",
"299 310 OFFCURVE",
"275 321 CURVE SMOOTH",
"240 337 OFFCURVE",
"210 348 OFFCURVE",
"174 348 CURVE SMOOTH",
"101 348 OFFCURVE",
"63 299 OFFCURVE",
"50 241 CURVE",
"162 211 LINE",
"167 231 OFFCURVE",
"170 256 OFFCURVE",
"201 256 CURVE SMOOTH",
"221 256 OFFCURVE",
"248 240 OFFCURVE",
"272 231 CURVE SMOOTH",
"314 215 OFFCURVE",
"343 204 OFFCURVE",
"373 204 CURVE SMOOTH"
);
}
);
width = 547;
}
);
unicode = 007E;
},
{
glyphname = logicalnot;
lastChange = "2018-02-09 15:44:29 +0000";
layers = (
{
layerId = "36D41E8E-F531-4154-A930-CD44EA9C85A7";
paths = (
{
closed = 1;
nodes = (
"492 99 LINE",
"492 347 LINE",
"50 347 LINE",
"50 245 LINE",
"375 245 LINE",
"375 99 LINE"
);
}
);
width = 542;
}
);
leftKerningGroup = tiret;
rightKerningGroup = tiret;
unicode = 00AC;
},
{
glyphname = asciicircum;
lastChange = "2018-02-09 15:44:29 +0000";
layers = (
{
layerId = "36D41E8E-F531-4154-A930-CD44EA9C85A7";
paths = (
{
closed = 1;
nodes = (
"150 320 LINE",
"305 589 LINE",
"467 320 LINE",
"567 320 LINE",
"337 699 LINE",
"272 699 LINE",
"50 320 LINE"
);
}
);
width = 617;
}
);
unicode = 005E;
},
{
glyphname = infinity;
lastChange = "2018-02-09 15:44:29 +0000";
layers = (
{
layerId = "36D41E8E-F531-4154-A930-CD44EA9C85A7";
paths = (
{
closed = 1;
nodes = (
"370 109 OFFCURVE",
"428 137 OFFCURVE",
"467 182 CURVE",
"506 137 OFFCURVE",
"564 109 OFFCURVE",
"630 109 CURVE SMOOTH",
"749 109 OFFCURVE",
"844 202 OFFCURVE",
"844 316 CURVE SMOOTH",
"844 431 OFFCURVE",
"749 524 OFFCURVE",
"630 524 CURVE SMOOTH",
"564 524 OFFCURVE",
"506 496 OFFCURVE",
"467 451 CURVE",
"428 496 OFFCURVE",
"370 524 OFFCURVE",
"304 524 CURVE SMOOTH",
"185 524 OFFCURVE",
"90 431 OFFCURVE",
"90 316 CURVE SMOOTH",
"90 202 OFFCURVE",
"185 109 OFFCURVE",
"304 109 CURVE SMOOTH"
);
},
{
closed = 1;
nodes = (
"241 207 OFFCURVE",
"192 256 OFFCURVE",
"192 316 CURVE SMOOTH",
"192 377 OFFCURVE",
"241 426 OFFCURVE",
"304 426 CURVE SMOOTH",
"367 426 OFFCURVE",
"416 377 OFFCURVE",
"416 316 CURVE SMOOTH",
"416 256 OFFCURVE",
"367 207 OFFCURVE",
"304 207 CURVE SMOOTH"
);
},
{
closed = 1;
nodes = (
"567 207 OFFCURVE",
"518 256 OFFCURVE",
"518 316 CURVE SMOOTH",
"518 377 OFFCURVE",
"567 426 OFFCURVE",
"630 426 CURVE SMOOTH",
"693 426 OFFCURVE",
"742 377 OFFCURVE",
"742 316 CURVE SMOOTH",
"742 256 OFFCURVE",
"693 207 OFFCURVE",
"630 207 CURVE SMOOTH"
);
}
);
width = 934;
}
);
unicode = 221E;
},
{
glyphname = integral;
lastChange = "2018-02-09 15:44:29 +0000";
layers = (
{
layerId = "36D41E8E-F531-4154-A930-CD44EA9C85A7";
paths = (
{
closed = 1;
nodes = (
"200 -212 OFFCURVE",
"262 -118 OFFCURVE",
"301 47 CURVE SMOOTH",
"346 241 LINE",
"490 241 LINE",
"490 343 LINE",
"369 343 LINE",
"395 458 LINE SMOOTH",
"421 569 OFFCURVE",
"457 621 OFFCURVE",
"564 621 CURVE",
"564 717 LINE",
"388 717 OFFCURVE",
"319 623 OFFCURVE",
"280 458 CURVE SMOOTH",
"254 343 LINE",
"122 343 LINE",
"122 241 LINE",
"230 241 LINE",
"200 110 LINE",
"201 110 LINE",
"186 47 LINE SMOOTH",
"160 -64 OFFCURVE",
"125 -116 OFFCURVE",
"24 -116 CURVE",
"24 -212 LINE"
);
}
);
width = 600;
}
);
unicode = 222B;
},
{
glyphname = product;
lastChange = "2018-02-09 15:44:29 +0000";
layers = (
{
layerId = "36D41E8E-F531-4154-A930-CD44EA9C85A7";
paths = (
{
closed = 1;
nodes = (
"238 0 LINE",
"238 577 LINE",
"540 577 LINE",
"540 0 LINE",
"648 0 LINE",
"648 577 LINE",
"738 577 LINE",
"738 679 LINE",
"40 679 LINE",
"40 577 LINE",
"130 577 LINE",
"130 0 LINE"
);
}
);
width = 778;
}
);
unicode = 220F;
},
{
glyphname = summation;
lastChange = "2018-02-09 15:44:29 +0000";
layers = (
{
layerId = "36D41E8E-F531-4154-A930-CD44EA9C85A7";
paths = (
{
closed = 1;
nodes = (
"561 0 LINE",
"561 102 LINE",
"209 102 LINE",
"417 292 LINE",
"417 378 LINE",
"199 577 LINE",
"549 577 LINE",
"549 679 LINE",
"60 679 LINE",
"60 582 LINE",
"323 335 LINE",
"60 97 LINE",
"60 0 LINE"
);
}
);
width = 596;
}
);
unicode = 2211;
},
{
glyphname = radical;
lastChange = "2018-02-09 15:44:29 +0000";
layers = (
{
anchors = (
{
name = top;
position = "{360, 517}";
}
);
layerId = "36D41E8E-F531-4154-A930-CD44EA9C85A7";
paths = (
{
closed = 1;
nodes = (
"349 0 LINE",
"658 725 LINE",
"545 725 LINE",
"298 133 LINE",
"153 472 LINE",
"40 472 LINE",
"243 0 LINE"
);
}
);
width = 593;
}
);
unicode = 221A;
},
{
glyphname = partialdiff;
lastChange = "2018-02-09 15:44:29 +0000";
layers = (
{
layerId = "36D41E8E-F531-4154-A930-CD44EA9C85A7";
paths = (
{
closed = 1;
nodes = (
"439 -26 OFFCURVE",
"556 59 OFFCURVE",
"573 251 CURVE SMOOTH",
"592 473 OFFCURVE",
"497 662 OFFCURVE",
"162 692 CURVE",
"154 598 LINE",
"355 580 OFFCURVE",
"462 498 OFFCURVE",
"481 348 CURVE",
"467 387 OFFCURVE",
"405 443 OFFCURVE",
"313 452 CURVE SMOOTH",
"172 464 OFFCURVE",
"73 376 OFFCURVE",
"61 240 CURVE SMOOTH",
"49 104 OFFCURVE",
"146 -1 OFFCURVE",
"295 -14 CURVE SMOOTH"
);
},
{
closed = 1;
nodes = (
"213 90 OFFCURVE",
"162 154 OFFCURVE",
"169 233 CURVE SMOOTH",
"177 321 OFFCURVE",
"230 377 OFFCURVE",
"328 369 CURVE SMOOTH",
"416 361 OFFCURVE",
"468 282 OFFCURVE",
"462 208 CURVE SMOOTH",
"455 133 OFFCURVE",
"393 74 OFFCURVE",
"303 82 CURVE SMOOTH"
);
}
);
width = 635;
}
);
unicode = 2202;
},
{
glyphname = percent;
lastChange = "2018-02-09 15:44:29 +0000";
layers = (
{
layerId = "36D41E8E-F531-4154-A930-CD44EA9C85A7";
paths = (
{
closed = 1;
nodes = (
"206 -16 LINE",
"588 697 LINE",
"502 697 LINE",
"120 -16 LINE"
);
},
{
closed = 1;
nodes = (
"595 -16 OFFCURVE",
"661 49 OFFCURVE",
"661 129 CURVE SMOOTH",
"661 210 OFFCURVE",
"595 276 OFFCURVE",
"514 276 CURVE SMOOTH",
"434 276 OFFCURVE",
"369 210 OFFCURVE",
"369 129 CURVE SMOOTH",
"369 49 OFFCURVE",
"434 -16 OFFCURVE",
"514 -16 CURVE SMOOTH"
);
},
{
closed = 1;
nodes = (
"473 54 OFFCURVE",
"439 88 OFFCURVE",
"439 129 CURVE SMOOTH",
"439 171 OFFCURVE",
"473 206 OFFCURVE",
"514 206 CURVE SMOOTH",
"556 206 OFFCURVE",
"591 171 OFFCURVE",
"591 129 CURVE SMOOTH",
"591 88 OFFCURVE",
"556 54 OFFCURVE",
"514 54 CURVE SMOOTH"
);
},
{
closed = 1;
nodes = (
"286 407 OFFCURVE",
"352 472 OFFCURVE",
"352 552 CURVE SMOOTH",
"352 633 OFFCURVE",
"286 699 OFFCURVE",
"205 699 CURVE SMOOTH",
"125 699 OFFCURVE",
"60 633 OFFCURVE",
"60 552 CURVE SMOOTH",
"60 472 OFFCURVE",
"125 407 OFFCURVE",
"205 407 CURVE SMOOTH"
);
},
{
closed = 1;
nodes = (
"164 477 OFFCURVE",
"130 511 OFFCURVE",
"130 552 CURVE SMOOTH",
"130 594 OFFCURVE",
"164 629 OFFCURVE",
"205 629 CURVE SMOOTH",
"247 629 OFFCURVE",
"282 594 OFFCURVE",
"282 552 CURVE SMOOTH",
"282 511 OFFCURVE",
"247 477 OFFCURVE",
"205 477 CURVE SMOOTH"
);
}
);
width = 721;
}
);
note = percent;
unicode = 0025;
},
